Cinzel-Bold-OTF.ufo
<glyph name="exclam" format="1">
  <advance width="269"/>
  <unicode hex="0021"/>
  <outline>
    <contour>
      <point x="193.065" y="378.672" type="line"/>
      <point x="211.412" y="701.603" type="line"/>
      <point x="57.4837" y="701.603" type="line"/>
      <point x="75.8002" y="378.672" type="line"/>
      <point x="110.861" y="206.429" type="line"/>
      <point x="157.29" y="206.429" type="line"/>
    </contour>
    <contour>
      <point x="173.294" y="-10"/>
      <point x="205.673" y="22.3077"/>
      <point x="205.673" y="62.25" type="curve" smooth="yes"/>
      <point x="205.673" y="102.192"/>
      <point x="173.294" y="134.571"/>
      <point x="133.352" y="134.571" type="curve" smooth="yes"/>
      <point x="93.4093" y="134.571"/>
      <point x="61.0302" y="102.192"/>
      <point x="61.0302" y="62.25" type="curve" smooth="yes"/>
      <point x="61.0302" y="22.3077"/>
      <point x="93.4093" y="-10"/>
      <point x="133.352" y="-10" type="curve" smooth="yes"/>
    </contour>
  </outline>
</glyph>
<glyph name="quotedbl" format="1">
  <advance width="362"/>
  <unicode hex="0022"/>
  <outline>
    <contour>
      <point x="51.6618" y="500" type="line"/>
      <point x="147.555" y="535.343"/>
      <point x="171.541" y="662.464"/>
      <point x="168.966" y="714" type="curve"/>
      <point x="61.811" y="700" type="line"/>
      <point x="70.0956" y="627.334"/>
      <point x="66.3115" y="592.918"/>
      <point x="37.8571" y="505.251" type="curve"/>
    </contour>
    <contour>
      <point x="208.165" y="500" type="line"/>
      <point x="304.058" y="535.343"/>
      <point x="328.045" y="662.464"/>
      <point x="325.47" y="714" type="curve"/>
      <point x="218.314" y="700" type="line"/>
      <point x="226.599" y="627.334"/>
      <point x="222.815" y="592.918"/>
      <point x="194.36" y="505.251" type="curve"/>
    </contour>
  </outline>
</glyph>
<glyph name="numbersign" format="1">
  <advance width="574"/>
  <unicode hex="0023"/>
  <outline>
    <contour>
      <point x="534.214" y="448.663" type="line"/>
      <point x="534.214" y="496.877" type="line"/>
      <point x="426.873" y="496.877" type="line"/>
      <point x="462.688" y="700" type="line"/>
      <point x="412.474" y="700" type="line"/>
      <point x="376.658" y="496.877" type="line"/>
      <point x="226.873" y="496.877" type="line"/>
      <point x="262.688" y="700" type="line"/>
      <point x="212.474" y="700" type="line"/>
      <point x="176.658" y="496.877" type="line"/>
      <point x="64" y="496.877" type="line"/>
      <point x="64" y="448.663" type="line"/>
      <point x="168.157" y="448.663" type="line"/>
      <point x="135.788" y="265.091" type="line"/>
      <point x="20" y="265.091" type="line"/>
      <point x="20" y="216.877" type="line"/>
      <point x="127.287" y="216.877" type="line"/>
      <point x="89.0461" y="0" type="line"/>
      <point x="139.261" y="0" type="line"/>
      <point x="177.501" y="216.877" type="line"/>
      <point x="327.287" y="216.877" type="line"/>
      <point x="289.046" y="0" type="line"/>
      <point x="339.261" y="0" type="line"/>
      <point x="377.501" y="216.877" type="line"/>
      <point x="490.214" y="216.877" type="line"/>
      <point x="490.214" y="265.091" type="line"/>
      <point x="386.003" y="265.091" type="line"/>
      <point x="418.371" y="448.663" type="line"/>
    </contour>
    <contour>
      <point x="335.789" y="265.091" type="line"/>
      <point x="186.003" y="265.091" type="line"/>
      <point x="218.371" y="448.663" type="line"/>
      <point x="368.157" y="448.663" type="line"/>
    </contour>
  </outline>
</glyph>
<glyph name="dollar" format="1">
  <advance width="557"/>
  <unicode hex="0024"/>
  <outline>
    <contour>
      <point x="314.993" y="436.552" type="line"/>
      <point x="332.93" y="669.847" type="line"/>
      <point x="403.155" y="660.671"/>
      <point x="445.917" y="618.108"/>
      <point x="446.136" y="556.748" type="curve"/>
      <point x="455.765" y="556.748" type="line"/>
      <point x="467.154" y="683.478" type="line"/>
      <point x="467.871" y="691.462" type="line"/>
      <point x="468.862" y="703.741" type="line"/>
      <point x="406.376" y="703.741" type="line"/>
      <point x="384.709" y="706.509"/>
      <point x="360.011" y="708.975"/>
      <point x="336.078" y="710.795" type="curve"/>
      <point x="341.933" y="786.94" type="line"/>
      <point x="300.48" y="787.988" type="line"/>
      <point x="294.772" y="713.295" type="line"/>
      <point x="265.373" y="714" type="line" smooth="yes"/>
      <point x="148.762" y="714"/>
      <point x="67.959" y="645.267"/>
      <point x="59.459" y="539.195" type="curve" smooth="yes"/>
      <point x="52.1733" y="465.7"/>
      <point x="83.3098" y="400.229"/>
      <point x="155.074" y="359.475" type="curve"/>
      <point x="262.292" y="288.332" type="line"/>
      <point x="242.523" y="29.6684" type="line"/>
      <point x="137.811" y="40.8815"/>
      <point x="75.5531" y="120.074"/>
      <point x="82.5002" y="216.475" type="curve"/>
      <point x="73.7082" y="216.475" type="line"/>
      <point x="47.5466" y="172.853"/>
      <point x="33.4452" y="88.5097"/>
      <point x="50.0053" y="46.7101" type="curve"/>
      <point x="82.7295" y="13.1399"/>
      <point x="153.665" y="-10"/>
      <point x="239.221" y="-14" type="curve"/>
      <point x="232.689" y="-99" type="line"/>
      <point x="273.588" y="-102" type="line"/>
      <point x="280.384" y="-14" type="line"/>
      <point x="427.352" y="-8"/>
      <point x="518.442" y="67.7752"/>
      <point x="524.275" y="193.321" type="curve" smooth="yes"/>
      <point x="528.525" y="268.737"/>
      <point x="494.898" y="324.07"/>
      <point x="434.612" y="358.846" type="curve"/>
    </contour>
    <contour>
      <point x="243.938" y="482.71" type="line"/>
      <point x="201.998" y="507.236"/>
      <point x="171.716" y="535.216"/>
      <point x="174.145" y="576.073" type="curve" smooth="yes"/>
      <point x="176.444" y="626.62"/>
      <point x="222.514" y="667.192"/>
      <point x="291.566" y="671.35" type="curve"/>
      <point x="275.578" y="462.157" type="line"/>
    </contour>
    <contour>
      <point x="301.593" y="262.254" type="line"/>
      <point x="329.323" y="243.854" type="line"/>
      <point x="386.594" y="212.312"/>
      <point x="409.306" y="179.542"/>
      <point x="409.243" y="140.142" type="curve" smooth="yes"/>
      <point x="409.303" y="82.0045"/>
      <point x="363.415" y="34.1803"/>
      <point x="283.645" y="28.8086" type="curve"/>
    </contour>
  </outline>
</glyph>
<glyph name="percent" format="1">
  <advance width="740"/>
  <unicode hex="0025"/>
  <outline>
    <contour>
      <point x="534.053" y="709.002" type="line"/>
      <point x="501.611" y="693.411"/>
      <point x="452.431" y="657.757"/>
      <point x="396.687" y="661.885" type="curve" smooth="yes"/>
      <point x="336.228" y="666.14"/>
      <point x="316.309" y="714.916"/>
      <point x="223.359" y="714.056" type="curve" smooth="yes"/>
      <point x="122.987" y="713.609"/>
      <point x="50.1788" y="649.633"/>
      <point x="33.2899" y="543.214" type="curve" smooth="yes"/>
      <point x="15.2784" y="429.173"/>
      <point x="65.0222" y="360.837"/>
      <point x="161.67" y="360.837" type="curve" smooth="yes"/>
      <point x="266.27" y="360.837"/>
      <point x="340.517" y="426.918"/>
      <point x="355.456" y="537.144" type="curve" smooth="yes"/>
      <point x="361.529" y="581.983"/>
      <point x="356.802" y="619.541"/>
      <point x="342.685" y="648.353" type="curve"/>
      <point x="358.701" y="641.628"/>
      <point x="375.986" y="635.993"/>
      <point x="395.69" y="633.675" type="curve" smooth="yes"/>
      <point x="434.418" y="629.675"/>
      <point x="471.994" y="641.371"/>
      <point x="506.887" y="662.491" type="curve"/>
      <point x="157.023" y="0.00133377" type="line"/>
      <point x="194.257" y="-16" type="line"/>
      <point x="566.602" y="695.144" type="line"/>
    </contour>
    <contour>
      <point x="244.043" y="447.364"/>
      <point x="212.545" y="393.546"/>
      <point x="173.021" y="393.061" type="curve" smooth="yes"/>
      <point x="137.085" y="393.111"/>
      <point x="123.849" y="447.154"/>
      <point x="137.892" y="537.144" type="curve" smooth="yes"/>
      <point x="152.06" y="627.532"/>
      <point x="182.989" y="681.782"/>
      <point x="220.157" y="681.782" type="curve" smooth="yes"/>
      <point x="255.865" y="681.782"/>
      <point x="269.671" y="627.307"/>
      <point x="256.818" y="536.537" type="curve" smooth="yes"/>
    </contour>
    <contour>
      <point x="466.153" y="339.097"/>
      <point x="392.977" y="275.046"/>
      <point x="375.855" y="168.256" type="curve" smooth="yes"/>
      <point x="357.649" y="54.2152"/>
      <point x="407.311" y="-14"/>
      <point x="504.016" y="-14" type="curve" smooth="yes"/>
      <point x="610.237" y="-14"/>
      <point x="684.565" y="51.9596"/>
      <point x="698.021" y="162.186" type="curve" smooth="yes"/>
      <point x="711.51" y="272.793"/>
      <point x="660.696" y="339.099"/>
      <point x="566.757" y="339.097" type="curve" smooth="yes"/>
    </contour>
    <contour>
      <point x="582.522" y="71.96"/>
      <point x="550.943" y="18.1426"/>
      <point x="511.393" y="18.1031" type="curve" smooth="yes"/>
      <point x="475.594" y="18.1499"/>
      <point x="462.441" y="72.1931"/>
      <point x="476.484" y="162.186" type="curve" smooth="yes"/>
      <point x="490.506" y="252.575"/>
      <point x="521.353" y="306.824"/>
      <point x="558.528" y="306.825" type="curve" smooth="yes"/>
      <point x="594.535" y="306.825"/>
      <point x="608.422" y="252.35"/>
      <point x="595.409" y="161.579" type="curve" smooth="yes"/>
    </contour>
  </outline>
</glyph>
<glyph name="ampersand" format="1">
  <advance width="807"/>
  <unicode hex="0026"/>
  <outline>
    <contour>
      <point x="847.825" y="10.607" type="line"/>
      <point x="795.983" y="26.119"/>
      <point x="738.996" y="72.404"/>
      <point x="665.631" y="136.171" type="curve"/>
      <point x="698.928" y="197.456"/>
      <point x="710.493" y="271.701"/>
      <point x="708.533" y="346.143" type="curve" smooth="yes"/>
      <point x="708.316" y="377.991"/>
      <point x="713.385" y="399.142"/>
      <point x="743.987" y="398.878" type="curve" smooth="yes"/>
      <point x="758.264" y="398.857" type="line"/>
      <point x="758.264" y="408.857" type="line"/>
      <point x="524.419" y="408.857" type="line"/>
      <point x="524.419" y="398.857" type="line"/>
      <point x="539.357" y="398.878" type="line" smooth="yes"/>
      <point x="565.148" y="399.142"/>
      <point x="585.682" y="384.603"/>
      <point x="600.638" y="353.296" type="curve" smooth="yes"/>
      <point x="622.805" y="306.891"/>
      <point x="624.805" y="244.523"/>
      <point x="607.32" y="187.103" type="curve"/>
      <point x="561.649" y="225.056"/>
      <point x="496.2" y="283.017"/>
      <point x="453.86" y="319.948" type="curve" smooth="yes"/>
      <point x="344.166" y="415.681"/>
      <point x="284.652" y="477.184"/>
      <point x="284.652" y="554.797" type="curve" smooth="yes"/>
      <point x="284.652" y="622.941"/>
      <point x="331.463" y="672.034"/>
      <point x="398.491" y="672.034" type="curve" smooth="yes"/>
      <point x="488.963" y="672.034"/>
      <point x="524.149" y="589.469"/>
      <point x="524.754" y="499.594" type="curve"/>
      <point x="534.227" y="499.594" type="line"/>
      <point x="569.733" y="643.151" type="line"/>
      <point x="535.605" y="690.914"/>
      <point x="450.194" y="713.81"/>
      <point x="372.384" y="714.176" type="curve" smooth="yes"/>
      <point x="247.624" y="714.176"/>
      <point x="130.045" y="658.496"/>
      <point x="130.045" y="535.631" type="curve" smooth="yes"/>
      <point x="130.045" y="485.531"/>
      <point x="146.401" y="440.071"/>
      <point x="174.064" y="396.737" type="curve"/>
      <point x="106.43" y="374.752"/>
      <point x="26.9639" y="321.208"/>
      <point x="26.9639" y="216.239" type="curve" smooth="yes"/>
      <point x="26.9639" y="42.312"/>
      <point x="222.19" y="-10"/>
      <point x="375.562" y="-10" type="curve" smooth="yes"/>
      <point x="458.702" y="-10"/>
      <point x="522.939" y="7.53849"/>
      <point x="571.796" y="37.1377" type="curve"/>
      <point x="667.321" y="-18"/>
      <point x="774.761" y="-6"/>
      <point x="848.261" y="0" type="curve"/>
    </contour>
    <contour>
      <point x="182.262" y="286.659"/>
      <point x="195.6" y="321.78"/>
      <point x="211.553" y="346.548" type="curve"/>
      <point x="246.554" y="305.391"/>
      <point x="290.487" y="265.327"/>
      <point x="338.62" y="224" type="curve" smooth="yes"/>
      <point x="375.853" y="191.762"/>
      <point x="459.855" y="120.401"/>
      <point x="526.967" y="68.5181" type="curve"/>
      <point x="496.46" y="46.0807"/>
      <point x="458.482" y="32.2709"/>
      <point x="413.205" y="32.2709" type="curve" smooth="yes"/>
      <point x="298.744" y="32.2709"/>
      <point x="191.643" y="100.905"/>
      <point x="184.964" y="236.275" type="curve" smooth="yes"/>
    </contour>
  </outline>
</glyph>
<glyph name="quotesingle" format="1">
  <advance width="200"/>
  <unicode hex="0027"/>
  <outline>
    <contour>
      <point x="45.769" y="500" type="line"/>
      <point x="141.662" y="535.343"/>
      <point x="165.649" y="662.464"/>
      <point x="163.074" y="714" type="curve"/>
      <point x="55.918" y="700" type="line"/>
      <point x="64.203" y="627.334"/>
      <point x="60.419" y="592.918"/>
      <point x="31.9643" y="505.251" type="curve"/>
    </contour>
  </outline>
</glyph>
<glyph name="parenleft" format="1">
  <advance width="423"/>
  <unicode hex="0028"/>
  <outline>
    <contour>
      <point x="387.521" y="732" type="line"/>
      <point x="192.249" y="699.887"/>
      <point x="89.298" y="536.36"/>
      <point x="90.0102" y="333.717" type="curve" smooth="yes"/>
      <point x="90.7306" y="139.892"/>
      <point x="193.17" y="-41"/>
      <point x="385.728" y="-100" type="curve"/>
      <point x="391.728" y="-91" type="line"/>
      <point x="302.902" y="-29"/>
      <point x="242.308" y="119.667"/>
      <point x="238.939" y="335.51" type="curve" smooth="yes"/>
      <point x="235.821" y="535.785"/>
      <point x="297.356" y="678.097"/>
      <point x="393.521" y="724" type="curve"/>
    </contour>
  </outline>
</glyph>
<glyph name="parenright" format="1">
  <advance width="423"/>
  <unicode hex="0029"/>
  <outline>
    <contour>
      <point x="37.794" y="-100" type="line"/>
      <point x="230.352" y="-41"/>
      <point x="332.791" y="139.893"/>
      <point x="333.511" y="333.718" type="curve" smooth="yes"/>
      <point x="334.223" y="536.361"/>
      <point x="231.272" y="699.888"/>
      <point x="36" y="732" type="curve"/>
      <point x="30" y="724" type="line"/>
      <point x="126.166" y="678.098"/>
      <point x="187.701" y="535.786"/>
      <point x="184.582" y="335.511" type="curve" smooth="yes"/>
      <point x="181.214" y="119.668"/>
      <point x="120.62" y="-29"/>
      <point x="31.794" y="-91" type="curve"/>
    </contour>
  </outline>
</glyph>
<glyph name="asterisk" format="1">
  <advance width="388"/>
  <unicode hex="002A"/>
  <outline>
    <contour>
      <point x="201.527" y="605.283" type="line"/>
      <point x="263.888" y="596.066" type="line"/>
      <point x="352.601" y="611.64" type="line"/>
      <point x="352.601" y="658.899" type="line"/>
      <point x="324.701" y="697.507" type="line"/>
      <point x="244.023" y="657.206" type="line"/>
      <point x="199.14" y="613.37" type="line"/>
      <point x="227.017" y="669.647" type="line"/>
      <point x="239.619" y="758.83" type="line"/>
      <point x="194.476" y="772.83" type="line"/>
      <point x="149.334" y="758.83" type="line"/>
      <point x="162.732" y="669.647" type="line"/>
      <point x="190.539" y="613.443" type="line"/>
      <point x="145.573" y="657.334" type="line"/>
      <point x="64.6486" y="696.878" type="line"/>
      <point x="37.3843" y="658.27" type="line"/>
      <point x="37.3843" y="611.011" type="line"/>
      <point x="125.708" y="596.194" type="line"/>
      <point x="187.845" y="605.285" type="line"/>
      <point x="132.142" y="576.127" type="line"/>
      <point x="69.5257" y="511.384" type="line"/>
      <point x="97.8188" y="473.523" type="line"/>
      <point x="142.569" y="458.315" type="line"/>
      <point x="184.151" y="538.341" type="line"/>
      <point x="194.721" y="600.338" type="line"/>
      <point x="205.272" y="538.255" type="line"/>
      <point x="247.498" y="458.697" type="line"/>
      <point x="292.248" y="473.905" type="line"/>
      <point x="320.541" y="511.766" type="line"/>
      <point x="257.281" y="576.042" type="line"/>
    </contour>
  </outline>
</glyph>
<glyph name="plus" format="1">
  <advance width="481"/>
  <unicode hex="002B"/>
  <outline>
    <contour>
      <point x="441.723" y="338.324" type="line"/>
      <point x="269.434" y="338.324" type="line"/>
      <point x="269.434" y="510.614" type="line"/>
      <point x="212.291" y="510.614" type="line"/>
      <point x="212.291" y="338.324" type="line"/>
      <point x="40" y="338.324" type="line"/>
      <point x="40" y="281.181" type="line"/>
      <point x="212.291" y="281.181" type="line"/>
      <point x="212.291" y="108.891" type="line"/>
      <point x="269.434" y="108.891" type="line"/>
      <point x="269.434" y="281.181" type="line"/>
      <point x="441.723" y="281.181" type="line"/>
    </contour>
  </outline>
</glyph>
<glyph name="comma" format="1">
  <advance width="230"/>
  <unicode hex="002C"/>
  <outline>
    <contour>
      <point x="45.7371" y="-113" type="line"/>
      <point x="143.597" y="-126"/>
      <point x="224.175" y="-14"/>
      <point x="179.032" y="87.3455" type="curve" smooth="yes"/>
      <point x="157.422" y="136.114"/>
      <point x="95.1932" y="146.867"/>
      <point x="63.0256" y="115.823" type="curve" smooth="yes"/>
      <point x="35.087" y="89.1461"/>
      <point x="39.4377" y="40.4976"/>
      <point x="66.2941" y="9.77401" type="curve" smooth="yes"/>
      <point x="104.976" y="-34"/>
      <point x="87.5107" y="-85"/>
      <point x="42.4745" y="-102" type="curve"/>
    </contour>
  </outline>
</glyph>
<glyph name="hyphen" format="1">
  <advance width="380"/>
  <unicode hex="002D"/>
  <outline>
    <contour>
      <point x="31.5714" y="291.741" type="line"/>
      <point x="40" y="258.072" type="line"/>
      <point x="340" y="258.072" type="line"/>
      <point x="348.429" y="291.741" type="line"/>
      <point x="340" y="324.929" type="line"/>
      <point x="40" y="324.929" type="line"/>
    </contour>
  </outline>
</glyph>
<glyph name="period" format="1">
  <advance width="222"/>
  <unicode hex="002E"/>
  <outline>
    <contour>
      <point x="151.192" y="-10"/>
      <point x="183.571" y="22.3077"/>
      <point x="183.571" y="62.25" type="curve" smooth="yes"/>
      <point x="183.571" y="102.192"/>
      <point x="151.192" y="134.571"/>
      <point x="111.25" y="134.571" type="curve" smooth="yes"/>
      <point x="71.3076" y="134.571"/>
      <point x="38.9285" y="102.192"/>
      <point x="38.9285" y="62.25" type="curve" smooth="yes"/>
      <point x="38.9285" y="22.3077"/>
      <point x="71.3076" y="-10"/>
      <point x="111.25" y="-10" type="curve" smooth="yes"/>
    </contour>
  </outline>
</glyph>
<glyph name="zero" format="1">
  <advance width="653"/>
  <unicode hex="0030"/>
  <outline>
    <contour>
      <point x="151.024" y="714"/>
      <point x="46" y="571.503"/>
      <point x="46" y="350" type="curve" smooth="yes"/>
      <point x="46" y="128.497"/>
      <point x="151.024" y="-14"/>
      <point x="326.625" y="-14" type="curve" smooth="yes"/>
      <point x="502.226" y="-14"/>
      <point x="607.25" y="128.497"/>
      <point x="607.25" y="350" type="curve" smooth="yes"/>
      <point x="607.25" y="571.503"/>
      <point x="502.226" y="714"/>
      <point x="326.625" y="714" type="curve" smooth="yes"/>
    </contour>
    <contour>
      <point x="408.505" y="671.857"/>
      <point x="452.25" y="562.079"/>
      <point x="452.25" y="350" type="curve" smooth="yes"/>
      <point x="452.25" y="137.921"/>
      <point x="408.505" y="28.1431"/>
      <point x="326.625" y="28.1431" type="curve" smooth="yes"/>
      <point x="244.745" y="28.1431"/>
      <point x="201" y="137.921"/>
      <point x="201" y="350" type="curve" smooth="yes"/>
      <point x="201" y="562.079"/>
      <point x="244.745" y="671.857"/>
      <point x="326.625" y="671.857" type="curve" smooth="yes"/>
    </contour>
  </outline>
</glyph>
<glyph name="one" format="1">
  <advance width="392"/>
  <unicode hex="0031"/>
  <outline>
    <contour>
      <point x="49.275" y="0" type="line"/>
      <point x="49.414" y="10" type="line"/>
      <point x="70.319" y="10" type="line" smooth="yes"/>
      <point x="100.463" y="9.9489"/>
      <point x="125.536" y="34.108"/>
      <point x="125.536" y="64.102" type="curve" smooth="yes"/>
      <point x="125.536" y="578.857" type="line" smooth="yes"/>
      <point x="125.536" y="623.2"/>
      <point x="103.579" y="640"/>
      <point x="67.3752" y="640" type="curve" smooth="yes"/>
      <point x="41.786" y="640" type="line"/>
      <point x="41.786" y="650" type="line"/>
      <point x="95.6154" y="654.593"/>
      <point x="206.173" y="670.077"/>
      <point x="264.583" y="714" type="curve"/>
      <point x="274.583" y="714" type="line"/>
      <point x="274.583" y="63.4498" type="line" smooth="yes"/>
      <point x="274.583" y="33.7498"/>
      <point x="299.858" y="9.94882"/>
      <point x="329.783" y="9.97882" type="curve" smooth="yes"/>
      <point x="350.688" y="9.97882" type="line"/>
      <point x="350.827" y="0" type="line"/>
    </contour>
  </outline>
</glyph>
<glyph name="two" format="1">
  <advance width="616"/>
  <unicode hex="0032"/>
  <outline>
    <contour>
      <point x="105.081" y="486.931" type="line"/>
      <point x="103.946" y="603.836"/>
      <point x="154.308" y="666.914"/>
      <point x="241.83" y="671.857" type="curve" smooth="yes"/>
      <point x="324.853" y="676.165"/>
      <point x="376.09" y="617.723"/>
      <point x="376.09" y="522.904" type="curve" smooth="yes"/>
      <point x="376.09" y="361.627"/>
      <point x="177.358" y="159.772"/>
      <point x="45.2909" y="10" type="curve"/>
      <point x="45.2909" y="0.00101042" type="line"/>
      <point x="522.577" y="0.00101042" type="line"/>
      <point x="582.435" y="226.134" type="line"/>
      <point x="572.435" y="226.134" type="line"/>
      <point x="537.254" y="157.162"/>
      <point x="502.604" y="129.212"/>
      <point x="443.173" y="129.212" type="curve" smooth="yes"/>
      <point x="237.318" y="129.212" type="line"/>
      <point x="336.269" y="207.705"/>
      <point x="536.091" y="346.782"/>
      <point x="536.091" y="511.727" type="curve" smooth="yes"/>
      <point x="536.091" y="638.291"/>
      <point x="426.904" y="714.002"/>
      <point x="276.439" y="714.002" type="curve" smooth="yes"/>
      <point x="192.471" y="714.002"/>
      <point x="98.0236" y="686.886"/>
      <point x="47.3764" y="640.811" type="curve"/>
      <point x="95.081" y="486.931" type="line"/>
    </contour>
  </outline>
</glyph>
<glyph name="three" format="1">
  <advance width="563"/>
  <unicode hex="0033"/>
  <outline>
    <contour>
      <point x="83.8484" y="499.195" type="line"/>
      <point x="93.8484" y="499.195" type="line"/>
      <point x="90.0176" y="606.358"/>
      <point x="127.696" y="665.608"/>
      <point x="208.778" y="669.962" type="curve" smooth="yes"/>
      <point x="278.303" y="673.501"/>
      <point x="325.839" y="633.108"/>
      <point x="331.268" y="565" type="curve" smooth="yes"/>
      <point x="339.089" y="463.287"/>
      <point x="251.232" y="392.18"/>
      <point x="160.193" y="394.367" type="curve"/>
      <point x="158.37" y="384.367" type="line"/>
      <point x="257.375" y="383.394"/>
      <point x="351.268" y="335.644"/>
      <point x="351.409" y="217.023" type="curve" smooth="yes"/>
      <point x="351.268" y="71.9649"/>
      <point x="211.232" y="-26"/>
      <point x="49.1957" y="-22" type="curve"/>
      <point x="47.1957" y="-32" type="line"/>
      <point x="260.339" y="-106"/>
      <point x="511.268" y="2.32249"/>
      <point x="511.627" y="206.483" type="curve"/>
      <point x="511.32" y="326.839"/>
      <point x="425.65" y="381.812"/>
      <point x="349.23" y="395.635" type="curve"/>
      <point x="416.56" y="400.318"/>
      <point x="486.196" y="460.062"/>
      <point x="486.196" y="549.036" type="curve" smooth="yes"/>
      <point x="486.196" y="649.393"/>
      <point x="398.661" y="714.358"/>
      <point x="254.589" y="712" type="curve" smooth="yes"/>
      <point x="157.982" y="710.428"/>
      <point x="85.6605" y="680.643"/>
      <point x="42.2137" y="640.966" type="curve"/>
    </contour>
  </outline>
</glyph>
<glyph name="four" format="1">
  <advance width="619"/>
  <unicode hex="0034"/>
  <outline>
    <contour>
      <point x="560.476" y="212.334" type="line"/>
      <point x="587.547" y="329.834" type="line"/>
      <point x="577.547" y="329.834" type="line"/>
      <point x="565.547" y="309.02"/>
      <point x="553.671" y="297.691"/>
      <point x="516.833" y="297.691" type="curve" smooth="yes"/>
      <point x="473.325" y="297.691" type="line"/>
      <point x="473.325" y="714" type="line"/>
      <point x="463.96" y="714" type="line"/>
      <point x="6.60802" y="222.334" type="line"/>
      <point x="6.60802" y="212.334" type="line"/>
      <point x="323.325" y="212.334" type="line"/>
      <point x="323.325" y="61.8598" type="line"/>
      <point x="322.202" y="31.947"/>
      <point x="297.594" y="9.99942"/>
      <point x="268.148" y="9.99942" type="curve" smooth="yes"/>
      <point x="257.243" y="9.99942" type="line"/>
      <point x="257.104" y="0" type="line"/>
      <point x="539.565" y="0" type="line"/>
      <point x="539.426" y="9.99942" type="line"/>
      <point x="528.521" y="9.99942" type="line" smooth="yes"/>
      <point x="498.804" y="9.99942"/>
      <point x="473.673" y="33.6669"/>
      <point x="473.325" y="63.3746" type="curve"/>
      <point x="473.325" y="212.334" type="line"/>
    </contour>
    <contour>
      <point x="138.622" y="297.691" type="line"/>
      <point x="323.325" y="494.964" type="line"/>
      <point x="323.325" y="297.691" type="line"/>
    </contour>
  </outline>
</glyph>
<glyph name="five" format="1">
  <advance width="554"/>
  <unicode hex="0035"/>
  <outline>
    <contour>
      <point x="481.815" y="735.072" type="line"/>
      <point x="471.815" y="735.072" type="line"/>
      <point x="456.48" y="705.173"/>
      <point x="434.121" y="685.072"/>
      <point x="392.419" y="685.072" type="curve"/>
      <point x="134.213" y="664" type="line"/>
      <point x="52.7315" y="324.094" type="line"/>
      <point x="61.7315" y="318.879" type="line"/>
      <point x="217.642" y="378.461"/>
      <point x="339.942" y="325.376"/>
      <point x="332.147" y="203.579" type="curve" smooth="yes"/>
      <point x="321.747" y="41.3608"/>
      <point x="112.464" y="-24"/>
      <point x="27.7142" y="-21" type="curve"/>
      <point x="25.7142" y="-31" type="line"/>
      <point x="170.715" y="-96"/>
      <point x="483.782" y="-28"/>
      <point x="494.575" y="217.474" type="curve" smooth="yes"/>
      <point x="502.101" y="389.08"/>
      <point x="356.287" y="488.301"/>
      <point x="134.808" y="434.54" type="curve"/>
      <point x="164.46" y="547.073" type="line"/>
      <point x="442.943" y="568.143" type="line"/>
    </contour>
  </outline>
</glyph>
<glyph name="six" format="1">
  <advance width="629"/>
  <unicode hex="0036"/>
  <outline>
    <contour>
      <point x="257.73" y="345.613" type="line"/>
      <point x="278.162" y="365.574"/>
      <point x="312.136" y="379.658"/>
      <point x="346.525" y="372.346" type="curve"/>
      <point x="397.933" y="365.301"/>
      <point x="429.361" y="320.309"/>
      <point x="429.959" y="211.534" type="curve" smooth="yes"/>
      <point x="430.532" y="118.928"/>
      <point x="405.487" y="33.231"/>
      <point x="323.014" y="33.231" type="curve" smooth="yes"/>
      <point x="237.694" y="33.231"/>
      <point x="215.732" y="125.19"/>
      <point x="215.732" y="285.177" type="curve" smooth="yes"/>
      <point x="215.732" y="500.662"/>
      <point x="252.908" y="649.598"/>
      <point x="500.639" y="727.022" type="curve"/>
      <point x="496.99" y="734.431" type="line"/>
      <point x="195.424" y="748.946"/>
      <point x="50.86" y="552.27"/>
      <point x="49.8387" y="297.927" type="curve" smooth="yes"/>
      <point x="48.9366" y="87.524"/>
      <point x="152.744" y="-18"/>
      <point x="324.668" y="-15" type="curve" smooth="yes"/>
      <point x="498.653" y="-12"/>
      <point x="584.372" y="97.0092"/>
      <point x="583.888" y="223.712" type="curve" smooth="yes"/>
      <point x="583.043" y="469.872"/>
      <point x="325.371" y="479.382"/>
      <point x="251.114" y="354.006" type="curve"/>
    </contour>
  </outline>
</glyph>
<glyph name="seven" format="1">
  <advance width="544"/>
  <unicode hex="0037"/>
  <outline>
    <contour>
      <point x="45.0039" y="698.125" type="line"/>
      <point x="523.294" y="698.125" type="line"/>
      <point x="403.536" y="406.231" type="line" smooth="yes"/>
      <point x="368.385" y="320.999"/>
      <point x="293.2" y="97.5529"/>
      <point x="267.44" y="0" type="curve"/>
      <point x="136.726" y="0" type="line"/>
      <point x="190.238" y="100.343"/>
      <point x="298.77" y="316.032"/>
      <point x="340.94" y="414.054" type="curve" smooth="yes"/>
      <point x="407.102" y="572.144" type="line"/>
      <point x="101.754" y="572.144" type="line" smooth="yes"/>
      <point x="61.7708" y="572.144"/>
      <point x="41.5468" y="551.8"/>
      <point x="26.7859" y="512.144" type="curve"/>
      <point x="16.7857" y="512.143" type="line"/>
    </contour>
  </outline>
</glyph>
<glyph name="eight" format="1">
  <advance width="603"/>
  <unicode hex="0038"/>
  <outline>
    <contour>
      <point x="462.206" y="417.166"/>
      <point x="520.229" y="468.118"/>
      <point x="520.125" y="544.54" type="curve"/>
      <point x="520.25" y="648.509"/>
      <point x="419.375" y="714.785"/>
      <point x="299.073" y="713.999" type="curve" smooth="yes"/>
      <point x="170.536" y="713.213"/>
      <point x="79.1006" y="638.955"/>
      <point x="79.0809" y="521.203" type="curve" smooth="yes"/>
      <point x="79.0928" y="435.704"/>
      <point x="127.066" y="379.143"/>
      <point x="183.384" y="338.386" type="curve"/>
      <point x="117.696" y="313.753"/>
      <point x="40.0428" y="266.757"/>
      <point x="38.8579" y="167.866" type="curve" smooth="yes"/>
      <point x="36.8936" y="36.1952"/>
      <point x="161.478" y="-14"/>
      <point x="289.546" y="-14" type="curve" smooth="yes"/>
      <point x="455.193" y="-14"/>
      <point x="564.144" y="60.8431"/>
      <point x="564.157" y="190.372" type="curve"/>
      <point x="564.146" y="304.07"/>
      <point x="479.936" y="350.081"/>
      <point x="389.294" y="396.727" type="curve"/>
    </contour>
    <contour>
      <point x="356.196" y="669.427"/>
      <point x="388.603" y="622.677"/>
      <point x="389.984" y="557.877" type="curve" smooth="yes"/>
      <point x="391.169" y="514.737"/>
      <point x="379.425" y="456.121"/>
      <point x="345.936" y="419.272" type="curve"/>
      <point x="243.704" y="474.769"/>
      <point x="208.35" y="511.387"/>
      <point x="208.332" y="571.301" type="curve"/>
      <point x="208.35" y="627.867"/>
      <point x="240.833" y="672.89"/>
      <point x="297.644" y="671.249" type="curve" smooth="yes"/>
    </contour>
    <contour>
      <point x="217.273" y="32.2524"/>
      <point x="170.378" y="88.0212"/>
      <point x="170.771" y="181.976" type="curve" smooth="yes"/>
      <point x="171.02" y="240.734"/>
      <point x="189.915" y="284.186"/>
      <point x="219.426" y="314.783" type="curve"/>
      <point x="236.545" y="304.547"/>
      <point x="253.67" y="295.446"/>
      <point x="269.786" y="287.143" type="curve" smooth="yes"/>
      <point x="368.691" y="236.3"/>
      <point x="422.779" y="203.112"/>
      <point x="422.793" y="136.548" type="curve" smooth="yes"/>
      <point x="422.779" y="75.1123"/>
      <point x="372.029" y="24.3293"/>
      <point x="294.607" y="28.1427" type="curve" smooth="yes"/>
    </contour>
  </outline>
</glyph>
<glyph name="nine" format="1">
  <advance width="629"/>
  <unicode hex="0039"/>
  <outline>
    <contour>
      <point x="372.149" y="350.779" type="line"/>
      <point x="351.596" y="330.606"/>
      <point x="317.68" y="316.925"/>
      <point x="283.608" y="323.928" type="curve"/>
      <point x="231.998" y="330.318"/>
      <point x="200.941" y="377.356"/>
      <point x="200.215" y="484.677" type="curve" smooth="yes"/>
      <point x="199.477" y="579.213"/>
      <point x="224.805" y="663.177"/>
      <point x="307.079" y="663.16" type="curve" smooth="yes"/>
      <point x="392.211" y="663.177"/>
      <point x="413.929" y="572.713"/>
      <point x="414.111" y="408.174" type="curve" smooth="yes"/>
      <point x="413.929" y="195.928"/>
      <point x="376.281" y="43.6421"/>
      <point x="129.342" y="-31" type="curve"/>
      <point x="132.987" y="-38" type="line"/>
      <point x="435.041" y="-55"/>
      <point x="580" y="146.679"/>
      <point x="580" y="397.893" type="curve" smooth="yes"/>
      <point x="580" y="609.607"/>
      <point x="478.665" y="713.987"/>
      <point x="305.465" y="711.393" type="curve" smooth="yes"/>
      <point x="136.52" y="708.773"/>
      <point x="47.1016" y="609.255"/>
      <point x="46.2865" y="472.5" type="curve" smooth="yes"/>
      <point x="43.9778" y="229.755"/>
      <point x="305.75" y="216.25"/>
      <point x="378.763" y="342.386" type="curve"/>
    </contour>
  </outline>
</glyph>
<glyph name="colon" format="1">
  <advance width="218"/>
  <unicode hex="003A"/>
  <outline>
    <contour>
      <point x="151.192" y="372.439"/>
      <point x="183.571" y="404.818"/>
      <point x="183.571" y="444.76" type="curve" smooth="yes"/>
      <point x="183.571" y="484.703"/>
      <point x="151.192" y="517.082"/>
      <point x="111.25" y="517.082" type="curve" smooth="yes"/>
      <point x="71.3076" y="517.082"/>
      <point x="38.9285" y="484.703"/>
      <point x="38.9285" y="444.76" type="curve" smooth="yes"/>
      <point x="38.9285" y="404.818"/>
      <point x="71.3076" y="372.439"/>
      <point x="111.25" y="372.439" type="curve" smooth="yes"/>
    </contour>
    <contour>
      <point x="151.192" y="-10"/>
      <point x="183.571" y="22.3081"/>
      <point x="183.571" y="62.2504" type="curve" smooth="yes"/>
      <point x="183.571" y="102.193"/>
      <point x="151.192" y="134.572"/>
      <point x="111.25" y="134.572" type="curve" smooth="yes"/>
      <point x="71.3076" y="134.572"/>
      <point x="38.9285" y="102.193"/>
      <point x="38.9285" y="62.2504" type="curve" smooth="yes"/>
      <point x="38.9285" y="22.3081"/>
      <point x="71.3076" y="-10"/>
      <point x="111.25" y="-10" type="curve" smooth="yes"/>
    </contour>
  </outline>
</glyph>
<glyph name="semicolon" format="1">
  <advance width="393"/>
  <unicode hex="003B"/>
  <outline>
    <contour>
      <point x="151.192" y="401.159"/>
      <point x="183.571" y="433.538"/>
      <point x="183.571" y="473.48" type="curve" smooth="yes"/>
      <point x="183.571" y="513.423"/>
      <point x="151.192" y="545.802"/>
      <point x="111.25" y="545.802" type="curve" smooth="yes"/>
      <point x="71.3076" y="545.802"/>
      <point x="38.9285" y="513.423"/>
      <point x="38.9285" y="473.48" type="curve" smooth="yes"/>
      <point x="38.9285" y="433.538"/>
      <point x="71.3076" y="401.159"/>
      <point x="111.25" y="401.159" type="curve" smooth="yes"/>
    </contour>
    <contour>
      <point x="45.7371" y="-113" type="line"/>
      <point x="143.597" y="-126"/>
      <point x="224.175" y="-14"/>
      <point x="179.032" y="87.3457" type="curve" smooth="yes"/>
      <point x="157.422" y="136.114"/>
      <point x="95.1932" y="146.867"/>
      <point x="63.0256" y="115.823" type="curve" smooth="yes"/>
      <point x="35.087" y="89.1463"/>
      <point x="39.4377" y="40.4978"/>
      <point x="66.2941" y="9.7742" type="curve" smooth="yes"/>
      <point x="104.976" y="-34"/>
      <point x="87.5107" y="-85"/>
      <point x="42.4745" y="-102" type="curve"/>
    </contour>
  </outline>
</glyph>
<glyph name="less" format="1">
  <advance width="493"/>
  <unicode hex="003C"/>
  <outline>
    <contour>
      <point x="441.723" y="525.074" type="line"/>
      <point x="40" y="336.505" type="line"/>
      <point x="40" y="283.005" type="line"/>
      <point x="441.723" y="94.4333" type="line"/>
      <point x="441.723" y="156.398" type="line"/>
      <point x="119.717" y="309.973" type="line"/>
      <point x="441.723" y="463.11" type="line"/>
    </contour>
  </outline>
</glyph>
<glyph name="equal" format="1">
  <advance width="481"/>
  <unicode hex="003D"/>
  <outline>
    <contour>
      <point x="40" y="357.819" type="line"/>
      <point x="441.723" y="357.819" type="line"/>
      <point x="441.723" y="414.962" type="line"/>
      <point x="40" y="414.962" type="line"/>
    </contour>
    <contour>
      <point x="40" y="182.819" type="line"/>
      <point x="441.723" y="182.819" type="line"/>
      <point x="441.723" y="239.962" type="line"/>
      <point x="40" y="239.962" type="line"/>
    </contour>
  </outline>
</glyph>
<glyph name="greater" format="1">
  <advance width="481"/>
  <unicode hex="003E"/>
  <outline>
    <contour>
      <point x="39.9991" y="525.073" type="line"/>
      <point x="39.9991" y="463.11" type="line"/>
      <point x="362.005" y="309.972" type="line"/>
      <point x="39.9991" y="156.396" type="line"/>
      <point x="39.9991" y="94.4322" type="line"/>
      <point x="441.722" y="283.004" type="line"/>
      <point x="441.722" y="336.504" type="line"/>
    </contour>
  </outline>
</glyph>
<glyph name="question" format="1">
  <advance width="461"/>
  <unicode hex="003F"/>
  <outline>
    <contour>
      <point x="42.1428" y="518.087" type="line"/>
      <point x="52.1428" y="518.087" type="line"/>
      <point x="51.3571" y="620.652"/>
      <point x="93.0504" y="671.857"/>
      <point x="161.168" y="671.857" type="curve" smooth="yes"/>
      <point x="225.785" y="671.857"/>
      <point x="263.235" y="625.789"/>
      <point x="263.842" y="545.334" type="curve" smooth="yes"/>
      <point x="265.057" y="419.554"/>
      <point x="157.374" y="397.797"/>
      <point x="151.909" y="310.148" type="curve" smooth="yes"/>
      <point x="147.659" y="256.956"/>
      <point x="181.232" y="218.942"/>
      <point x="230.269" y="197.295" type="curve"/>
      <point x="238.101" y="202.885" type="line"/>
      <point x="210.104" y="250.862"/>
      <point x="236.674" y="278.652"/>
      <point x="265.102" y="309.602" type="curve" smooth="yes"/>
      <point x="336.53" y="390.937"/>
      <point x="423.843" y="436.776"/>
      <point x="423.843" y="539.87" type="curve" smooth="yes"/>
      <point x="423.843" y="649.489"/>
      <point x="343.018" y="714"/>
      <point x="200.026" y="714" type="curve" smooth="yes"/>
      <point x="108.029" y="714"/>
      <point x="37.9936" y="678.529"/>
      <point x="7.85709" y="624.954" type="curve"/>
    </contour>
    <contour>
      <point x="247.581" y="-10"/>
      <point x="279.782" y="22.1296"/>
      <point x="279.919" y="62.2504" type="curve"/>
      <point x="279.782" y="102.371"/>
      <point x="247.581" y="134.572"/>
      <point x="208.068" y="134.572" type="curve" smooth="yes"/>
      <point x="167.947" y="134.572"/>
      <point x="135.139" y="102.371"/>
      <point x="135.276" y="62.2504" type="curve" smooth="yes"/>
      <point x="135.139" y="22.1296"/>
      <point x="167.947" y="-10"/>
      <point x="208.068" y="-10" type="curve" smooth="yes"/>
    </contour>
  </outline>
</glyph>
<glyph name="at" format="1">
  <advance width="989"/>
  <unicode hex="0040"/>
  <outline>
    <contour>
      <point x="523.733" y="207.348" type="line"/>
      <point x="531.734" y="133.231" type="line"/>
      <point x="532.254" y="105.685"/>
      <point x="506.014" y="90.1199"/>
      <point x="490.112" y="90.1199" type="curve" smooth="yes"/>
      <point x="483.152" y="90.1199" type="line"/>
      <point x="481.848" y="82.7249" type="line"/>
      <point x="688.891" y="82.7249" type="line"/>
      <point x="690.206" y="90.1869" type="line"/>
      <point x="685.094" y="90.1869" type="line" smooth="yes"/>
      <point x="665.381" y="90.1869"/>
      <point x="650.354" y="103.965"/>
      <point x="645.154" y="137.208" type="curve" smooth="yes"/>
      <point x="577.84" y="540.904" type="line"/>
      <point x="571.122" y="540.909" type="line"/>
      <point x="562.746" y="521.388"/>
      <point x="516.393" y="464.049"/>
      <point x="516.393" y="464.049" type="curve"/>
      <point x="389.348" y="291.002" type="line" smooth="yes"/>
      <point x="338.232" y="224.652"/>
      <point x="273.264" y="109.823"/>
      <point x="199.495" y="112.04" type="curve" smooth="yes"/>
      <point x="117.408" y="114.312"/>
      <point x="121.216" y="255.187"/>
      <point x="183.729" y="390.124" type="curve" smooth="yes"/>
      <point x="279.712" y="597.603"/>
      <point x="458.472" y="677.87"/>
      <point x="621.677" y="648.1" type="curve" smooth="yes"/>
      <point x="767.36" y="620.918"/>
      <point x="845.978" y="495.288"/>
      <point x="830.939" y="316.304" type="curve" smooth="yes"/>
      <point x="805.659" y="8.77209"/>
      <point x="541.033" y="-190"/>
      <point x="198.529" y="-53" type="curve"/>
      <point x="202.528" y="-63" type="line"/>
      <point x="648.247" y="-247"/>
      <point x="933.034" y="13.3371"/>
      <point x="950.582" y="312.054" type="curve" smooth="yes"/>
      <point x="962.205" y="502.803"/>
      <point x="848.99" y="657.483"/>
      <point x="625.321" y="687.816" type="curve" smooth="yes"/>
      <point x="374.987" y="721.329"/>
      <point x="148.489" y="597.535"/>
      <point x="64.0871" y="394.975" type="curve" smooth="yes"/>
      <point x="-11" y="214.218"/>
      <point x="72.9182" y="68.3604"/>
      <point x="199.496" y="72.9333" type="curve" smooth="yes"/>
      <point x="264.473" y="75.0863"/>
      <point x="310.664" y="118.105"/>
      <point x="377.277" y="207.348" type="curve"/>
    </contour>
    <contour>
      <point x="504.412" y="386.334" type="line"/>
      <point x="520.481" y="237.475" type="line"/>
      <point x="399.328" y="237.475" type="line"/>
    </contour>
  </outline>
</glyph>
<glyph name="B" format="1">
  <advance width="674"/>
  <unicode hex="0042"/>
  <outline>
    <contour>
      <point x="41.9265" y="699.999" type="line"/>
      <point x="42.0882" y="690.059" type="line"/>
      <point x="54.7866" y="689.999" type="line" smooth="yes"/>
      <point x="89.4713" y="690.079"/>
      <point x="117.7" y="662.458"/>
      <point x="118.772" y="627.994" type="curve" smooth="yes"/>
      <point x="118.772" y="72.2048" type="line" smooth="yes"/>
      <point x="117.774" y="37.6757"/>
      <point x="89.5154" y="9.97856"/>
      <point x="54.7352" y="9.97856" type="curve" smooth="yes"/>
      <point x="42.0851" y="9.99946" type="line"/>
      <point x="41.9234" y="0" type="line"/>
      <point x="358.426" y="0" type="line" smooth="yes"/>
      <point x="527.679" y="0"/>
      <point x="640.215" y="66.5"/>
      <point x="639.911" y="195.182" type="curve"/>
      <point x="640.215" y="301.571"/>
      <point x="563.679" y="371.678"/>
      <point x="462.481" y="380.852" type="curve"/>
      <point x="525.215" y="388.499"/>
      <point x="585.286" y="437.071"/>
      <point x="585.459" y="528.731" type="curve"/>
      <point x="585.286" y="651.214"/>
      <point x="476.715" y="699.999"/>
      <point x="331.442" y="699.999" type="curve" smooth="yes"/>
    </contour>
    <contour>
      <point x="268.889" y="45.5769" type="line"/>
      <point x="268.889" y="656.919" type="line"/>
      <point x="297.465" y="656.919" type="line" smooth="yes"/>
      <point x="374.286" y="657.071"/>
      <point x="425.286" y="616.607"/>
      <point x="425.459" y="516.174" type="curve" smooth="yes"/>
      <point x="425.286" y="415.214"/>
      <point x="365.607" y="379"/>
      <point x="302.591" y="379.222" type="curve"/>
      <point x="302.819" y="369.81" type="line"/>
      <point x="391.893" y="370"/>
      <point x="468.072" y="324.357"/>
      <point x="467.767" y="207.427" type="curve" smooth="yes"/>
      <point x="468.072" y="94"/>
      <point x="404.215" y="45.1071"/>
      <point x="315.222" y="45.5769" type="curve" smooth="yes"/>
    </contour>
  </outline>
</glyph>
<glyph name="D" format="1">
  <advance width="828"/>
  <unicode hex="0044"/>
  <outline>
    <contour>
      <point x="42.1371" y="699.975" type="line"/>
      <point x="42.2991" y="690.06" type="line"/>
      <point x="54.9491" y="690.08" type="line" smooth="yes"/>
      <point x="88.0299" y="690.08"/>
      <point x="118.648" y="665.023"/>
      <point x="118.648" y="632.864" type="curve" smooth="yes"/>
      <point x="118.648" y="72.7271" type="line" smooth="yes"/>
      <point x="117.921" y="37.9557"/>
      <point x="89.5531" y="9.97935"/>
      <point x="54.5971" y="9.97935" type="curve" smooth="yes"/>
      <point x="41.9471" y="10" type="line"/>
      <point x="41.7861" y="0" type="line"/>
      <point x="404.608" y="0" type="line" smooth="yes"/>
      <point x="640.845" y="0"/>
      <point x="788.036" y="133.866"/>
      <point x="788.036" y="349.709" type="curve" smooth="yes"/>
      <point x="788.036" y="565.951"/>
      <point x="640.845" y="699.975"/>
      <point x="404.607" y="699.975" type="curve" smooth="yes"/>
    </contour>
    <contour>
      <point x="268.769" y="657.792" type="line"/>
      <point x="392.464" y="657.801" type="line" smooth="yes"/>
      <point x="535.408" y="657.801"/>
      <point x="624.999" y="539.772"/>
      <point x="624.999" y="349.709" type="curve" smooth="yes"/>
      <point x="624.999" y="160.242"/>
      <point x="535.801" y="42.5833"/>
      <point x="392.465" y="42.5833" type="curve" smooth="yes"/>
      <point x="268.769" y="42.592" type="line"/>
    </contour>
    <contour>
      <point x="339.203" y="350" type="move" name="center"/>
    </contour>
    <contour>
      <point x="412.597" y="764" type="move" name="top"/>
    </contour>
  </outline>
</glyph>
<glyph name="E" format="1">
  <advance width="631"/>
  <unicode hex="0045"/>
  <outline>
    <contour>
      <point x="605.702" y="204.044" type="line"/>
      <point x="595.702" y="204.044" type="line"/>
      <point x="564.698" y="104.807"/>
      <point x="499.854" y="42.736"/>
      <point x="399.963" y="42.736" type="curve" smooth="yes"/>
      <point x="268.687" y="42.736" type="line"/>
      <point x="268.687" y="324.147" type="line"/>
      <point x="402.525" y="324.147" type="line" smooth="yes"/>
      <point x="450.94" y="322.634"/>
      <point x="486.188" y="286.77"/>
      <point x="486.061" y="238.479" type="curve" smooth="yes"/>
      <point x="486.045" y="229.816" type="line"/>
      <point x="495.818" y="229.692" type="line"/>
      <point x="495.818" y="460.805" type="line"/>
      <point x="486.045" y="460.68" type="line"/>
      <point x="486.062" y="452.017" type="line" smooth="yes"/>
      <point x="486.198" y="403.311"/>
      <point x="450.369" y="367.247"/>
      <point x="401.261" y="366.321" type="curve" smooth="yes"/>
      <point x="268.687" y="366.29" type="line"/>
      <point x="268.687" y="657.267" type="line"/>
      <point x="436.945" y="657.267" type="line"/>
      <point x="496.913" y="654.756"/>
      <point x="534.738" y="615.432"/>
      <point x="534.622" y="555.25" type="curve" smooth="yes"/>
      <point x="534.603" y="543.497" type="line"/>
      <point x="544.689" y="543.347" type="line"/>
      <point x="544.669" y="718.189" type="line"/>
      <point x="526.098" y="710.36"/>
      <point x="468.424" y="700.39"/>
      <point x="425.31" y="700" type="curve" smooth="yes"/>
      <point x="41.9275" y="700.062" type="line"/>
      <point x="42.0895" y="690.062" type="line"/>
      <point x="54.7395" y="690.082" type="line" smooth="yes"/>
      <point x="88.665" y="690.082"/>
      <point x="116.386" y="663.73"/>
      <point x="118.655" y="630.39" type="curve"/>
      <point x="118.655" y="72.8662" type="line" smooth="yes"/>
      <point x="117.995" y="38.0312"/>
      <point x="89.5985" y="9.9812"/>
      <point x="54.5965" y="9.9812" type="curve" smooth="yes"/>
      <point x="41.9465" y="10.0022" type="line"/>
      <point x="41.7855" y="0.00219971" type="line"/>
      <point x="559.557" y="0" type="line"/>
    </contour>
    <contour>
      <point x="511.448" y="3.99473" type="move" name="ogonek"/>
    </contour>
    <contour>
      <point x="331.052" y="0" type="move" name="bottom"/>
    </contour>
    <contour>
      <point x="323.04" y="764" type="move" name="top"/>
    </contour>
  </outline>
</glyph>
<glyph name="F" format="1">
  <advance width="595"/>
  <unicode hex="0046"/>
  <outline>
    <contour>
      <point x="544.69" y="548.588" type="line"/>
      <point x="544.669" y="718.188" type="line"/>
      <point x="526.096" y="710.361"/>
      <point x="468.453" y="700.393"/>
      <point x="425.343" y="700" type="curve" smooth="yes"/>
      <point x="41.9294" y="700.065" type="line"/>
      <point x="42.0914" y="690.065" type="line"/>
      <point x="54.7414" y="690.085" type="line" smooth="yes"/>
      <point x="88.6573" y="690.085"/>
      <point x="118.655" y="663.747"/>
      <point x="118.655" y="630.421" type="curve" smooth="yes"/>
      <point x="118.655" y="72.8648" type="line" smooth="yes"/>
      <point x="117.997" y="38.0298"/>
      <point x="89.5998" y="9.97978"/>
      <point x="54.5978" y="9.97978" type="curve" smooth="yes"/>
      <point x="41.9478" y="10" type="line"/>
      <point x="41.7868" y="0" type="line"/>
      <point x="345.582" y="0" type="line"/>
      <point x="345.421" y="10" type="line"/>
      <point x="332.771" y="9.97978" type="line" smooth="yes"/>
      <point x="297.769" y="9.97978"/>
      <point x="269.372" y="38.0298"/>
      <point x="268.717" y="72.8648" type="curve" smooth="yes"/>
      <point x="268.687" y="324.146" type="line"/>
      <point x="402.526" y="324.146" type="line" smooth="yes"/>
      <point x="450.94" y="322.633"/>
      <point x="486.189" y="286.769"/>
      <point x="486.061" y="238.477" type="curve" smooth="yes"/>
      <point x="486.045" y="229.815" type="line"/>
      <point x="495.818" y="229.691" type="line"/>
      <point x="495.818" y="460.804" type="line"/>
      <point x="486.045" y="460.679" type="line"/>
      <point x="486.062" y="452.016" type="line" smooth="yes"/>
      <point x="486.199" y="403.309"/>
      <point x="450.37" y="367.245"/>
      <point x="401.261" y="366.32" type="curve" smooth="yes"/>
      <point x="268.687" y="366.289" type="line"/>
      <point x="268.687" y="657.266" type="line"/>
      <point x="439.664" y="657.266" type="line" smooth="yes"/>
      <point x="498.163" y="655.321"/>
      <point x="534.763" y="617.659"/>
      <point x="534.647" y="559.265" type="curve" smooth="yes"/>
      <point x="534.629" y="548.728" type="line"/>
    </contour>
  </outline>
</glyph>
<glyph name="G" format="1">
  <advance width="836"/>
  <unicode hex="0047"/>
  <outline>
    <contour>
      <point x="819.278" y="325.388" type="line"/>
      <point x="819.278" y="335.388" type="line"/>
      <point x="538.41" y="335.388" type="line"/>
      <point x="538.41" y="325.388" type="line"/>
      <point x="554.177" y="325.409" type="line" smooth="yes"/>
      <point x="586.453" y="325.454"/>
      <point x="605.805" y="309.047"/>
      <point x="605.61" y="279.842" type="curve" smooth="yes"/>
      <point x="605.61" y="126.941" type="line"/>
      <point x="582.036" y="63.7103"/>
      <point x="509.773" y="28.1136"/>
      <point x="436.092" y="28.0687" type="curve" smooth="yes"/>
      <point x="288.824" y="28.3269"/>
      <point x="207.857" y="151.997"/>
      <point x="207.857" y="345.143" type="curve" smooth="yes"/>
      <point x="207.857" y="548.354"/>
      <point x="295.503" y="671.887"/>
      <point x="459.061" y="671.932" type="curve" smooth="yes"/>
      <point x="565.755" y="671.887"/>
      <point x="660.606" y="624.134"/>
      <point x="698.27" y="488.265" type="curve"/>
      <point x="706.593" y="488.233" type="line"/>
      <point x="704.631" y="659.826" type="line"/>
      <point x="645.881" y="689.751"/>
      <point x="538.83" y="714"/>
      <point x="428.841" y="714" type="curve" smooth="yes"/>
      <point x="192.943" y="714"/>
      <point x="44.8204" y="574.229"/>
      <point x="44.8204" y="351.215" type="curve" smooth="yes"/>
      <point x="44.8204" y="126.071"/>
      <point x="195.979" y="-14"/>
      <point x="423.017" y="-14" type="curve" smooth="yes"/>
      <point x="583.193" y="-14"/>
      <point x="707.329" y="54.0851"/>
      <point x="754.388" y="114.81" type="curve"/>
      <point x="754.388" y="280.071" type="line"/>
      <point x="753.686" y="309.102"/>
      <point x="771.874" y="325.409"/>
      <point x="804.208" y="325.409" type="curve" smooth="yes"/>
    </contour>
    <contour>
      <point x="423.415" y="764" type="move" name="top"/>
    </contour>
    <contour>
      <point x="434.554" y="-64" type="move" name="bottom"/>
    </contour>
  </outline>
</glyph>
<glyph name="H" format="1">
  <advance width="861"/>
  <unicode hex="0048"/>
  <outline>
    <contour>
      <point x="819.869" y="0" type="line"/>
      <point x="819.708" y="10" type="line"/>
      <point x="807.058" y="9.979" type="line" smooth="yes"/>
      <point x="772.056" y="9.979"/>
      <point x="743.659" y="38.029"/>
      <point x="743.004" y="72.864" type="curve" smooth="yes"/>
      <point x="742.975" y="627.196" type="line"/>
      <point x="743.643" y="662.03"/>
      <point x="772.04" y="690.08"/>
      <point x="807.041" y="690.08" type="curve" smooth="yes"/>
      <point x="819.691" y="690.06" type="line"/>
      <point x="819.853" y="700.048" type="line"/>
      <point x="516.098" y="700.048" type="line"/>
      <point x="516.26" y="690.06" type="line"/>
      <point x="528.91" y="690.08" type="line" smooth="yes"/>
      <point x="563.488" y="690.08"/>
      <point x="591.621" y="661.444"/>
      <point x="592.928" y="627.196" type="curve"/>
      <point x="592.928" y="369.523" type="line"/>
      <point x="268.706" y="369.523" type="line"/>
      <point x="268.706" y="627.196" type="line" smooth="yes"/>
      <point x="269.686" y="661.741"/>
      <point x="297.953" y="690.08"/>
      <point x="332.745" y="690.08" type="curve" smooth="yes"/>
      <point x="345.395" y="690.06" type="line"/>
      <point x="345.557" y="700.048" type="line"/>
      <point x="41.8018" y="700.048" type="line"/>
      <point x="41.9638" y="690.06" type="line"/>
      <point x="54.6138" y="690.08" type="line" smooth="yes"/>
      <point x="89.4776" y="690.08"/>
      <point x="117.789" y="661.84"/>
      <point x="118.659" y="627.196" type="curve" smooth="yes"/>
      <point x="118.659" y="72.8639" type="line" smooth="yes"/>
      <point x="117.996" y="38.0289"/>
      <point x="89.5988" y="9.97888"/>
      <point x="54.5968" y="9.97888" type="curve" smooth="yes"/>
      <point x="41.9468" y="9.99988" type="line"/>
      <point x="41.7858" y="0" type="line"/>
      <point x="345.573" y="0" type="line"/>
      <point x="345.412" y="9.99988" type="line"/>
      <point x="332.762" y="9.97888" type="line" smooth="yes"/>
      <point x="297.76" y="9.97888"/>
      <point x="269.363" y="38.0289"/>
      <point x="268.708" y="72.8639" type="curve"/>
      <point x="268.708" y="327.38" type="line"/>
      <point x="592.928" y="327.38" type="line"/>
      <point x="592.928" y="72.0991" type="line" smooth="yes"/>
      <point x="591.875" y="37.6193"/>
      <point x="563.638" y="9.97887"/>
      <point x="528.893" y="9.97887" type="curve" smooth="yes"/>
      <point x="516.243" y="9.99987" type="line"/>
      <point x="516.082" y="0" type="line"/>
    </contour>
    <contour>
      <point x="408.549" y="350" type="move" name="center"/>
    </contour>
    <contour>
      <point x="408.549" y="700" type="move" name="top"/>
    </contour>
  </outline>
</glyph>
<glyph name="I" format="1">
  <advance width="386"/>
  <unicode hex="0049"/>
  <outline>
    <contour>
      <point x="345.412" y="10" type="line"/>
      <point x="332.762" y="9.979" type="line" smooth="yes"/>
      <point x="297.76" y="9.979"/>
      <point x="269.363" y="38.029"/>
      <point x="268.708" y="72.864" type="curve"/>
      <point x="268.708" y="627.818" type="line" smooth="yes"/>
      <point x="269.686" y="662.363"/>
      <point x="297.953" y="690.08"/>
      <point x="332.745" y="690.08" type="curve" smooth="yes"/>
      <point x="345.395" y="690.06" type="line"/>
      <point x="345.557" y="700.06" type="line"/>
      <point x="41.802" y="700.06" type="line"/>
      <point x="41.964" y="690.06" type="line"/>
      <point x="54.614" y="690.08" type="line" smooth="yes"/>
      <point x="89.4777" y="690.08"/>
      <point x="117.789" y="662.25"/>
      <point x="118.659" y="627.606" type="curve" smooth="yes"/>
      <point x="118.659" y="72.8641" type="line" smooth="yes"/>
      <point x="117.996" y="38.0291"/>
      <point x="89.5989" y="9.97908"/>
      <point x="54.5969" y="9.97908" type="curve" smooth="yes"/>
      <point x="41.9469" y="10" type="line"/>
      <point x="41.7859" y="0" type="line"/>
      <point x="345.573" y="0" type="line"/>
    </contour>
    <contour>
      <point x="181.762" y="3" type="move" name="ogonek"/>
    </contour>
    <contour>
      <point x="192.985" y="764" type="move" name="top"/>
    </contour>
  </outline>
</glyph>
<glyph name="J" format="1">
  <advance width="384"/>
  <unicode hex="004A"/>
  <outline>
    <contour>
      <point x="44.906" y="700.06" type="line"/>
      <point x="45.068" y="690.06" type="line"/>
      <point x="57.718" y="690.08" type="line" smooth="yes"/>
      <point x="92.719" y="690.08"/>
      <point x="121.116" y="662.03"/>
      <point x="121.772" y="627.196" type="curve" smooth="yes"/>
      <point x="121.782" y="33.28" type="line" smooth="yes"/>
      <point x="121.782" y="-59"/>
      <point x="89.724" y="-155"/>
      <point x="4.821" y="-191" type="curve"/>
      <point x="4.821" y="-200" type="line"/>
      <point x="143.592" y="-213"/>
      <point x="271.984" y="-117"/>
      <point x="271.984" y="30.4556" type="curve" smooth="yes"/>
      <point x="271.984" y="627.424" type="line" smooth="yes"/>
      <point x="272.759" y="662.152"/>
      <point x="301.108" y="690.08"/>
      <point x="336.033" y="690.08" type="curve" smooth="yes"/>
      <point x="348.683" y="690.06" type="line"/>
      <point x="348.845" y="700.06" type="line"/>
    </contour>
    <contour>
      <point x="234.143" y="700" type="move" name="top"/>
    </contour>
  </outline>
</glyph>
<glyph name="K" format="1">
  <advance width="757"/>
  <unicode hex="004B"/>
  <outline>
    <contour>
      <point x="268.707" y="627.817" type="line"/>
      <point x="269.684" y="662.363"/>
      <point x="297.951" y="690.08"/>
      <point x="332.744" y="690.08" type="curve" smooth="yes"/>
      <point x="345.394" y="690.06" type="line"/>
      <point x="345.556" y="700.06" type="line"/>
      <point x="41.801" y="700.06" type="line"/>
      <point x="41.963" y="690.06" type="line"/>
      <point x="54.7174" y="690.032" type="line" smooth="yes"/>
      <point x="89.4768" y="690.08"/>
      <point x="117.788" y="662.25"/>
      <point x="118.658" y="627.607" type="curve" smooth="yes"/>
      <point x="118.658" y="72.8643" type="line" smooth="yes"/>
      <point x="117.995" y="38.0293"/>
      <point x="89.598" y="9.97931"/>
      <point x="54.596" y="9.97931" type="curve" smooth="yes"/>
      <point x="41.9461" y="10" type="line"/>
      <point x="41.7851" y="0" type="line"/>
      <point x="345.572" y="0" type="line"/>
      <point x="345.411" y="10" type="line"/>
      <point x="332.776" y="9.99211" type="line" smooth="yes"/>
      <point x="297.759" y="9.97931"/>
      <point x="269.362" y="38.0293"/>
      <point x="268.707" y="72.8643" type="curve" smooth="yes"/>
    </contour>
    <contour>
      <point x="426.359" y="411.753" type="line"/>
      <point x="620.834" y="642.675" type="line" smooth="yes"/>
      <point x="646.632" y="671.908"/>
      <point x="686.238" y="690.883"/>
      <point x="729.867" y="690.98" type="curve" smooth="yes"/>
      <point x="734.247" y="690.98" type="line"/>
      <point x="734.248" y="700" type="line"/>
      <point x="504.884" y="700" type="line"/>
      <point x="504.884" y="691.157" type="line"/>
      <point x="514.548" y="691.164" type="line" smooth="yes"/>
      <point x="542.175" y="691.164"/>
      <point x="555.177" y="665.949"/>
      <point x="538.342" y="643.547" type="curve" smooth="yes"/>
      <point x="300.863" y="329.968" type="line"/>
      <point x="300.817" y="328.642"/>
      <point x="460.805" y="108.79"/>
      <point x="479.767" y="83.02" type="curve" smooth="yes"/>
      <point x="545.168" y="-2"/>
      <point x="666.335" y="0.186312"/>
      <point x="694.715" y="0.131012" type="curve" smooth="yes"/>
      <point x="777.011" y="0.131012" type="line"/>
      <point x="777.011" y="10.0748" type="line"/>
      <point x="736.364" y="11.1097"/>
      <point x="705.476" y="31.6358"/>
      <point x="675.069" y="72.024" type="curve" smooth="yes"/>
    </contour>
    <contour>
      <point x="427.406" y="719.643" type="move" name="top"/>
    </contour>
    <contour>
      <point x="437.12" y="-25.1429" type="move" name="bottom"/>
    </contour>
  </outline>
</glyph>
<glyph name="L" format="1">
  <advance width="616"/>
  <unicode hex="004C"/>
  <outline>
    <contour>
      <point x="605.708" y="204.043" type="line"/>
      <point x="595.708" y="204.043" type="line"/>
      <point x="564.703" y="104.806"/>
      <point x="499.86" y="42.7348"/>
      <point x="399.969" y="42.7348" type="curve" smooth="yes"/>
      <point x="268.692" y="42.7348" type="line"/>
      <point x="268.692" y="627.149" type="line" smooth="yes"/>
      <point x="269.37" y="661.983"/>
      <point x="297.767" y="690.033"/>
      <point x="332.768" y="690.033" type="curve" smooth="yes"/>
      <point x="345.418" y="690.013" type="line"/>
      <point x="345.58" y="700.013" type="line"/>
      <point x="41.7858" y="700.013" type="line"/>
      <point x="41.9482" y="690.013" type="line"/>
      <point x="54.5982" y="690.033" type="line" smooth="yes"/>
      <point x="89.5992" y="690.033"/>
      <point x="117.996" y="661.983"/>
      <point x="118.652" y="627.149" type="curve" smooth="yes"/>
      <point x="118.652" y="72.864" type="line" smooth="yes"/>
      <point x="118.002" y="38.029"/>
      <point x="89.6047" y="9.97895"/>
      <point x="54.6028" y="9.97895" type="curve" smooth="yes"/>
      <point x="41.9528" y="9.99995" type="line"/>
      <point x="41.7918" y="0" type="line"/>
      <point x="559.563" y="0" type="line"/>
    </contour>
    <contour>
      <point x="194.114" y="764" type="move" name="top"/>
    </contour>
    <contour>
      <point x="335.542" y="-58.5" type="move" name="bottom"/>
    </contour>
  </outline>
</glyph>
<glyph name="M" format="1">
  <advance width="953"/>
  <unicode hex="004D"/>
  <outline>
    <contour>
      <point x="789.024" y="713.698" type="line"/>
      <point x="779.882" y="713.698" type="line"/>
      <point x="482.414" y="203.833" type="line"/>
      <point x="172.133" y="714" type="line"/>
      <point x="162.856" y="714" type="line"/>
      <point x="80.0055" y="72.6453" type="line" smooth="yes"/>
      <point x="74.797" y="33.1134"/>
      <point x="42.793" y="9.99127"/>
      <point x="6.84391" y="9.99127" type="curve" smooth="yes"/>
      <point x="-9" y="10" type="line"/>
      <point x="-9" y="0" type="line"/>
      <point x="200.286" y="0" type="line"/>
      <point x="200.286" y="9.44517" type="line"/>
      <point x="184.705" y="9.44517" type="line" smooth="yes"/>
      <point x="163.161" y="9.49057"/>
      <point x="143.359" y="30.6102"/>
      <point x="145.716" y="52.1455" type="curve" smooth="yes"/>
      <point x="185.103" y="411.998" type="line"/>
      <point x="442.418" y="-20" type="line"/>
      <point x="451.849" y="-20" type="line"/>
      <point x="453.205" y="28.6011"/>
      <point x="490.416" y="90.5382"/>
      <point x="490.416" y="90.5382" type="curve"/>
      <point x="677.73" y="414.486" type="line"/>
      <point x="717.289" y="52.1463" type="line" smooth="yes"/>
      <point x="719.652" y="30.5028"/>
      <point x="699.844" y="9.49127"/>
      <point x="678.301" y="9.44627" type="curve" smooth="yes"/>
      <point x="662.719" y="9.44627" type="line"/>
      <point x="662.719" y="0.00126773" type="line"/>
      <point x="963.177" y="0.00126773" type="line"/>
      <point x="963.177" y="10.0013" type="line"/>
      <point x="947.26" y="9.99227" type="line" smooth="yes"/>
      <point x="911.51" y="9.99227"/>
      <point x="880.72" y="33.1143"/>
      <point x="874.377" y="72.6463" type="curve" smooth="yes"/>
    </contour>
  </outline>
</glyph>
<glyph name="N" format="1">
  <advance width="865"/>
  <unicode hex="004E"/>
  <outline>
    <contour>
      <point x="532.555" y="700.019" type="line"/>
      <point x="532.709" y="690.019" type="line"/>
      <point x="551.163" y="690.038" type="line" smooth="yes"/>
      <point x="584.901" y="690.042"/>
      <point x="612.266" y="663.005"/>
      <point x="612.897" y="629.431" type="curve" smooth="yes"/>
      <point x="612.924" y="234.051" type="line"/>
      <point x="108.391" y="715" type="line"/>
      <point x="98.5296" y="714.991" type="line" smooth="yes"/>
      <point x="98.5296" y="714.991"/>
      <point x="110.167" y="664.406"/>
      <point x="110.167" y="590.069" type="curve" smooth="yes"/>
      <point x="110.167" y="70.5727" type="line" smooth="yes"/>
      <point x="109.527" y="37.0079"/>
      <point x="82.1629" y="9.98119"/>
      <point x="48.4345" y="9.98119" type="curve" smooth="yes"/>
      <point x="29.9765" y="10" type="line"/>
      <point x="29.8216" y="0" type="line"/>
      <point x="332.952" y="0" type="line"/>
      <point x="332.798" y="10" type="line"/>
      <point x="314.337" y="9.98119" type="line" smooth="yes"/>
      <point x="280.703" y="9.98119"/>
      <point x="253.397" y="36.8599"/>
      <point x="252.608" y="70.2968" type="curve"/>
      <point x="252.608" y="467.137" type="line"/>
      <point x="757.914" y="-14" type="line"/>
      <point x="766.997" y="-14" type="line"/>
      <point x="766.997" y="-14"/>
      <point x="755.447" y="38.2308"/>
      <point x="755.447" y="113.582" type="curve" smooth="yes"/>
      <point x="755.447" y="630.272" type="line" smooth="yes"/>
      <point x="756.515" y="663.457"/>
      <point x="783.706" y="690.043"/>
      <point x="817.16" y="690.039" type="curve" smooth="yes"/>
      <point x="835.616" y="690.02" type="line"/>
      <point x="835.77" y="700.019" type="line"/>
    </contour>
    <contour>
      <point x="417.341" y="764" type="move" name="top"/>
    </contour>
    <contour>
      <point x="475.611" y="-64" type="move" name="bottom"/>
    </contour>
  </outline>
</glyph>
<glyph name="O" format="1">
  <advance width="878"/>
  <unicode hex="004F"/>
  <outline>
    <contour>
      <point x="202.003" y="714"/>
      <point x="48.75" y="574.711"/>
      <point x="48.75" y="349.992" type="curve" smooth="yes"/>
      <point x="48.75" y="125.283"/>
      <point x="202.003" y="-14"/>
      <point x="442.182" y="-14" type="curve" smooth="yes"/>
      <point x="682.361" y="-14"/>
      <point x="835.615" y="125.283"/>
      <point x="835.615" y="349.992" type="curve" smooth="yes"/>
      <point x="835.615" y="574.711"/>
      <point x="682.361" y="714"/>
      <point x="442.182" y="714" type="curve" smooth="yes"/>
    </contour>
    <contour>
      <point x="301.201" y="28.068"/>
      <point x="212.845" y="151.389"/>
      <point x="212.845" y="349.992" type="curve" smooth="yes"/>
      <point x="212.845" y="548.605"/>
      <point x="301.201" y="671.932"/>
      <point x="442.182" y="671.932" type="curve" smooth="yes"/>
      <point x="583.163" y="671.932"/>
      <point x="671.519" y="548.605"/>
      <point x="671.519" y="349.992" type="curve" smooth="yes"/>
      <point x="671.519" y="151.389"/>
      <point x="583.163" y="28.068"/>
      <point x="442.182" y="28.068" type="curve" smooth="yes"/>
    </contour>
    <contour>
      <point x="442.012" y="772.5" type="move" name="top"/>
    </contour>
  </outline>
</glyph>
<glyph name="P" format="1">
  <advance width="655"/>
  <unicode hex="0050"/>
  <outline>
    <contour>
      <point x="45.172" y="700.06" type="line"/>
      <point x="45.334" y="690.06" type="line"/>
      <point x="57.885" y="690.032" type="line" smooth="yes"/>
      <point x="91.2017" y="690.078"/>
      <point x="121.726" y="666.184"/>
      <point x="121.726" y="632.45" type="curve" smooth="yes"/>
      <point x="121.726" y="72.864" type="line" smooth="yes"/>
      <point x="121.031" y="38.029"/>
      <point x="92.634" y="9.979"/>
      <point x="57.632" y="9.979" type="curve" smooth="yes"/>
      <point x="44.982" y="10" type="line"/>
      <point x="44.821" y="0" type="line"/>
      <point x="348.718" y="0" type="line"/>
      <point x="348.557" y="10" type="line"/>
      <point x="335.855" y="9.9917" type="line" smooth="yes"/>
      <point x="300.905" y="9.979"/>
      <point x="272.508" y="38.029"/>
      <point x="271.853" y="72.864" type="curve"/>
      <point x="271.853" y="657.857" type="line"/>
      <point x="338.559" y="657.857" type="line" smooth="yes"/>
      <point x="418.579" y="657.857"/>
      <point x="464.467" y="602.23"/>
      <point x="467.271" y="516.969" type="curve" smooth="yes"/>
      <point x="468.115" y="497.962"/>
      <point x="465.897" y="474.519"/>
      <point x="461.118" y="456.845" type="curve" smooth="yes"/>
      <point x="426.389" y="330.756"/>
      <point x="305.295" y="343.483"/>
      <point x="305.922" y="342.794" type="curve"/>
      <point x="306.042" y="333.344" type="line"/>
      <point x="448.698" y="239.718"/>
      <point x="633.526" y="335.961"/>
      <point x="627.31" y="508.409" type="curve" smooth="yes"/>
      <point x="623.875" y="617.645"/>
      <point x="549.697" y="700"/>
      <point x="378.609" y="700" type="curve" smooth="yes"/>
    </contour>
  </outline>
</glyph>
<glyph name="Q" format="1">
  <advance width="882"/>
  <unicode hex="0051"/>
  <outline>
    <contour>
      <point x="1351.25" y="-72" type="line"/>
      <point x="1240.27" y="-162"/>
      <point x="1068.05" y="-167"/>
      <point x="887.619" y="-98" type="curve" smooth="yes"/>
      <point x="754.439" y="-47"/>
      <point x="672.868" y="-15"/>
      <point x="579.569" y="3.8226" type="curve"/>
      <point x="737.94" y="48.0677"/>
      <point x="834.067" y="172.33"/>
      <point x="834.067" y="349.993" type="curve" smooth="yes"/>
      <point x="834.067" y="574.712"/>
      <point x="681.075" y="714"/>
      <point x="441.289" y="714" type="curve" smooth="yes"/>
      <point x="201.11" y="714"/>
      <point x="47.8568" y="574.712"/>
      <point x="47.8568" y="349.993" type="curve" smooth="yes"/>
      <point x="47.8568" y="127.152"/>
      <point x="198.572" y="-12"/>
      <point x="435.316" y="-14" type="curve"/>
      <point x="561.627" y="-26"/>
      <point x="678.073" y="-137"/>
      <point x="825.652" y="-212" type="curve" smooth="yes"/>
      <point x="1123.67" y="-362"/>
      <point x="1347.85" y="-232"/>
      <point x="1356.89" y="-76" type="curve"/>
    </contour>
    <contour>
      <point x="211.296" y="548.606"/>
      <point x="299.914" y="671.933"/>
      <point x="441.287" y="671.933" type="curve" smooth="yes"/>
      <point x="582.268" y="671.933"/>
      <point x="670.624" y="548.606"/>
      <point x="670.624" y="349.993" type="curve" smooth="yes"/>
      <point x="670.624" y="151.39"/>
      <point x="582.268" y="28.0685"/>
      <point x="441.288" y="28.0685" type="curve" smooth="yes"/>
      <point x="300.307" y="28.0685"/>
      <point x="211.296" y="151.39"/>
      <point x="211.296" y="349.993" type="curve"/>
    </contour>
  </outline>
</glyph>
<glyph name="S" format="1">
  <advance width="578"/>
  <unicode hex="0053"/>
  <outline>
    <contour>
      <point x="251.09" y="482.71" type="line" smooth="yes"/>
      <point x="209.191" y="509.928"/>
      <point x="178.982" y="536.295"/>
      <point x="181.411" y="575.678" type="curve" smooth="yes"/>
      <point x="183.839" y="629.367"/>
      <point x="233.57" y="671.856"/>
      <point x="312.303" y="671.856" type="curve" smooth="yes"/>
      <point x="396.891" y="671.856"/>
      <point x="453.135" y="626.178"/>
      <point x="453.289" y="556.748" type="curve"/>
      <point x="462.918" y="556.748" type="line"/>
      <point x="476.014" y="703.741" type="line"/>
      <point x="413.207" y="703.741" type="line"/>
      <point x="367.542" y="709.529"/>
      <point x="309.203" y="714"/>
      <point x="277.026" y="714" type="curve" smooth="yes"/>
      <point x="150.883" y="714"/>
      <point x="75.016" y="642.47"/>
      <point x="66.516" y="538.928" type="curve" smooth="yes"/>
      <point x="59.2303" y="466.041"/>
      <point x="93.4111" y="405.136"/>
      <point x="162.226" y="359.475" type="curve" smooth="yes"/>
      <point x="336.475" y="243.854" type="line" smooth="yes"/>
      <point x="390.225" y="208.189"/>
      <point x="416.481" y="181.139"/>
      <point x="416.418" y="140.574" type="curve" smooth="yes"/>
      <point x="416.481" y="77.925"/>
      <point x="365.194" y="29.7356"/>
      <point x="278.231" y="28.1424" type="curve" smooth="yes"/>
      <point x="158.266" y="26.1999"/>
      <point x="81.6338" y="112.214"/>
      <point x="89.6523" y="216.475" type="curve"/>
      <point x="80.8604" y="216.475" type="line"/>
      <point x="54.6986" y="172.852"/>
      <point x="40.5974" y="88.5094"/>
      <point x="57.1573" y="46.7096" type="curve"/>
      <point x="93.6338" y="9.10649"/>
      <point x="177.67" y="-14"/>
      <point x="267.348" y="-14" type="curve" smooth="yes"/>
      <point x="427.277" y="-14"/>
      <point x="525.482" y="62.7609"/>
      <point x="531.553" y="193.035" type="curve" smooth="yes"/>
      <point x="535.803" y="267.796"/>
      <point x="501.218" y="320.224"/>
      <point x="441.764" y="358.846" type="curve" smooth="yes"/>
    </contour>
    <contour>
      <point x="288.368" y="764" type="move" name="top"/>
    </contour>
    <contour>
      <point x="283.237" y="-12.7767" type="move" name="bottom"/>
    </contour>
  </outline>
</glyph>
<glyph name="T" format="1">
  <advance width="666"/>
  <unicode hex="0054"/>
  <outline>
    <contour>
      <point x="653.248" y="719.179" type="line"/>
      <point x="634.792" y="711.401"/>
      <point x="577.752" y="701.51"/>
      <point x="534.734" y="701" type="curve" smooth="yes"/>
      <point x="132.445" y="701" type="line" smooth="yes"/>
      <point x="89.4268" y="701.509"/>
      <point x="32.3859" y="711.401"/>
      <point x="13.9297" y="719.179" type="curve"/>
      <point x="13.9297" y="544.877" type="line"/>
      <point x="24.0157" y="545.027" type="line"/>
      <point x="23.9967" y="556.78" type="line" smooth="yes"/>
      <point x="23.8795" y="617.754"/>
      <point x="62.7085" y="657.318"/>
      <point x="124.054" y="658.877" type="curve" smooth="yes"/>
      <point x="258.517" y="658.877" type="line"/>
      <point x="258.517" y="71.2288" type="line"/>
      <point x="257.02" y="37.1556"/>
      <point x="228.967" y="9.97941"/>
      <point x="194.514" y="9.97941" type="curve" smooth="yes"/>
      <point x="181.864" y="10" type="line"/>
      <point x="181.703" y="0" type="line"/>
      <point x="485.621" y="0" type="line"/>
      <point x="485.46" y="10" type="line"/>
      <point x="472.81" y="9.97941" type="line" smooth="yes"/>
      <point x="438.073" y="9.97941"/>
      <point x="409.841" y="37.6067"/>
      <point x="408.776" y="72.0752" type="curve"/>
      <point x="408.776" y="658.877" type="line"/>
      <point x="543.109" y="658.877" type="line" smooth="yes"/>
      <point x="604.463" y="657.324"/>
      <point x="643.298" y="617.759"/>
      <point x="643.181" y="556.78" type="curve" smooth="yes"/>
      <point x="643.162" y="545.027" type="line"/>
      <point x="653.248" y="544.877" type="line"/>
    </contour>
    <contour>
      <point x="327.843" y="350" type="move" name="center"/>
    </contour>
    <contour>
      <point x="333.915" y="0" type="move" name="bottom"/>
    </contour>
    <contour>
      <point x="333.915" y="764" type="move" name="top"/>
    </contour>
  </outline>
</glyph>
<glyph name="U" format="1">
  <advance width="821"/>
  <unicode hex="0055"/>
  <outline>
    <contour>
      <point x="580.539" y="699.998" type="line"/>
      <point x="580.539" y="689.998" type="line"/>
      <point x="596.834" y="690.015" type="line" smooth="yes"/>
      <point x="625.262" y="690.015"/>
      <point x="648.409" y="669.912"/>
      <point x="649.658" y="641.87" type="curve"/>
      <point x="649.658" y="247.398" type="line" smooth="yes"/>
      <point x="649.38" y="113.1"/>
      <point x="573.204" y="29.6369"/>
      <point x="451.066" y="29.6369" type="curve" smooth="yes"/>
      <point x="331.43" y="29.6369"/>
      <point x="256.945" y="118.033"/>
      <point x="256.945" y="260.29" type="curve" smooth="yes"/>
      <point x="256.945" y="641.995" type="line"/>
      <point x="258.168" y="669.972"/>
      <point x="281.289" y="690.016"/>
      <point x="309.671" y="690.016" type="curve" smooth="yes"/>
      <point x="325.967" y="689.999" type="line"/>
      <point x="325.967" y="699.999" type="line"/>
      <point x="37.8572" y="699.999" type="line"/>
      <point x="37.8572" y="689.999" type="line"/>
      <point x="54.152" y="690.016" type="line" smooth="yes"/>
      <point x="83.0403" y="690.016"/>
      <point x="106.476" y="669.254"/>
      <point x="107.018" y="640.498" type="curve" smooth="yes"/>
      <point x="107.036" y="251.667" type="line" smooth="yes"/>
      <point x="106.933" y="88.4711"/>
      <point x="218.696" y="-14"/>
      <point x="432.852" y="-14" type="curve" smooth="yes"/>
      <point x="612.773" y="-14"/>
      <point x="720.609" y="89.0771"/>
      <point x="720.616" y="253.41" type="curve" smooth="yes"/>
      <point x="720.616" y="642.792" type="line"/>
      <point x="722.357" y="670.351"/>
      <point x="745.308" y="690.016"/>
      <point x="773.42" y="690.016" type="curve" smooth="yes"/>
      <point x="789.716" y="689.999" type="line"/>
      <point x="789.716" y="699.999" type="line"/>
    </contour>
    <contour>
      <point x="424.959" y="-7.60714" type="move" name="ogonek"/>
    </contour>
    <contour>
      <point x="451.034" y="764" type="move" name="top"/>
    </contour>
  </outline>
</glyph>
<glyph name="V" format="1">
  <advance width="727"/>
  <unicode hex="0056"/>
  <outline>
    <contour>
      <point x="541.722" y="700.06" type="line"/>
      <point x="541.722" y="690.116" type="line"/>
      <point x="550.514" y="690.116" type="line" smooth="yes"/>
      <point x="576.331" y="690.116"/>
      <point x="605.177" y="667.478"/>
      <point x="588.754" y="627.461" type="curve" smooth="yes"/>
      <point x="412.55" y="214.13" type="line"/>
      <point x="243.23" y="627.461" type="line"/>
      <point x="229.074" y="667.479"/>
      <point x="255.853" y="690.115"/>
      <point x="281.669" y="690.115" type="curve" smooth="yes"/>
      <point x="290.461" y="690.115" type="line"/>
      <point x="290.461" y="700.061" type="line"/>
      <point x="-28" y="700.061" type="line"/>
      <point x="-28" y="690.023" type="line"/>
      <point x="-20" y="690.023" type="line" smooth="yes"/>
      <point x="9.4558" y="690.023"/>
      <point x="43.583" y="673.224"/>
      <point x="65.2428" y="632.737" type="curve"/>
      <point x="368.298" y="-20" type="line"/>
      <point x="377.304" y="-20" type="line"/>
      <point x="379.732" y="9.0379"/>
      <point x="419.351" y="95.7265"/>
      <point x="426.485" y="110.938" type="curve" smooth="yes"/>
      <point x="663.255" y="634.303" type="line"/>
      <point x="684.521" y="673.657"/>
      <point x="718.865" y="690.023"/>
      <point x="747.44" y="690.023" type="curve" smooth="yes"/>
      <point x="756.358" y="690.023" type="line"/>
      <point x="756.358" y="700.06" type="line"/>
    </contour>
  </outline>
</glyph>
<glyph name="W" format="1">
  <advance width="971"/>
  <unicode hex="0057"/>
  <outline>
    <contour>
      <point x="789.339" y="700" type="line"/>
      <point x="789.339" y="690.094" type="line"/>
      <point x="798.131" y="690.094" type="line" smooth="yes"/>
      <point x="825.948" y="690.094"/>
      <point x="847.126" y="667.85"/>
      <point x="836.131" y="627.832" type="curve" smooth="yes"/>
      <point x="736.353" y="276.053" type="line"/>
      <point x="537.369" y="715.321" type="line"/>
      <point x="528.055" y="715.642" type="line"/>
      <point x="346.604" y="280.507" type="line"/>
      <point x="223.584" y="627.511" type="line" smooth="yes"/>
      <point x="210.508" y="667.529"/>
      <point x="236.443" y="690.087"/>
      <point x="262.259" y="690.087" type="curve" smooth="yes"/>
      <point x="271.051" y="690.087" type="line"/>
      <point x="271.051" y="700" type="line"/>
      <point x="-34" y="700" type="line"/>
      <point x="-34" y="690" type="line"/>
      <point x="-26" y="690" type="line" smooth="yes"/>
      <point x="3.61007" y="690"/>
      <point x="41.6868" y="673.312"/>
      <point x="59.9889" y="632.159" type="curve"/>
      <point x="299.317" y="-18" type="line"/>
      <point x="308.754" y="-18" type="line"/>
      <point x="309.793" y="34.7209"/>
      <point x="333.358" y="93.0848"/>
      <point x="333.358" y="93.0848" type="curve"/>
      <point x="491.223" y="464.841" type="line"/>
      <point x="709.389" y="-18" type="line"/>
      <point x="718.826" y="-18" type="line"/>
      <point x="716.107" y="30.7675"/>
      <point x="736.437" y="93.0849"/>
      <point x="736.437" y="93.0849" type="curve"/>
      <point x="904.428" y="631.619" type="line"/>
      <point x="920.243" y="673.159"/>
      <point x="961.222" y="690"/>
      <point x="990.906" y="690" type="curve" smooth="yes"/>
      <point x="999.696" y="690" type="line"/>
      <point x="999.696" y="700" type="line"/>
    </contour>
    <contour>
      <point x="528.994" y="764" type="move" name="top"/>
    </contour>
  </outline>
</glyph>
<glyph name="X" format="1">
  <advance width="729"/>
  <unicode hex="0058"/>
  <outline>
    <contour>
      <point x="756.065" y="9.9997" type="line"/>
      <point x="742.433" y="9.9997" type="line" smooth="yes"/>
      <point x="700.461" y="9.9997"/>
      <point x="662.065" y="37.4201"/>
      <point x="641.059" y="68.269" type="curve" smooth="yes"/>
      <point x="439.923" y="379.043" type="line"/>
      <point x="610.184" y="631.792" type="line" smooth="yes"/>
      <point x="631.792" y="662.436"/>
      <point x="668.216" y="689.992"/>
      <point x="709.954" y="689.992" type="curve" smooth="yes"/>
      <point x="723.954" y="689.992" type="line"/>
      <point x="723.847" y="700.016" type="line"/>
      <point x="478.287" y="700.016" type="line"/>
      <point x="478.393" y="689.992" type="line"/>
      <point x="490.994" y="689.992" type="line" smooth="yes"/>
      <point x="518.267" y="689.992"/>
      <point x="542.751" y="656.325"/>
      <point x="525.712" y="627.939" type="curve" smooth="yes"/>
      <point x="403.202" y="435.78" type="line"/>
      <point x="278.451" y="628.533" type="line"/>
      <point x="262.09" y="656.795"/>
      <point x="286.046" y="690.034"/>
      <point x="313.134" y="690.034" type="curve" smooth="yes"/>
      <point x="325.732" y="690.034" type="line"/>
      <point x="325.626" y="700" type="line"/>
      <point x="-14" y="700" type="line"/>
      <point x="-14" y="690.034" type="line"/>
      <point x="0.28191" y="690.034" type="line" smooth="yes"/>
      <point x="42.076" y="690.034"/>
      <point x="80.3809" y="662.076"/>
      <point x="101.378" y="631.204" type="curve" smooth="yes"/>
      <point x="285.931" y="344.801" type="line"/>
      <point x="88.9475" y="66.4597" type="line"/>
      <point x="66.1013" y="36.551"/>
      <point x="30.8492" y="10.0148"/>
      <point x="-10" y="10.0148" type="curve" smooth="yes"/>
      <point x="-24" y="10.0148" type="line"/>
      <point x="-24" y="0.0571128" type="line"/>
      <point x="223.017" y="0.0571128" type="line"/>
      <point x="222.911" y="10.0148" type="line"/>
      <point x="210.311" y="10.0148" type="line" smooth="yes"/>
      <point x="183.038" y="10.0148"/>
      <point x="156.579" y="43.749"/>
      <point x="175.226" y="72.135" type="curve" smooth="yes"/>
      <point x="322.085" y="288.691" type="line"/>
      <point x="462.099" y="71.3955" type="line"/>
      <point x="478.92" y="43.0499"/>
      <point x="454.86" y="9.99972"/>
      <point x="427.645" y="9.99972" type="curve" smooth="yes"/>
      <point x="415.046" y="9.99972" type="line"/>
      <point x="415.152" y="0" type="line"/>
      <point x="756.171" y="0" type="line"/>
    </contour>
  </outline>
</glyph>
<glyph name="Y" format="1">
  <advance width="702"/>
  <unicode hex="0059"/>
  <outline>
    <contour>
      <point x="495.795" y="700.018" type="line"/>
      <point x="495.795" y="689.994" type="line"/>
      <point x="508.395" y="689.994" type="line" smooth="yes"/>
      <point x="535.606" y="689.994"/>
      <point x="559.406" y="656.483"/>
      <point x="543.504" y="628.139" type="curve" smooth="yes"/>
      <point x="394.672" y="368.148" type="line"/>
      <point x="252.214" y="628.176" type="line" smooth="yes"/>
      <point x="237.705" y="656.515"/>
      <point x="258.131" y="690.035"/>
      <point x="287.327" y="690.035" type="curve" smooth="yes"/>
      <point x="299.926" y="690.035" type="line"/>
      <point x="299.926" y="700" type="line"/>
      <point x="-31" y="700" type="line"/>
      <point x="-31" y="690.035" type="line"/>
      <point x="-17" y="690.035" type="line" smooth="yes"/>
      <point x="23.7297" y="690.035"/>
      <point x="62.6679" y="662.94"/>
      <point x="82.262" y="632.644" type="curve" smooth="yes"/>
      <point x="272.718" y="318.676" type="line"/>
      <point x="272.718" y="72.2377" type="line" smooth="yes"/>
      <point x="271.737" y="37.6936"/>
      <point x="243.471" y="9.97941"/>
      <point x="208.679" y="9.97941" type="curve" smooth="yes"/>
      <point x="196.029" y="10" type="line"/>
      <point x="195.868" y="0" type="line"/>
      <point x="499.615" y="0" type="line"/>
      <point x="499.454" y="10" type="line"/>
      <point x="486.804" y="9.97941" type="line" smooth="yes"/>
      <point x="451.802" y="9.97941"/>
      <point x="423.405" y="38.0294"/>
      <point x="422.75" y="72.8644" type="curve" smooth="yes"/>
      <point x="422.736" y="318.084" type="line"/>
      <point x="619.631" y="631.576" type="line" smooth="yes"/>
      <point x="640.355" y="662.307"/>
      <point x="678.35" y="689.993"/>
      <point x="720.186" y="689.993" type="curve" smooth="yes"/>
      <point x="734.186" y="689.993" type="line"/>
      <point x="734.186" y="700.017" type="line"/>
    </contour>
    <contour>
      <point x="397.726" y="764" type="move" name="top"/>
    </contour>
  </outline>
</glyph>
<glyph name="Z" format="1">
  <advance width="661"/>
  <unicode hex="005A"/>
  <outline>
    <contour>
      <point x="623.239" y="201.254" type="line"/>
      <point x="596.896" y="104.48"/>
      <point x="531.073" y="41.9211"/>
      <point x="443.501" y="41.9211" type="curve" smooth="yes"/>
      <point x="233.502" y="41.8772" type="line"/>
      <point x="604.488" y="705.328" type="line"/>
      <point x="604.487" y="714" type="line"/>
      <point x="592.684" y="707.817"/>
      <point x="538.736" y="701.098"/>
      <point x="498.52" y="701.098" type="curve" smooth="yes"/>
      <point x="180.435" y="701.098" type="line" smooth="yes"/>
      <point x="137.721" y="700.895"/>
      <point x="78.099" y="711.109"/>
      <point x="59.15" y="719.096" type="curve"/>
      <point x="59.1496" y="544.697" type="line"/>
      <point x="69.2359" y="544.847" type="line"/>
      <point x="69.2169" y="556.6" type="line" smooth="yes"/>
      <point x="69.0995" y="617.705"/>
      <point x="108.096" y="657.911"/>
      <point x="169.67" y="658.713" type="curve" smooth="yes"/>
      <point x="411.64" y="658.713" type="line"/>
      <point x="45.0061" y="9.322" type="line"/>
      <point x="44.8221" y="0" type="line"/>
      <point x="596.968" y="0" type="line"/>
      <point x="633.239" y="201.254" type="line"/>
    </contour>
    <contour>
      <point x="330.679" y="764" type="move" name="top"/>
    </contour>
  </outline>
</glyph>
<glyph name="bracketleft" format="1">
  <advance width="417"/>
  <unicode hex="005B"/>
  <outline>
    <contour>
      <point x="120" y="-90" type="line"/>
      <point x="377.49" y="-90" type="line"/>
      <point x="377.49" y="-80" type="line"/>
      <point x="270" y="-42" type="line"/>
      <point x="270" y="673.785" type="line"/>
      <point x="374.183" y="712" type="line"/>
      <point x="374.183" y="722" type="line"/>
      <point x="120" y="722" type="line"/>
    </contour>
  </outline>
</glyph>
<glyph name="backslash" format="1">
  <advance width="426"/>
  <unicode hex="005C"/>
  <outline>
    <contour>
      <point x="8.7899" y="696.502" type="line"/>
      <point x="369.728" y="-14" type="line"/>
      <point x="417.384" y="10.5472" type="line"/>
      <point x="56.87" y="719.464" type="line"/>
    </contour>
  </outline>
</glyph>
<glyph name="bracketright" format="1">
  <advance width="417"/>
  <unicode hex="005D"/>
  <outline>
    <contour>
      <point x="43.307" y="722" type="line"/>
      <point x="43.307" y="712" type="line"/>
      <point x="147.49" y="673.786" type="line"/>
      <point x="147.49" y="-42" type="line"/>
      <point x="40" y="-80" type="line"/>
      <point x="40" y="-90" type="line"/>
      <point x="297.49" y="-90" type="line"/>
      <point x="297.49" y="722" type="line"/>
    </contour>
  </outline>
</glyph>
<glyph name="asciicircum" format="1">
  <advance width="552"/>
  <unicode hex="005E"/>
  <outline>
    <contour>
      <point x="245.126" y="376.708" type="line"/>
      <point x="310.014" y="376.708" type="line"/>
      <point x="518.17" y="175.811" type="line"/>
      <point x="439.539" y="175.811" type="line"/>
      <point x="277.539" y="329.349" type="line"/>
      <point x="113.714" y="175.811" type="line"/>
      <point x="35" y="175.811" type="line"/>
    </contour>
  </outline>
</glyph>
<glyph name="grave" format="1">
  <advance width="536"/>
  <unicode hex="0060"/>
  <outline>
    <contour>
      <point x="272.406" y="751.15" type="line"/>
      <point x="238.627" y="809.471"/>
      <point x="172.061" y="876.328"/>
      <point x="128.567" y="915.292" type="curve"/>
      <point x="93.0516" y="897.295"/>
      <point x="73.1077" y="870.227"/>
      <point x="60.8065" y="834.088" type="curve"/>
      <point x="120.304" y="796.251"/>
      <point x="199.837" y="759.594"/>
      <point x="265.406" y="744.15" type="curve"/>
    </contour>
    <contour>
      <point x="253.32" y="744.207" type="move" name="_top"/>
    </contour>
  </outline>
</glyph>
<glyph name="a" format="1">
  <advance width="644"/>
  <unicode hex="0061"/>
  <outline>
    <contour>
      <point x="318.9" y="627.603" type="line"/>
      <point x="310.408" y="627.603" type="line"/>
      <point x="307.346" y="599.374"/>
      <point x="270.636" y="521.795"/>
      <point x="263.734" y="506.378" type="curve" smooth="yes"/>
      <point x="57.4672" y="62.162" type="line"/>
      <point x="38.4373" y="24.7032"/>
      <point x="6.3646" y="9.99839"/>
      <point x="-19" y="9.99839" type="curve" smooth="yes"/>
      <point x="-27" y="9.99839" type="line"/>
      <point x="-27" y="0" type="line"/>
      <point x="172.738" y="0" type="line"/>
      <point x="172.738" y="9.90649" type="line"/>
      <point x="164.878" y="9.90649" type="line" smooth="yes"/>
      <point x="142.088" y="9.90649"/>
      <point x="116.408" y="28.9553"/>
      <point x="130.138" y="64.1674" type="curve" smooth="yes"/>
      <point x="170.074" y="156.915" type="line"/>
      <point x="381.875" y="156.915" type="line"/>
      <point x="420.677" y="65.5087" type="line" smooth="yes"/>
      <point x="435.599" y="29.4395"/>
      <point x="409.685" y="9.90889"/>
      <point x="386.607" y="9.90889" type="curve" smooth="yes"/>
      <point x="378.748" y="9.90889" type="line"/>
      <point x="378.748" y="0" type="line"/>
      <point x="672.636" y="0" type="line"/>
      <point x="672.636" y="9.99829" type="line"/>
      <point x="665.16" y="9.99829" type="line" smooth="yes"/>
      <point x="637.765" y="9.99829"/>
      <point x="605.96" y="25.6538"/>
      <point x="586.613" y="65.8078" type="curve" smooth="yes"/>
    </contour>
    <contour>
      <point x="187.017" y="196.262" type="line"/>
      <point x="276.729" y="404.604" type="line"/>
      <point x="365.172" y="196.262" type="line"/>
    </contour>
    <contour>
      <point x="532.001" y="10.1141" type="move" name="ogonek"/>
    </contour>
    <contour>
      <point x="315.366" y="664" type="move" name="top"/>
    </contour>
  </outline>
</glyph>
<glyph name="b" format="1">
  <advance width="604"/>
  <unicode hex="0062"/>
  <outline>
    <contour>
      <point x="35.5791" y="600.042" type="line"/>
      <point x="35.6353" y="590.043" type="line"/>
      <point x="46.9185" y="590.05" type="line" smooth="yes"/>
      <point x="77.4505" y="590.05"/>
      <point x="101.208" y="568.295"/>
      <point x="101.731" y="537.397" type="curve" smooth="yes"/>
      <point x="101.731" y="62.798" type="line" smooth="yes"/>
      <point x="101.277" y="32.9018"/>
      <point x="77.4938" y="9.99169"/>
      <point x="46.9164" y="9.99169" type="curve" smooth="yes"/>
      <point x="35.633" y="9.99989" type="line"/>
      <point x="35.577" y="0" type="line"/>
      <point x="325.639" y="0" type="line" smooth="yes"/>
      <point x="460.342" y="0"/>
      <point x="577.282" y="45.6754"/>
      <point x="577.282" y="170.783" type="curve" smooth="yes"/>
      <point x="577.282" y="261.572"/>
      <point x="506.246" y="320.383"/>
      <point x="420.226" y="326.634" type="curve"/>
      <point x="475.774" y="331.451"/>
      <point x="530.165" y="374.977"/>
      <point x="530.165" y="450.621" type="curve" smooth="yes"/>
      <point x="530.165" y="576.014"/>
      <point x="409.532" y="600.022"/>
      <point x="304.27" y="600.022" type="curve" smooth="yes"/>
    </contour>
    <contour>
      <point x="243.526" y="39.7378" type="line"/>
      <point x="243.526" y="560.934" type="line"/>
      <point x="271.75" y="560.934" type="line" smooth="yes"/>
      <point x="335.212" y="560.924"/>
      <point x="380.595" y="530.514"/>
      <point x="380.595" y="441.045" type="curve" smooth="yes"/>
      <point x="380.595" y="358.584"/>
      <point x="333.48" y="325.553"/>
      <point x="272.77" y="325.553" type="curve"/>
      <point x="272.85" y="316.776" type="line"/>
      <point x="355.061" y="317.436"/>
      <point x="415.025" y="275.11"/>
      <point x="415.025" y="179.72" type="curve" smooth="yes"/>
      <point x="415.025" y="77.709"/>
      <point x="355.641" y="39.7379"/>
      <point x="284.366" y="39.7379" type="curve" smooth="yes"/>
    </contour>
  </outline>
</glyph>
<glyph name="c" format="1">
  <advance width="682"/>
  <unicode hex="0063"/>
  <outline>
    <contour>
      <point x="625.703" y="250.694" type="line"/>
      <point x="600.986" y="87.8227"/>
      <point x="536.962" y="26.4476"/>
      <point x="394.309" y="26.9051" type="curve" smooth="yes"/>
      <point x="263.006" y="30.0428"/>
      <point x="186.024" y="136.408"/>
      <point x="186.024" y="302.281" type="curve" smooth="yes"/>
      <point x="186.024" y="465.349"/>
      <point x="259.044" y="573.439"/>
      <point x="404.419" y="573.439" type="curve" smooth="yes"/>
      <point x="503.488" y="573.439"/>
      <point x="577.746" y="531.275"/>
      <point x="611.647" y="408.431" type="curve"/>
      <point x="619.397" y="408.42" type="line"/>
      <point x="619.397" y="567.291" type="line"/>
      <point x="566.805" y="592.891"/>
      <point x="485.603" y="612.743"/>
      <point x="394.18" y="612.743" type="curve" smooth="yes"/>
      <point x="168.398" y="612.743"/>
      <point x="33.5849" y="496.26"/>
      <point x="33.5849" y="300.316" type="curve" smooth="yes"/>
      <point x="33.5849" y="102.073"/>
      <point x="171.598" y="-12"/>
      <point x="394.181" y="-13" type="curve" smooth="yes"/>
      <point x="524.3" y="-13"/>
      <point x="606.146" y="36.4976"/>
      <point x="645.201" y="99.8858" type="curve"/>
      <point x="633.452" y="250.706" type="line"/>
    </contour>
    <contour>
      <point x="378.274" y="673.274" type="move" name="top"/>
    </contour>
    <contour>
      <point x="384.655" y="-10.4702" type="move" name="bottom"/>
    </contour>
  </outline>
</glyph>
<glyph name="d" format="1">
  <advance width="748"/>
  <unicode hex="0064"/>
  <outline>
    <contour>
      <point x="32.5549" y="600.064" type="line"/>
      <point x="32.6269" y="590.064" type="line"/>
      <point x="44.6156" y="590.072" type="line" smooth="yes"/>
      <point x="75.5997" y="590.072"/>
      <point x="100.158" y="568.158"/>
      <point x="101.596" y="537.865" type="curve"/>
      <point x="101.596" y="64.1206" type="line" smooth="yes"/>
      <point x="101.118" y="34.1402"/>
      <point x="76.2433" y="9.99241"/>
      <point x="45.6417" y="9.99241" type="curve" smooth="yes"/>
      <point x="33.2123" y="10" type="line"/>
      <point x="33.1413" y="0" type="line"/>
      <point x="370.787" y="0.0226136" type="line" smooth="yes"/>
      <point x="585.372" y="0.0216136"/>
      <point x="714.275" y="111.33"/>
      <point x="714.275" y="299.592" type="curve" smooth="yes"/>
      <point x="714.275" y="487.988"/>
      <point x="585.372" y="600.034"/>
      <point x="370.788" y="600.033" type="curve" smooth="yes"/>
    </contour>
    <contour>
      <point x="246.201" y="560.686" type="line"/>
      <point x="358.947" y="560.691" type="line" smooth="yes"/>
      <point x="484.613" y="560.691"/>
      <point x="561.653" y="463.122"/>
      <point x="561.653" y="299.591" type="curve" smooth="yes"/>
      <point x="561.653" y="136.924"/>
      <point x="483.99" y="40.1406"/>
      <point x="358.947" y="40.1406" type="curve" smooth="yes"/>
      <point x="246.201" y="40.1445" type="line"/>
    </contour>
    <contour>
      <point x="348.992" y="295.981" type="move" name="center"/>
    </contour>
    <contour>
      <point x="370.539" y="664.965" type="move" name="top"/>
    </contour>
  </outline>
</glyph>
<glyph name="e" format="1">
  <advance width="563"/>
  <unicode hex="0065"/>
  <outline>
    <contour>
      <point x="543.474" y="183.873" type="line"/>
      <point x="533.81" y="183.873" type="line"/>
      <point x="507.616" y="95.401"/>
      <point x="449.656" y="41.0089"/>
      <point x="365.123" y="40.191" type="curve" smooth="yes"/>
      <point x="244.75" y="40.191" type="line"/>
      <point x="244.75" y="277.369" type="line"/>
      <point x="359.77" y="277.369" type="line" smooth="yes"/>
      <point x="406.04" y="275.921"/>
      <point x="434.848" y="242.696"/>
      <point x="434.848" y="198.342" type="curve" smooth="yes"/>
      <point x="434.842" y="191.274" type="line"/>
      <point x="445.188" y="191.232" type="line"/>
      <point x="445.188" y="402.872" type="line"/>
      <point x="434.842" y="402.83" type="line"/>
      <point x="434.849" y="396.413" type="line" smooth="yes"/>
      <point x="434.849" y="351.655"/>
      <point x="405.514" y="318.231"/>
      <point x="358.504" y="317.354" type="curve" smooth="yes"/>
      <point x="244.75" y="317.354" type="line"/>
      <point x="244.75" y="559.77" type="line"/>
      <point x="388.807" y="559.77" type="line" smooth="yes"/>
      <point x="446.629" y="558.927"/>
      <point x="479.715" y="522.782"/>
      <point x="479.715" y="465.139" type="curve" smooth="yes"/>
      <point x="479.708" y="455.828" type="line"/>
      <point x="490.053" y="455.778" type="line"/>
      <point x="490.053" y="615.28" type="line"/>
      <point x="474.242" y="609.004"/>
      <point x="423.717" y="600.146"/>
      <point x="386.192" y="599.961" type="curve" smooth="yes"/>
      <point x="34.3765" y="599.961" type="line"/>
      <point x="34.4396" y="589.959" type="line"/>
      <point x="46.4187" y="589.967" type="line" smooth="yes"/>
      <point x="75.9812" y="589.967"/>
      <point x="100.125" y="567.725"/>
      <point x="100.57" y="537.769" type="curve" smooth="yes"/>
      <point x="100.57" y="62.2465" type="line" smooth="yes"/>
      <point x="99.9028" y="32.4974"/>
      <point x="75.8483" y="9.99099"/>
      <point x="46.4264" y="9.99099" type="curve" smooth="yes"/>
      <point x="34.4473" y="9.99919" type="line"/>
      <point x="34.3846" y="0" type="line"/>
      <point x="502.258" y="0" type="line"/>
      <point x="504.671" y="0" type="line"/>
    </contour>
    <contour>
      <point x="453.952" y="4.21745" type="move" name="ogonek"/>
    </contour>
    <contour>
      <point x="299.232" y="0" type="move" name="bottom"/>
    </contour>
    <contour>
      <point x="291.339" y="664.265" type="move" name="top"/>
    </contour>
  </outline>
</glyph>
<glyph name="f" format="1">
  <advance width="534"/>
  <unicode hex="0066"/>
  <outline>
    <contour>
      <point x="491.605" y="615.28" type="line"/>
      <point x="475.713" y="609.005"/>
      <point x="424.941" y="600.147"/>
      <point x="387.233" y="599.961" type="curve" smooth="yes"/>
      <point x="34.375" y="599.961" type="line"/>
      <point x="34.4393" y="589.959" type="line"/>
      <point x="46.4837" y="589.967" type="line" smooth="yes"/>
      <point x="76.2342" y="589.967"/>
      <point x="100.508" y="567.668"/>
      <point x="100.898" y="537.654" type="curve" smooth="yes"/>
      <point x="100.898" y="62.3266" type="line" smooth="yes"/>
      <point x="100.266" y="32.5378"/>
      <point x="76.0895" y="9.99106"/>
      <point x="46.4914" y="9.99106" type="curve" smooth="yes"/>
      <point x="34.447" y="9.99936" type="line"/>
      <point x="34.3831" y="0" type="line"/>
      <point x="312.228" y="0" type="line"/>
      <point x="312.164" y="9.99926" type="line"/>
      <point x="300.12" y="9.99096" type="line" smooth="yes"/>
      <point x="269.676" y="9.99096"/>
      <point x="246.004" y="32.8557"/>
      <point x="245.068" y="62.9555" type="curve"/>
      <point x="245.068" y="277.37" type="line"/>
      <point x="361.013" y="277.37" type="line" smooth="yes"/>
      <point x="407.339" y="275.925"/>
      <point x="436.139" y="242.699"/>
      <point x="436.139" y="198.342" type="curve" smooth="yes"/>
      <point x="436.133" y="191.274" type="line"/>
      <point x="446.537" y="191.232" type="line"/>
      <point x="446.537" y="402.872" type="line"/>
      <point x="436.133" y="402.83" type="line"/>
      <point x="436.139" y="396.412" type="line" smooth="yes"/>
      <point x="436.139" y="351.66"/>
      <point x="406.823" y="318.238"/>
      <point x="359.771" y="317.354" type="curve" smooth="yes"/>
      <point x="245.068" y="317.354" type="line"/>
      <point x="245.068" y="559.77" type="line"/>
      <point x="388.951" y="559.77" type="line" smooth="yes"/>
      <point x="448.091" y="558.931"/>
      <point x="481.209" y="522.131"/>
      <point x="481.209" y="464.484" type="curve" smooth="yes"/>
      <point x="481.202" y="455.168" type="line"/>
      <point x="491.605" y="455.123" type="line"/>
    </contour>
  </outline>
</glyph>
<glyph name="g" format="1">
  <advance width="730"/>
  <unicode hex="0067"/>
  <outline>
    <contour>
      <point x="663.786" y="238.301" type="line" smooth="yes"/>
      <point x="663.742" y="263.645"/>
      <point x="679.414" y="277.743"/>
      <point x="707.491" y="277.743" type="curve" smooth="yes"/>
      <point x="720.201" y="277.736" type="line"/>
      <point x="720.201" y="286.48" type="line"/>
      <point x="462.802" y="286.48" type="line"/>
      <point x="462.802" y="277.733" type="line"/>
      <point x="477.03" y="277.74" type="line" smooth="yes"/>
      <point x="504.444" y="277.757"/>
      <point x="521.195" y="263.627"/>
      <point x="521.081" y="238.429" type="curve" smooth="yes"/>
      <point x="519.834" y="117.842" type="line"/>
      <point x="501.333" y="56.52"/>
      <point x="440.327" y="26.5229"/>
      <point x="377.27" y="26.5229" type="curve" smooth="yes"/>
      <point x="253.879" y="26.5229"/>
      <point x="186.622" y="128.823"/>
      <point x="186.622" y="295.076" type="curve" smooth="yes"/>
      <point x="186.622" y="471.419"/>
      <point x="260.213" y="573.438"/>
      <point x="400.321" y="573.438" type="curve" smooth="yes"/>
      <point x="496.025" y="573.438"/>
      <point x="576.368" y="535.172"/>
      <point x="610.247" y="408.43" type="curve"/>
      <point x="617.948" y="408.419" type="line"/>
      <point x="617.948" y="567.29" type="line"/>
      <point x="561.814" y="594.819"/>
      <point x="462.321" y="612.742"/>
      <point x="369.991" y="612.743" type="curve" smooth="yes"/>
      <point x="161.191" y="612.743"/>
      <point x="34.214" y="495.605"/>
      <point x="34.214" y="300.971" type="curve" smooth="yes"/>
      <point x="34.214" y="104.682"/>
      <point x="164.166" y="-12"/>
      <point x="364.036" y="-13" type="curve" smooth="yes"/>
      <point x="505.097" y="-13"/>
      <point x="621.682" y="49.74"/>
      <point x="663.786" y="104.424" type="curve"/>
    </contour>
    <contour>
      <point x="370.156" y="671.243" type="move" name="top"/>
    </contour>
    <contour>
      <point x="373.842" y="-44.3571" type="move" name="bottom"/>
    </contour>
  </outline>
</glyph>
<glyph name="h" format="1">
  <advance width="750"/>
  <unicode hex="0068"/>
  <outline>
    <contour>
      <point x="652.006" y="567.107"/>
      <point x="676.073" y="590.05"/>
      <point x="706.159" y="590.05" type="curve" smooth="yes"/>
      <point x="717.367" y="590.043" type="line"/>
      <point x="717.427" y="600.042" type="line"/>
      <point x="441.632" y="600.042" type="line"/>
      <point x="441.691" y="590.043" type="line"/>
      <point x="452.574" y="590.05" type="line" smooth="yes"/>
      <point x="482.66" y="590.05"/>
      <point x="506.728" y="567.107"/>
      <point x="507.586" y="536.93" type="curve" smooth="yes"/>
      <point x="507.586" y="318.632" type="line"/>
      <point x="244.228" y="318.632" type="line"/>
      <point x="244.228" y="537.515" type="line"/>
      <point x="245.378" y="567.403"/>
      <point x="269.329" y="590.05"/>
      <point x="299.219" y="590.05" type="curve" smooth="yes"/>
      <point x="310.107" y="590.043" type="line"/>
      <point x="310.155" y="600.042" type="line"/>
      <point x="34.3671" y="600.042" type="line"/>
      <point x="34.4263" y="590.043" type="line"/>
      <point x="45.6346" y="590.05" type="line" smooth="yes"/>
      <point x="75.0746" y="590.05"/>
      <point x="99.7882" y="567.107"/>
      <point x="100" y="536.93" type="curve" smooth="yes"/>
      <point x="100.013" y="63.0404" type="line" smooth="yes"/>
      <point x="99.762" y="32.8993"/>
      <point x="75.0646" y="9.99168"/>
      <point x="45.6479" y="9.99168" type="curve" smooth="yes"/>
      <point x="34.4396" y="9.99988" type="line"/>
      <point x="34.3805" y="0" type="line"/>
      <point x="310.175" y="0" type="line"/>
      <point x="310.116" y="9.99988" type="line"/>
      <point x="299.233" y="9.99168" type="line" smooth="yes"/>
      <point x="269.218" y="9.99168"/>
      <point x="245.193" y="32.8274"/>
      <point x="244.228" y="62.8984" type="curve"/>
      <point x="244.228" y="279.3" type="line"/>
      <point x="507.591" y="279.3" type="line"/>
      <point x="507.591" y="62.8756" type="line" smooth="yes"/>
      <point x="506.615" y="32.816"/>
      <point x="482.594" y="9.99188"/>
      <point x="452.588" y="9.99188" type="curve" smooth="yes"/>
      <point x="441.704" y="10" type="line"/>
      <point x="441.645" y="0" type="line"/>
      <point x="716.781" y="0" type="line"/>
      <point x="716.722" y="10" type="line"/>
      <point x="705.514" y="9.99188" type="line" smooth="yes"/>
      <point x="675.721" y="9.99188"/>
      <point x="651.83" y="32.4905"/>
      <point x="651.161" y="62.2314" type="curve"/>
      <point x="651.161" y="536.93" type="line" smooth="yes"/>
    </contour>
    <contour>
      <point x="327.128" y="262.554" type="move" name="center"/>
    </contour>
    <contour>
      <point x="327.882" y="539.211" type="move" name="top"/>
    </contour>
  </outline>
</glyph>
<glyph name="i" format="1">
  <advance width="352"/>
  <unicode hex="0069"/>
  <outline>
    <contour>
      <point x="318.256" y="0" type="line"/>
      <point x="318.191" y="10" type="line"/>
      <point x="306.352" y="9.9918" type="line" smooth="yes"/>
      <point x="274.579" y="9.9918"/>
      <point x="249.104" y="32.7878"/>
      <point x="248.071" y="62.8201" type="curve"/>
      <point x="248.071" y="537.645" type="line"/>
      <point x="249.328" y="567.469"/>
      <point x="274.712" y="590.051"/>
      <point x="306.336" y="590.051" type="curve" smooth="yes"/>
      <point x="317.887" y="590.043" type="line"/>
      <point x="317.913" y="600.042" type="line"/>
      <point x="34.3767" y="600.042" type="line"/>
      <point x="34.4415" y="590.043" type="line"/>
      <point x="46.2806" y="590.051" type="line" smooth="yes"/>
      <point x="77.5424" y="590.051"/>
      <point x="103.694" y="567.107"/>
      <point x="103.956" y="536.93" type="curve" smooth="yes"/>
      <point x="103.973" y="63.0868" type="line" smooth="yes"/>
      <point x="103.696" y="32.9229"/>
      <point x="77.5506" y="9.99191"/>
      <point x="46.2975" y="9.99191" type="curve" smooth="yes"/>
      <point x="34.4585" y="10" type="line"/>
      <point x="34.3938" y="0" type="line"/>
    </contour>
  </outline>
</glyph>
<glyph name="j" format="1">
  <advance width="340"/>
  <unicode hex="006A"/>
  <outline>
    <contour>
      <point x="30.7798" y="599.948" type="line"/>
      <point x="30.9267" y="589.893" type="line"/>
      <point x="42.4492" y="589.914" type="line" smooth="yes"/>
      <point x="73.6934" y="589.914"/>
      <point x="99.1606" y="566.561"/>
      <point x="100.729" y="537.207" type="curve"/>
      <point x="100.729" y="32.7375" type="line" smooth="yes"/>
      <point x="100.725" y="-48"/>
      <point x="74.1426" y="-132"/>
      <point x="-3" y="-165" type="curve"/>
      <point x="-3" y="-174" type="line"/>
      <point x="123.406" y="-186"/>
      <point x="244.939" y="-102"/>
      <point x="244.939" y="30.7731" type="curve" smooth="yes"/>
      <point x="244.939" y="536.206" type="line" smooth="yes"/>
      <point x="245.927" y="566.072"/>
      <point x="271.637" y="590.009"/>
      <point x="303.269" y="590.009" type="curve" smooth="yes"/>
      <point x="314.791" y="589.988" type="line"/>
      <point x="314.938" y="600.043" type="line"/>
    </contour>
  </outline>
</glyph>
<glyph name="k" format="1">
  <advance width="673"/>
  <unicode hex="006B"/>
  <outline>
    <contour>
      <point x="311.42" y="10" type="line"/>
      <point x="301.088" y="9.9927" type="line" smooth="yes"/>
      <point x="270.849" y="9.9927"/>
      <point x="246.161" y="33.0168"/>
      <point x="245.468" y="62.8906" type="curve"/>
      <point x="245.468" y="538.159" type="line"/>
      <point x="246.523" y="567.695"/>
      <point x="271.085" y="590.364"/>
      <point x="301.076" y="590.364" type="curve" smooth="yes"/>
      <point x="311.855" y="590.427" type="line"/>
      <point x="311.995" y="600.356" type="line"/>
      <point x="34.979" y="600.356" type="line"/>
      <point x="35.1189" y="590.427" type="line"/>
      <point x="46.1064" y="590.364" type="line" smooth="yes"/>
      <point x="76.3066" y="590.364"/>
      <point x="100.964" y="567.218"/>
      <point x="101.531" y="537.23" type="curve" smooth="yes"/>
      <point x="101.531" y="63.1277" type="line" smooth="yes"/>
      <point x="100.965" y="33.1387"/>
      <point x="76.4252" y="9.9927"/>
      <point x="46.1195" y="9.9927" type="curve" smooth="yes"/>
      <point x="35.642" y="10" type="line"/>
      <point x="35.5837" y="0.00100422" type="line"/>
      <point x="311.478" y="0.00100422" type="line"/>
    </contour>
    <contour>
      <point x="394.752" y="359.5" type="line"/>
      <point x="561.171" y="555.37" type="line"/>
      <point x="583.487" y="577.767"/>
      <point x="615.916" y="591.053"/>
      <point x="651.422" y="591.141" type="curve" smooth="yes"/>
      <point x="655.214" y="591.141" type="line"/>
      <point x="655.214" y="600.313" type="line"/>
      <point x="451.441" y="600.313" type="line"/>
      <point x="451.441" y="591.269" type="line"/>
      <point x="459.808" y="591.274" type="line" smooth="yes"/>
      <point x="483.132" y="591.274"/>
      <point x="494.536" y="570.548"/>
      <point x="480.409" y="551.72" type="curve" smooth="yes"/>
      <point x="274.933" y="280.173" type="line"/>
      <point x="274.883" y="278.836"/>
      <point x="401.327" y="103.189"/>
      <point x="419.964" y="76.9487" type="curve"/>
      <point x="481.225" y="-3"/>
      <point x="592.298" y="0.167906"/>
      <point x="618.061" y="0.118006" type="curve" smooth="yes"/>
      <point x="695.043" y="0.118006" type="line"/>
      <point x="695.043" y="9.07501" type="line"/>
      <point x="658.178" y="10.0069"/>
      <point x="631.766" y="29.3009"/>
      <point x="605.448" y="67.1306" type="curve" smooth="yes"/>
    </contour>
    <contour>
      <point x="376.509" y="-64.3426" type="move" name="bottom"/>
    </contour>
  </outline>
</glyph>
<glyph name="l" format="1">
  <advance width="548"/>
  <unicode hex="006C"/>
  <outline>
    <contour>
      <point x="543.822" y="183.888" type="line"/>
      <point x="533.492" y="183.888" type="line"/>
      <point x="507.304" y="95.4229"/>
      <point x="449.684" y="41.0283"/>
      <point x="365.178" y="40.1941" type="curve" smooth="yes"/>
      <point x="244.767" y="40.1941" type="line"/>
      <point x="244.767" y="536.931" type="line" smooth="yes"/>
      <point x="245.628" y="567.108"/>
      <point x="269.908" y="590.051"/>
      <point x="300.253" y="590.051" type="curve" smooth="yes"/>
      <point x="311.553" y="590.044" type="line"/>
      <point x="311.607" y="600.043" type="line"/>
      <point x="34.3785" y="600.043" type="line"/>
      <point x="34.4327" y="590.044" type="line"/>
      <point x="45.7322" y="590.051" type="line" smooth="yes"/>
      <point x="75.4355" y="590.051"/>
      <point x="100.357" y="567.108"/>
      <point x="100.577" y="536.931" type="curve" smooth="yes"/>
      <point x="100.587" y="62.248" type="line" smooth="yes"/>
      <point x="99.9153" y="32.4992"/>
      <point x="75.8626" y="9.99252"/>
      <point x="46.4438" y="9.99252" type="curve" smooth="yes"/>
      <point x="34.4647" y="10" type="line"/>
      <point x="34.402" y="0" type="line"/>
      <point x="504.687" y="0" type="line"/>
    </contour>
    <contour>
      <point x="174.434" y="664" type="move" name="top"/>
    </contour>
    <contour>
      <point x="296.74" y="-64.343" type="move" name="bottom"/>
    </contour>
    <contour>
      <point x="417.9" y="500" type="move" name="topright"/>
    </contour>
  </outline>
</glyph>
<glyph name="m" format="1">
  <advance width="863"/>
  <unicode hex="006D"/>
  <outline>
    <contour>
      <point x="713.69" y="612.637" type="line"/>
      <point x="704.905" y="612.637" type="line"/>
      <point x="439.767" y="190.101" type="line"/>
      <point x="157.299" y="612.744" type="line"/>
      <point x="149.033" y="612.743" type="line"/>
      <point x="71.4307" y="63.9852" type="line" smooth="yes"/>
      <point x="66.3711" y="29.1758"/>
      <point x="38.12" y="9.99634"/>
      <point x="5.62899" y="9.99634" type="curve" smooth="yes"/>
      <point x="-8" y="9.99994" type="line"/>
      <point x="-8" y="0" type="line"/>
      <point x="182.262" y="0" type="line"/>
      <point x="182.262" y="9.78404" type="line"/>
      <point x="168.291" y="9.78404" type="line" smooth="yes"/>
      <point x="141.147" y="9.80714"/>
      <point x="132.326" y="35.4283"/>
      <point x="133.763" y="49.7044" type="curve" smooth="yes"/>
      <point x="168.12" y="331.298" type="line"/>
      <point x="398.839" y="-19" type="line"/>
      <point x="407.74" y="-19" type="line"/>
      <point x="408.442" y="25.9727"/>
      <point x="443.876" y="82.6222"/>
      <point x="443.876" y="82.6222" type="curve"/>
      <point x="603.336" y="336.018" type="line"/>
      <point x="642.467" y="49.7042" type="line" smooth="yes"/>
      <point x="644.037" y="34.9732"/>
      <point x="636.938" y="9.80553"/>
      <point x="607.864" y="9.78393" type="curve" smooth="yes"/>
      <point x="593.892" y="9.78393" type="line"/>
      <point x="593.892" y="0.00192981" type="line"/>
      <point x="872.113" y="0.00192981" type="line"/>
      <point x="872.113" y="9.99953" type="line"/>
      <point x="858.02" y="9.99603" type="line" smooth="yes"/>
      <point x="827.886" y="9.99603"/>
      <point x="801.329" y="27.514"/>
      <point x="794.065" y="59.4514" type="curve"/>
    </contour>
  </outline>
</glyph>
<glyph name="n" format="1">
  <advance width="779"/>
  <unicode hex="006E"/>
  <outline>
    <contour>
      <point x="478.026" y="599.977" type="line"/>
      <point x="478.085" y="589.979" type="line"/>
      <point x="495.029" y="589.985" type="line" smooth="yes"/>
      <point x="525.219" y="589.985"/>
      <point x="549.266" y="568.007"/>
      <point x="549.505" y="538.87" type="curve" smooth="yes"/>
      <point x="549.551" y="210.148" type="line"/>
      <point x="91.188" y="613.461" type="line"/>
      <point x="81.6241" y="613.739" type="line" smooth="yes"/>
      <point x="81.6241" y="613.739"/>
      <point x="92.5172" y="568.338"/>
      <point x="92.5172" y="500.532" type="curve" smooth="yes"/>
      <point x="92.5172" y="61.1069" type="line" smooth="yes"/>
      <point x="92.2755" y="31.9704"/>
      <point x="67.6051" y="9.9921"/>
      <point x="37.4132" y="9.9921" type="curve" smooth="yes"/>
      <point x="21.0937" y="9.9997" type="line"/>
      <point x="21.0354" y="0" type="line"/>
      <point x="300.748" y="0" type="line"/>
      <point x="300.702" y="9.9997" type="line"/>
      <point x="284.064" y="9.9921" type="line" smooth="yes"/>
      <point x="253.873" y="9.9921"/>
      <point x="229.827" y="31.9704"/>
      <point x="228.963" y="61.1069" type="curve" smooth="yes"/>
      <point x="228.945" y="391.627" type="line"/>
      <point x="688.447" y="-13" type="line"/>
      <point x="697.413" y="-13" type="line"/>
      <point x="697.413" y="-13"/>
      <point x="686.558" y="33.6013"/>
      <point x="686.558" y="103.337" type="curve" smooth="yes"/>
      <point x="686.558" y="540.315" type="line"/>
      <point x="688.158" y="568.73"/>
      <point x="711.906" y="589.985"/>
      <point x="741.596" y="589.985" type="curve" smooth="yes"/>
      <point x="758.541" y="589.979" type="line"/>
      <point x="758.599" y="599.977" type="line"/>
    </contour>
    <contour>
      <point x="372.317" y="664" type="move" name="top"/>
    </contour>
    <contour>
      <point x="435.754" y="-64.3313" type="move" name="bottom"/>
    </contour>
  </outline>
</glyph>
<glyph name="o" format="1">
  <advance width="777"/>
  <unicode hex="006F"/>
  <outline>
    <contour>
      <point x="176.776" y="612.743"/>
      <point x="34.822" y="493.159"/>
      <point x="34.822" y="299.658" type="curve" smooth="yes"/>
      <point x="34.822" y="106.815"/>
      <point x="176.776" y="-13"/>
      <point x="388.371" y="-13" type="curve" smooth="yes"/>
      <point x="600.6" y="-13"/>
      <point x="742.555" y="106.815"/>
      <point x="742.555" y="299.658" type="curve" smooth="yes"/>
      <point x="742.555" y="493.159"/>
      <point x="600.6" y="612.743"/>
      <point x="388.371" y="612.743" type="curve" smooth="yes"/>
    </contour>
    <contour>
      <point x="267.171" y="26.537"/>
      <point x="188.012" y="131.024"/>
      <point x="188.012" y="299.658" type="curve" smooth="yes"/>
      <point x="188.012" y="468.949"/>
      <point x="267.171" y="573.439"/>
      <point x="388.371" y="573.439" type="curve" smooth="yes"/>
      <point x="510.205" y="573.439"/>
      <point x="588.73" y="468.949"/>
      <point x="588.73" y="299.658" type="curve" smooth="yes"/>
      <point x="588.73" y="131.024"/>
      <point x="510.205" y="26.537"/>
      <point x="388.371" y="26.537" type="curve" smooth="yes"/>
    </contour>
    <contour>
      <point x="388.973" y="664.565" type="move" name="top"/>
    </contour>
  </outline>
</glyph>
<glyph name="p" format="1">
  <advance width="585"/>
  <unicode hex="0070"/>
  <outline>
    <contour>
      <point x="34.1903" y="600.044" type="line"/>
      <point x="34.2515" y="590.043" type="line"/>
      <point x="46.13" y="590.051" type="line" smooth="yes"/>
      <point x="76.2453" y="590.051"/>
      <point x="100.277" y="567.591"/>
      <point x="100.528" y="537.415" type="curve" smooth="yes"/>
      <point x="100.528" y="62.397" type="line" smooth="yes"/>
      <point x="99.9537" y="32.5735"/>
      <point x="76.6624" y="9.94357"/>
      <point x="46.7851" y="9.94357" type="curve" smooth="yes"/>
      <point x="34.9066" y="9.95177" type="line"/>
      <point x="34.8457" y="0" type="line"/>
      <point x="311.058" y="0" type="line"/>
      <point x="310.997" y="10" type="line"/>
      <point x="299.194" y="9.99237" type="line" smooth="yes"/>
      <point x="267.76" y="9.99237"/>
      <point x="245.647" y="32.8662"/>
      <point x="244.724" y="62.9742" type="curve"/>
      <point x="244.724" y="560.71" type="line"/>
      <point x="290.287" y="560.71" type="line" smooth="yes"/>
      <point x="363.994" y="560.71"/>
      <point x="408.252" y="514.449"/>
      <point x="410.393" y="441.429" type="curve" smooth="yes"/>
      <point x="410.833" y="426.227"/>
      <point x="408.75" y="405.388"/>
      <point x="404.607" y="388.643" type="curve" smooth="yes"/>
      <point x="374.213" y="276.221"/>
      <point x="276.438" y="287.488"/>
      <point x="276.42" y="287.488" type="curve"/>
      <point x="276.456" y="278.934" type="line"/>
      <point x="407.755" y="190.917"/>
      <point x="568.935" y="275.58"/>
      <point x="562.536" y="434.465" type="curve" smooth="yes"/>
      <point x="559.257" y="527.333"/>
      <point x="490.601" y="600.043"/>
      <point x="330.368" y="600.043" type="curve" smooth="yes"/>
    </contour>
  </outline>
</glyph>
<glyph name="q" format="1">
  <advance width="766"/>
  <unicode hex="0071"/>
  <outline>
    <contour>
      <point x="1158.7" y="-60" type="line"/>
      <point x="1066.47" y="-134"/>
      <point x="926.357" y="-139"/>
      <point x="767.714" y="-79" type="curve" smooth="yes"/>
      <point x="653.793" y="-36"/>
      <point x="589.088" y="-11"/>
      <point x="507.855" y="4.6744" type="curve"/>
      <point x="642.104" y="44.4314"/>
      <point x="725.025" y="149.984"/>
      <point x="725.025" y="299.658" type="curve" smooth="yes"/>
      <point x="725.025" y="493.159"/>
      <point x="587.374" y="612.743"/>
      <point x="379.643" y="612.743" type="curve" smooth="yes"/>
      <point x="172.561" y="612.743"/>
      <point x="34.911" y="493.159"/>
      <point x="34.911" y="299.658" type="curve" smooth="yes"/>
      <point x="34.911" y="106.815"/>
      <point x="172.561" y="-13"/>
      <point x="379.643" y="-13" type="curve" smooth="yes"/>
      <point x="383.101" y="-13" type="line"/>
      <point x="487.929" y="-23"/>
      <point x="578.918" y="-120"/>
      <point x="706.464" y="-187" type="curve" smooth="yes"/>
      <point x="962.373" y="-320"/>
      <point x="1158.36" y="-212"/>
      <point x="1163.8" y="-63" type="curve"/>
    </contour>
    <contour>
      <point x="188.507" y="468.949"/>
      <point x="263.024" y="573.439"/>
      <point x="379.643" y="573.439" type="curve" smooth="yes"/>
      <point x="496.911" y="573.439"/>
      <point x="571.427" y="468.949"/>
      <point x="571.427" y="299.658" type="curve" smooth="yes"/>
      <point x="571.427" y="131.024"/>
      <point x="496.911" y="26.537"/>
      <point x="379.643" y="26.537" type="curve" smooth="yes"/>
      <point x="263.024" y="26.537"/>
      <point x="188.507" y="131.024"/>
      <point x="188.507" y="299.658" type="curve" smooth="yes"/>
    </contour>
  </outline>
</glyph>
<glyph name="r" format="1">
  <advance width="657"/>
  <unicode hex="0072"/>
  <outline>
    <contour>
      <point x="41.046" y="600.043" type="line"/>
      <point x="41.1051" y="590" type="line"/>
      <point x="53.6927" y="590.007" type="line" smooth="yes"/>
      <point x="82.4935" y="590.007"/>
      <point x="105.809" y="568"/>
      <point x="106.323" y="538.045" type="curve" smooth="yes"/>
      <point x="106.323" y="62.1247" type="line" smooth="yes"/>
      <point x="105.619" y="32.3538"/>
      <point x="81.7807" y="9.99132"/>
      <point x="53.0937" y="9.99132" type="curve" smooth="yes"/>
      <point x="41.1127" y="9.99952" type="line"/>
      <point x="41.0533" y="0" type="line"/>
      <point x="316.359" y="0" type="line"/>
      <point x="316.3" y="9.99952" type="line"/>
      <point x="305.429" y="9.99132" type="line" smooth="yes"/>
      <point x="278.847" y="9.99132"/>
      <point x="251.22" y="29.7839"/>
      <point x="251.076" y="63.0365" type="curve"/>
      <point x="251.076" y="558.706" type="line"/>
      <point x="262.481" y="558.256"/>
      <point x="282.475" y="559.492"/>
      <point x="308.251" y="558.286" type="curve" smooth="yes"/>
      <point x="342.896" y="556.687"/>
      <point x="410.066" y="542.431"/>
      <point x="414.537" y="443.786" type="curve" smooth="yes"/>
      <point x="415.386" y="424.247"/>
      <point x="413.059" y="409.9"/>
      <point x="411.179" y="401.964" type="curve"/>
      <point x="394.447" y="317.942"/>
      <point x="348.716" y="302.501"/>
      <point x="307.287" y="301.95" type="curve" smooth="yes"/>
      <point x="281.682" y="301.79" type="line"/>
      <point x="281.682" y="293.575" type="line"/>
      <point x="300.112" y="292.083"/>
      <point x="324.863" y="274.15"/>
      <point x="341.572" y="232.286" type="curve"/>
      <point x="350.721" y="198.68"/>
      <point x="386.556" y="131.592"/>
      <point x="408.608" y="95.8929" type="curve" smooth="yes"/>
      <point x="456.146" y="20.9773"/>
      <point x="507.297" y="0"/>
      <point x="615.908" y="0" type="curve" smooth="yes"/>
      <point x="699.744" y="0" type="line"/>
      <point x="699.744" y="10.0176" type="line"/>
      <point x="658.526" y="10.1964"/>
      <point x="635.991" y="24.9687"/>
      <point x="596.929" y="78.1073" type="curve" smooth="yes"/>
      <point x="561.865" y="124.85"/>
      <point x="532.744" y="174.368"/>
      <point x="524.308" y="189.546" type="curve"/>
      <point x="505.57" y="220.297"/>
      <point x="467.404" y="262.586"/>
      <point x="427.797" y="274.646" type="curve"/>
      <point x="526.268" y="288.832"/>
      <point x="566.665" y="365.85"/>
      <point x="566.665" y="436.203" type="curve" smooth="yes"/>
      <point x="566.665" y="560.89"/>
      <point x="459.214" y="600"/>
      <point x="348.371" y="600.043" type="curve" smooth="yes"/>
    </contour>
    <contour>
      <point x="321.97" y="664.177" type="move" name="top"/>
    </contour>
    <contour>
      <point x="399.993" y="-64.343" type="move" name="bottom"/>
    </contour>
  </outline>
</glyph>
<glyph name="s" format="1">
  <advance width="514"/>
  <unicode hex="0073"/>
  <outline>
    <contour>
      <point x="231.391" y="415.583" type="line" smooth="yes"/>
      <point x="193.803" y="438.687"/>
      <point x="163.739" y="457.917"/>
      <point x="166.577" y="495.071" type="curve" smooth="yes"/>
      <point x="169.075" y="540.572"/>
      <point x="211.784" y="572.894"/>
      <point x="275.967" y="572.894" type="curve" smooth="yes"/>
      <point x="355.562" y="572.894"/>
      <point x="400.277" y="533.162"/>
      <point x="400.277" y="472.481" type="curve"/>
      <point x="408.773" y="472.481" type="line"/>
      <point x="422.776" y="603.603" type="line"/>
      <point x="368.532" y="603.603" type="line"/>
      <point x="327.003" y="608.765"/>
      <point x="271.941" y="612.743"/>
      <point x="238.516" y="612.743" type="curve" smooth="yes"/>
      <point x="136.701" y="612.743"/>
      <point x="66.5851" y="556.618"/>
      <point x="58.1136" y="461.321" type="curve" smooth="yes"/>
      <point x="50.5791" y="392.856"/>
      <point x="82.598" y="338.255"/>
      <point x="146.585" y="297.757" type="curve" smooth="yes"/>
      <point x="289" y="207.622" type="line" smooth="yes"/>
      <point x="340.225" y="175.202"/>
      <point x="363.712" y="152.156"/>
      <point x="363.712" y="117.667" type="curve" smooth="yes"/>
      <point x="363.712" y="68.6875"/>
      <point x="325.926" y="27.5199"/>
      <point x="247.971" y="26.9282" type="curve" smooth="yes"/>
      <point x="141.125" y="26.4695"/>
      <point x="76.9845" y="102.133"/>
      <point x="82.7371" y="192.654" type="curve"/>
      <point x="74.9072" y="192.654" type="line"/>
      <point x="50.748" y="154.874"/>
      <point x="37.0466" y="78.5595"/>
      <point x="52.416" y="40.4171" type="curve"/>
      <point x="81.1913" y="9.324"/>
      <point x="150.584" y="-13"/>
      <point x="236.785" y="-13" type="curve" smooth="yes"/>
      <point x="375.859" y="-13"/>
      <point x="465.629" y="55.1291"/>
      <point x="471.792" y="168.25" type="curve" smooth="yes"/>
      <point x="476.3" y="239.52"/>
      <point x="440.542" y="287.024"/>
      <point x="389.513" y="318.39" type="curve" smooth="yes"/>
    </contour>
    <contour>
      <point x="265.429" y="664" type="move" name="top"/>
    </contour>
    <contour>
      <point x="260.676" y="-64" type="move" name="bottom"/>
    </contour>
  </outline>
</glyph>
<glyph name="t" format="1">
  <advance width="599"/>
  <unicode hex="0074"/>
  <outline>
    <contour>
      <point x="589.345" y="616.295" type="line"/>
      <point x="576.459" y="609.952"/>
      <point x="521.662" y="600.972"/>
      <point x="484.227" y="600.972" type="curve" smooth="yes"/>
      <point x="115.14" y="600.961" type="line" smooth="yes"/>
      <point x="77.8261" y="600.972"/>
      <point x="26.6744" y="609.952"/>
      <point x="10.1426" y="616.294" type="curve"/>
      <point x="10.1426" y="457.642" type="line"/>
      <point x="20.4085" y="457.687" type="line"/>
      <point x="20.4015" y="467.003" type="line"/>
      <point x="20.4015" y="523.994"/>
      <point x="53.4748" y="560.14"/>
      <point x="111.909" y="560.979" type="curve" smooth="yes"/>
      <point x="227.431" y="560.979" type="line"/>
      <point x="227.431" y="63.1018" type="line" smooth="yes"/>
      <point x="226.568" y="32.9298"/>
      <point x="202.423" y="9.9911"/>
      <point x="172.243" y="9.9911" type="curve" smooth="yes"/>
      <point x="161.646" y="9.9993" type="line"/>
      <point x="161.593" y="0" type="line"/>
      <point x="437.922" y="0" type="line"/>
      <point x="437.869" y="9.9993" type="line"/>
      <point x="427.271" y="9.9911" type="line" smooth="yes"/>
      <point x="397.398" y="9.9911"/>
      <point x="372.806" y="32.467"/>
      <point x="372.102" y="62.1863" type="curve"/>
      <point x="372.102" y="560.985" type="line"/>
      <point x="487.579" y="560.985" type="line" smooth="yes"/>
      <point x="546.013" y="560.141"/>
      <point x="579.497" y="523.995"/>
      <point x="579.099" y="467.004" type="curve" smooth="yes"/>
      <point x="579.092" y="457.688" type="line"/>
      <point x="589.345" y="457.643" type="line"/>
    </contour>
    <contour>
      <point x="302.485" y="322.694" type="move" name="center"/>
    </contour>
    <contour>
      <point x="301.229" y="0.607143" type="move" name="bottom"/>
    </contour>
  </outline>
</glyph>
<glyph name="v" format="1">
  <advance width="636"/>
  <unicode hex="0076"/>
  <outline>
    <contour>
      <point x="465.634" y="600.041" type="line"/>
      <point x="465.634" y="590.8" type="line"/>
      <point x="473.89" y="590.8" type="line" smooth="yes"/>
      <point x="496.568" y="590.8"/>
      <point x="522.361" y="570.25"/>
      <point x="507.327" y="533.952" type="curve" smooth="yes"/>
      <point x="364.331" y="208.621" type="line"/>
      <point x="224.233" y="533.952" type="line"/>
      <point x="210.468" y="570.25"/>
      <point x="235.792" y="590.8"/>
      <point x="258.47" y="590.8" type="curve" smooth="yes"/>
      <point x="266.098" y="590.8" type="line"/>
      <point x="266.098" y="600.041" type="line"/>
      <point x="-27" y="600.041" type="line"/>
      <point x="-27" y="590.041" type="line"/>
      <point x="-20" y="590.041" type="line" smooth="yes"/>
      <point x="6.3128" y="590.041"/>
      <point x="36.3019" y="575.164"/>
      <point x="55.9434" y="537.004" type="curve" smooth="yes"/>
      <point x="321.963" y="-13" type="line"/>
      <point x="330.828" y="-13" type="line"/>
      <point x="333.564" y="16.0508"/>
      <point x="370.481" y="94.075"/>
      <point x="377.391" y="109.134" type="curve" smooth="yes"/>
      <point x="580.835" y="538.906" type="line"/>
      <point x="600.099" y="575.659"/>
      <point x="631.239" y="590.041"/>
      <point x="657.05" y="590.041" type="curve" smooth="yes"/>
      <point x="664.678" y="590.041" type="line"/>
      <point x="664.678" y="600.041" type="line"/>
    </contour>
  </outline>
</glyph>
<glyph name="w" format="1">
  <advance width="869"/>
  <unicode hex="0077"/>
  <outline>
    <contour>
      <point x="703.286" y="599.972" type="line"/>
      <point x="703.286" y="590.008" type="line"/>
      <point x="710.802" y="590.008" type="line" smooth="yes"/>
      <point x="733.794" y="590.008"/>
      <point x="753.501" y="572.654"/>
      <point x="742.942" y="535.313" type="curve" smooth="yes"/>
      <point x="662.282" y="260.911" type="line"/>
      <point x="487.075" y="613.857" type="line"/>
      <point x="478.856" y="613.969" type="line"/>
      <point x="320.56" y="262.644" type="line"/>
      <point x="217.427" y="535.104" type="line" smooth="yes"/>
      <point x="204.16" y="572.446"/>
      <point x="227.859" y="590.008"/>
      <point x="249.578" y="590.008" type="curve" smooth="yes"/>
      <point x="257.732" y="590.008" type="line"/>
      <point x="257.732" y="599.972" type="line"/>
      <point x="-23" y="599.972" type="line"/>
      <point x="-23" y="589.976" type="line"/>
      <point x="-15" y="589.976" type="line" smooth="yes"/>
      <point x="15.8098" y="589.976"/>
      <point x="45.7482" y="573.338"/>
      <point x="60.9095" y="539.067" type="curve"/>
      <point x="273.784" y="-11" type="line"/>
      <point x="282.689" y="-11" type="line"/>
      <point x="283.354" y="37.2532"/>
      <point x="305.793" y="89.7686"/>
      <point x="305.793" y="89.7686" type="curve"/>
      <point x="440.794" y="382.876" type="line"/>
      <point x="636.234" y="-11" type="line"/>
      <point x="645.138" y="-11" type="line"/>
      <point x="641.942" y="33.4448"/>
      <point x="660.976" y="89.7689"/>
      <point x="660.976" y="89.7689" type="curve"/>
      <point x="808.979" y="543.469" type="line"/>
      <point x="823.567" y="574.764"/>
      <point x="854.374" y="589.976"/>
      <point x="883.887" y="589.976" type="curve" smooth="yes"/>
      <point x="891.403" y="589.976" type="line"/>
      <point x="891.403" y="599.972" type="line"/>
    </contour>
    <contour>
      <point x="478.078" y="664.645" type="move" name="top"/>
    </contour>
  </outline>
</glyph>
<glyph name="x" format="1">
  <advance width="650"/>
  <unicode hex="0078"/>
  <outline>
    <contour>
      <point x="657.806" y="10" type="line" smooth="yes"/>
      <point x="622.075" y="10"/>
      <point x="589.223" y="30.7375"/>
      <point x="571.387" y="55.4954" type="curve"/>
      <point x="398.124" y="323.604" type="line"/>
      <point x="550.722" y="546.439" type="line"/>
      <point x="569.523" y="571.032"/>
      <point x="601.435" y="590.992"/>
      <point x="636.061" y="590.992" type="curve" smooth="yes"/>
      <point x="648.622" y="590.992" type="line"/>
      <point x="648.622" y="600.992" type="line"/>
      <point x="429.844" y="600.992" type="line"/>
      <point x="429.844" y="590.992" type="line"/>
      <point x="440.654" y="590.992" type="line" smooth="yes"/>
      <point x="464.892" y="590.992"/>
      <point x="486.179" y="563.549"/>
      <point x="470.82" y="539.623" type="curve" smooth="yes"/>
      <point x="364.268" y="375.993" type="line"/>
      <point x="258.382" y="539.841" type="line" smooth="yes"/>
      <point x="243.716" y="563.765"/>
      <point x="265.065" y="590.992"/>
      <point x="289.302" y="590.992" type="curve" smooth="yes"/>
      <point x="300.113" y="590.992" type="line"/>
      <point x="300.112" y="600.992" type="line"/>
      <point x="-8" y="600.992" type="line"/>
      <point x="-8" y="590.992" type="line"/>
      <point x="4.00617" y="590.992" type="line" smooth="yes"/>
      <point x="38.648" y="590.992"/>
      <point x="71.6248" y="570.757"/>
      <point x="89.6694" y="546.4" type="curve"/>
      <point x="255.985" y="287.675" type="line"/>
      <point x="78.278" y="53.8663" type="line"/>
      <point x="57.7894" y="29.9042"/>
      <point x="27.9768" y="10"/>
      <point x="-7" y="10" type="curve" smooth="yes"/>
      <point x="-19" y="10" type="line"/>
      <point x="-19" y="0" type="line"/>
      <point x="200.778" y="0" type="line"/>
      <point x="200.778" y="10" type="line"/>
      <point x="189.968" y="10" type="line" smooth="yes"/>
      <point x="165.73" y="10"/>
      <point x="142.433" y="37.4428"/>
      <point x="159.802" y="61.369" type="curve" smooth="yes"/>
      <point x="288.254" y="237.477" type="line"/>
      <point x="401.6" y="61.1526" type="line" smooth="yes"/>
      <point x="416.3" y="37.2282"/>
      <point x="394.952" y="10"/>
      <point x="370.715" y="10" type="curve" smooth="yes"/>
      <point x="359.904" y="10" type="line"/>
      <point x="359.904" y="0" type="line"/>
      <point x="669.613" y="0" type="line"/>
      <point x="669.613" y="10" type="line"/>
    </contour>
  </outline>
</glyph>
<glyph name="y" format="1">
  <advance width="635"/>
  <unicode hex="0079"/>
  <outline>
    <contour>
      <point x="454.616" y="600.042" type="line"/>
      <point x="454.616" y="590.042" type="line"/>
      <point x="465.428" y="590.042" type="line" smooth="yes"/>
      <point x="490.384" y="590.042"/>
      <point x="508.893" y="564.758"/>
      <point x="497.664" y="540.561" type="curve"/>
      <point x="362.684" y="311.12" type="line"/>
      <point x="229.686" y="540.751" type="line"/>
      <point x="219.047" y="564.337"/>
      <point x="236.344" y="590.042"/>
      <point x="261.884" y="590.042" type="curve" smooth="yes"/>
      <point x="272.697" y="590.042" type="line"/>
      <point x="272.697" y="600.042" type="line"/>
      <point x="-31" y="600.042" type="line"/>
      <point x="-31" y="590.042" type="line"/>
      <point x="-19" y="590.042" type="line" smooth="yes"/>
      <point x="17.8716" y="590.042"/>
      <point x="50.8466" y="568.684"/>
      <point x="68.9579" y="540.922" type="curve" smooth="yes"/>
      <point x="245.556" y="267.143" type="line"/>
      <point x="245.556" y="63.1124" type="line" smooth="yes"/>
      <point x="245.315" y="32.9361"/>
      <point x="220.02" y="9.99227"/>
      <point x="189.843" y="9.99227" type="curve" smooth="yes"/>
      <point x="178.379" y="10" type="line"/>
      <point x="178.322" y="0" type="line"/>
      <point x="457.668" y="0" type="line"/>
      <point x="457.619" y="10" type="line"/>
      <point x="446.468" y="9.99227" type="line" smooth="yes"/>
      <point x="415.657" y="9.99227"/>
      <point x="390.994" y="32.9361"/>
      <point x="390.128" y="63.1124" type="curve"/>
      <point x="390.128" y="266.619" type="line"/>
      <point x="567.563" y="540.725" type="line"/>
      <point x="586.032" y="567.094"/>
      <point x="618.978" y="590.043"/>
      <point x="656.075" y="590.043" type="curve" smooth="yes"/>
      <point x="668.653" y="590.043" type="line"/>
      <point x="668.653" y="600.043" type="line"/>
    </contour>
    <contour>
      <point x="357.715" y="664" type="move" name="top"/>
    </contour>
  </outline>
</glyph>
<glyph name="z" format="1">
  <advance width="606"/>
  <unicode hex="007A"/>
  <outline>
    <contour>
      <point x="582.143" y="183.667" type="line"/>
      <point x="553.526" y="94.9065"/>
      <point x="494.721" y="40.1468"/>
      <point x="403.359" y="39.329" type="curve" smooth="yes"/>
      <point x="229.855" y="39.329" type="line"/>
      <point x="554.574" y="605.097" type="line"/>
      <point x="554.574" y="612.721" type="line"/>
      <point x="543.049" y="607.279"/>
      <point x="490.814" y="600.995"/>
      <point x="452.213" y="600.995" type="curve" smooth="yes"/>
      <point x="158.115" y="600.995" type="line" smooth="yes"/>
      <point x="119.6" y="601.258"/>
      <point x="65.4018" y="609.232"/>
      <point x="48.734" y="616.229" type="curve"/>
      <point x="48.734" y="457.599" type="line"/>
      <point x="59.018" y="457.644" type="line"/>
      <point x="59.0093" y="466.305" type="line"/>
      <point x="59.0093" y="523.51"/>
      <point x="92.3851" y="560.187"/>
      <point x="150.294" y="560.926" type="curve" smooth="yes"/>
      <point x="363.928" y="560.926" type="line"/>
      <point x="34.9046" y="8.50641" type="line"/>
      <point x="34.8216" y="0" type="line"/>
      <point x="549.101" y="0" type="line"/>
      <point x="592.411" y="183.667" type="line"/>
    </contour>
    <contour>
      <point x="310.839" y="664" type="move" name="top"/>
    </contour>
  </outline>
</glyph>
<glyph name="braceleft" format="1">
  <advance width="379"/>
  <unicode hex="007B"/>
  <outline>
    <contour>
      <point x="85" y="314.472" type="line"/>
      <point x="101.271" y="312.929"/>
      <point x="122.45" y="308.365"/>
      <point x="128.954" y="291.809" type="curve" smooth="yes"/>
      <point x="139.806" y="264.225"/>
      <point x="111.771" y="184.233"/>
      <point x="112.039" y="111.684" type="curve" smooth="yes"/>
      <point x="112.533" y="-1"/>
      <point x="169.424" y="-100"/>
      <point x="338.381" y="-100" type="curve"/>
      <point x="340.066" y="-92" type="line"/>
      <point x="246.822" y="-68"/>
      <point x="262.463" y="10.208"/>
      <point x="262.32" y="112.423" type="curve" smooth="yes"/>
      <point x="261.713" y="245.703"/>
      <point x="232.043" y="296.572"/>
      <point x="158.786" y="316.39" type="curve"/>
      <point x="231.348" y="338.376"/>
      <point x="261.698" y="371.031"/>
      <point x="262.32" y="528.641" type="curve" smooth="yes"/>
      <point x="262.462" y="627.562"/>
      <point x="260.179" y="700.913"/>
      <point x="352.209" y="724.78" type="curve"/>
      <point x="350.524" y="732.78" type="line"/>
      <point x="181.567" y="732.913"/>
      <point x="112.533" y="635.037"/>
      <point x="112.039" y="519.409" type="curve" smooth="yes"/>
      <point x="111.771" y="449.895"/>
      <point x="142.076" y="365.093"/>
      <point x="131.679" y="339.841" type="curve"/>
      <point x="124.096" y="324.718"/>
      <point x="102.583" y="324.595"/>
      <point x="85" y="324.472" type="curve"/>
    </contour>
  </outline>
</glyph>
<glyph name="braceright" format="1">
  <advance width="379"/>
  <unicode hex="007D"/>
  <outline>
    <contour>
      <point x="27.8571" y="724.78" type="line"/>
      <point x="119.888" y="700.914"/>
      <point x="117.604" y="627.562"/>
      <point x="117.747" y="528.641" type="curve" smooth="yes"/>
      <point x="118.369" y="371.031"/>
      <point x="148.718" y="338.376"/>
      <point x="221.281" y="316.39" type="curve"/>
      <point x="148.023" y="296.572"/>
      <point x="118.353" y="245.703"/>
      <point x="117.747" y="112.423" type="curve" smooth="yes"/>
      <point x="117.604" y="10.2081"/>
      <point x="133.245" y="-68"/>
      <point x="40" y="-92" type="curve"/>
      <point x="41.685" y="-100" type="line"/>
      <point x="210.642" y="-100"/>
      <point x="267.533" y="-1"/>
      <point x="268.028" y="111.684" type="curve" smooth="yes"/>
      <point x="268.295" y="184.234"/>
      <point x="240.26" y="264.226"/>
      <point x="251.112" y="291.81" type="curve" smooth="yes"/>
      <point x="257.616" y="308.366"/>
      <point x="278.796" y="312.929"/>
      <point x="295.066" y="314.472" type="curve"/>
      <point x="295.066" y="324.472" type="line"/>
      <point x="277.483" y="324.595"/>
      <point x="255.971" y="324.718"/>
      <point x="248.388" y="339.841" type="curve"/>
      <point x="237.991" y="365.093"/>
      <point x="268.295" y="449.895"/>
      <point x="268.028" y="519.409" type="curve" smooth="yes"/>
      <point x="267.533" y="635.037"/>
      <point x="198.499" y="732.913"/>
      <point x="29.542" y="732.78" type="curve"/>
    </contour>
  </outline>
</glyph>
<glyph name="asciitilde" format="1">
  <advance width="493"/>
  <unicode hex="007E"/>
  <outline>
    <contour>
      <point x="399.149" y="358.724" type="line"/>
      <point x="423.867" y="297.808"/>
      <point x="386.406" y="263.521"/>
      <point x="345.864" y="264.775" type="curve" smooth="yes"/>
      <point x="296.771" y="266.293"/>
      <point x="213.236" y="365.105"/>
      <point x="140.183" y="363.723" type="curve" smooth="yes"/>
      <point x="74.829" y="362.486"/>
      <point x="14.3173" y="312.661"/>
      <point x="35.0336" y="212.635" type="curve"/>
      <point x="92.4254" y="212.635" type="line"/>
      <point x="77.9707" y="282.05"/>
      <point x="104.999" y="308.234"/>
      <point x="140.013" y="306.588" type="curve" smooth="yes"/>
      <point x="196.671" y="303.925"/>
      <point x="273.533" y="207.635"/>
      <point x="345.676" y="207.635" type="curve" smooth="yes"/>
      <point x="415.118" y="207.635"/>
      <point x="485.082" y="254.903"/>
      <point x="457.752" y="358.724" type="curve"/>
    </contour>
  </outline>
</glyph>
<glyph name="exclamdown" format="1">
  <advance width="269"/>
  <unicode hex="00A1"/>
  <outline>
    <contour>
      <point x="96.1707" y="711.673"/>
      <point x="63.7916" y="679.294"/>
      <point x="63.7916" y="639.352" type="curve" smooth="yes"/>
      <point x="63.7916" y="599.409"/>
      <point x="96.1707" y="567.03"/>
      <point x="136.113" y="567.03" type="curve" smooth="yes"/>
      <point x="176.055" y="567.03"/>
      <point x="208.434" y="599.409"/>
      <point x="208.434" y="639.352" type="curve" smooth="yes"/>
      <point x="208.434" y="679.294"/>
      <point x="176.055" y="711.673"/>
      <point x="136.113" y="711.673" type="curve" smooth="yes"/>
    </contour>
    <contour>
      <point x="76.4" y="322.931" type="line"/>
      <point x="58.0531" y="0" type="line"/>
      <point x="211.981" y="0" type="line"/>
      <point x="193.665" y="322.931" type="line"/>
      <point x="158.603" y="494.066" type="line"/>
      <point x="112.175" y="494.066" type="line"/>
    </contour>
  </outline>
</glyph>
<glyph name="cent" format="1">
  <advance width="587"/>
  <unicode hex="00A2"/>
  <outline>
    <contour>
      <point x="545.349" y="304.312" type="line"/>
      <point x="538.814" y="304.302" type="line"/>
      <point x="517.853" y="166.259"/>
      <point x="466.673" y="116.754"/>
      <point x="350.765" y="114.743" type="curve"/>
      <point x="388.758" y="576.826" type="line"/>
      <point x="452.143" y="568.158"/>
      <point x="502.663" y="532.408"/>
      <point x="527.377" y="440.561" type="curve"/>
      <point x="533.912" y="440.552" type="line"/>
      <point x="533.912" y="577.791" type="line"/>
      <point x="500.481" y="595.004"/>
      <point x="449.809" y="609.555"/>
      <point x="391.887" y="614.883" type="curve"/>
      <point x="398.859" y="699.677" type="line"/>
      <point x="358.015" y="700.726" type="line"/>
      <point x="351.291" y="617.011" type="line"/>
      <point x="149.738" y="617.098"/>
      <point x="28.7503" y="518.45"/>
      <point x="28.7503" y="347.216" type="curve" smooth="yes"/>
      <point x="28.7503" y="189.046"/>
      <point x="136.482" y="90.8101"/>
      <point x="308.007" y="78.0987" type="curve"/>
      <point x="301.253" y="-6" type="line"/>
      <point x="340.592" y="-9" type="line"/>
      <point x="347.64" y="76.7145" type="line"/>
      <point x="456.132" y="77.6318"/>
      <point x="523.634" y="119.871"/>
      <point x="555.978" y="174.028" type="curve"/>
    </contour>
    <contour>
      <point x="311.233" y="118.266" type="line"/>
      <point x="219.743" y="136.165"/>
      <point x="171.172" y="218.389"/>
      <point x="171.429" y="349.332" type="curve"/>
      <point x="171.147" y="492.382"/>
      <point x="228.533" y="576.815"/>
      <point x="348.238" y="579" type="curve"/>
    </contour>
    <contour>
      <point x="247.351" y="-5.36309" type="move" name="bottom"/>
    </contour>
  </outline>
</glyph>
<glyph name="sterling" format="1">
  <advance width="603"/>
  <unicode hex="00A3"/>
  <outline>
    <contour>
      <point x="579.155" y="195.831" type="line"/>
      <point x="523.472" y="84.072"/>
      <point x="422.829" y="51.9291"/>
      <point x="328.865" y="60.1434" type="curve" smooth="yes"/>
      <point x="256.351" y="66.2624"/>
      <point x="201.365" y="83.7505"/>
      <point x="148.307" y="65.8344" type="curve"/>
      <point x="221.172" y="96.6318"/>
      <point x="281.969" y="143.515"/>
      <point x="283.486" y="322.682" type="curve"/>
      <point x="446.584" y="322.682" type="line"/>
      <point x="464.309" y="370.686" type="line"/>
      <point x="282.586" y="370.686" type="line"/>
      <point x="274.027" y="550.704"/>
      <point x="286.615" y="665.323"/>
      <point x="399.199" y="671.858" type="curve" smooth="yes"/>
      <point x="470.183" y="675.491"/>
      <point x="508.131" y="632.915"/>
      <point x="506.322" y="535.146" type="curve"/>
      <point x="516.322" y="535.146" type="line"/>
      <point x="555.814" y="656.703" type="line"/>
      <point x="527.686" y="692.608"/>
      <point x="464.936" y="720"/>
      <point x="376.865" y="714" type="curve" smooth="yes"/>
      <point x="179.684" y="700.233"/>
      <point x="124.337" y="551.954"/>
      <point x="130.306" y="370.686" type="curve"/>
      <point x="53.3371" y="370.686" type="line"/>
      <point x="38.0404" y="322.682" type="line"/>
      <point x="130.688" y="322.682" type="line"/>
      <point x="127.514" y="152.225"/>
      <point x="75.7487" y="49.3351"/>
      <point x="40.8795" y="3.92071" type="curve"/>
      <point x="40.8795" y="-6" type="line"/>
      <point x="50.8795" y="-6" type="line"/>
      <point x="61.0431" y="4.71471"/>
      <point x="107.757" y="22.6076"/>
      <point x="125.865" y="24" type="curve" smooth="yes"/>
      <point x="188.865" y="30.3219"/>
      <point x="237.865" y="4"/>
      <point x="326.865" y="-8" type="curve" smooth="yes"/>
      <point x="379.865" y="-15"/>
      <point x="478.15" y="-6"/>
      <point x="543.722" y="24" type="curve"/>
      <point x="589.155" y="195.831" type="line"/>
    </contour>
  </outline>
</glyph>
<glyph name="yen" format="1">
  <advance width="702"/>
  <unicode hex="00A5"/>
  <outline>
    <contour>
      <point x="495.795" y="700.017" type="line"/>
      <point x="495.795" y="689.993" type="line"/>
      <point x="508.395" y="689.993" type="line" smooth="yes"/>
      <point x="535.605" y="689.993"/>
      <point x="559.406" y="656.483"/>
      <point x="543.504" y="628.139" type="curve" smooth="yes"/>
      <point x="394.672" y="368.148" type="line"/>
      <point x="252.214" y="628.175" type="line" smooth="yes"/>
      <point x="237.704" y="656.514"/>
      <point x="258.13" y="690.034"/>
      <point x="287.326" y="690.034" type="curve" smooth="yes"/>
      <point x="299.925" y="690.034" type="line"/>
      <point x="299.925" y="700" type="line"/>
      <point x="-31" y="700" type="line"/>
      <point x="-31" y="690.034" type="line"/>
      <point x="-17" y="690.034" type="line" smooth="yes"/>
      <point x="23.7288" y="690.034"/>
      <point x="62.667" y="662.94"/>
      <point x="82.2611" y="632.644" type="curve" smooth="yes"/>
      <point x="210.658" y="420.981" type="line"/>
      <point x="100.233" y="420.981" type="line"/>
      <point x="100.233" y="378.838" type="line"/>
      <point x="236.222" y="378.838" type="line"/>
      <point x="272.731" y="318.652" type="line"/>
      <point x="272.731" y="307.051" type="line"/>
      <point x="100.233" y="307.051" type="line"/>
      <point x="100.233" y="264.909" type="line"/>
      <point x="272.731" y="264.909" type="line"/>
      <point x="272.731" y="72.8135" type="line" smooth="yes"/>
      <point x="272.05" y="38.0017"/>
      <point x="243.663" y="9.97865"/>
      <point x="208.678" y="9.97865" type="curve" smooth="yes"/>
      <point x="196.028" y="9.99965" type="line"/>
      <point x="195.867" y="0" type="line"/>
      <point x="499.614" y="0" type="line"/>
      <point x="499.453" y="9.99965" type="line"/>
      <point x="486.803" y="9.97865" type="line" smooth="yes"/>
      <point x="451.801" y="9.97865"/>
      <point x="423.404" y="38.0286"/>
      <point x="422.749" y="72.8636" type="curve"/>
      <point x="422.749" y="264.909" type="line"/>
      <point x="594.067" y="264.909" type="line"/>
      <point x="594.067" y="307.052" type="line"/>
      <point x="422.749" y="307.052" type="line"/>
      <point x="422.749" y="318.106" type="line"/>
      <point x="460.893" y="378.838" type="line"/>
      <point x="594.067" y="378.838" type="line"/>
      <point x="594.067" y="420.981" type="line"/>
      <point x="487.361" y="420.981" type="line"/>
      <point x="619.629" y="631.576" type="line" smooth="yes"/>
      <point x="640.353" y="662.306"/>
      <point x="678.349" y="689.993"/>
      <point x="720.184" y="689.993" type="curve" smooth="yes"/>
      <point x="734.184" y="689.993" type="line"/>
      <point x="734.186" y="700.017" type="line"/>
    </contour>
  </outline>
</glyph>
<glyph name="brokenbar" format="1">
  <advance width="257"/>
  <unicode hex="00A6"/>
  <outline>
    <contour>
      <point x="100" y="350" type="line"/>
      <point x="157.143" y="350" type="line"/>
      <point x="157.143" y="700" type="line"/>
      <point x="100" y="700" type="line"/>
    </contour>
    <contour>
      <point x="100" y="-180" type="line"/>
      <point x="157.143" y="-180" type="line"/>
      <point x="157.143" y="170" type="line"/>
      <point x="100" y="170" type="line"/>
    </contour>
  </outline>
</glyph>
<glyph name="section" format="1">
  <advance width="526"/>
  <unicode hex="00A7"/>
  <outline>
    <contour>
      <point x="90.212" y="702.676"/>
      <point x="-84" y="397.848"/>
      <point x="158.343" y="159.964" type="curve" smooth="yes"/>
      <point x="292.932" y="28.4417"/>
      <point x="359.28" y="-48"/>
      <point x="303.343" y="-91" type="curve" smooth="yes"/>
      <point x="224.174" y="-151"/>
      <point x="136.79" y="43.8256"/>
      <point x="77.3426" y="-41" type="curve"/>
      <point x="35.3332" y="-95"/>
      <point x="111.983" y="-164"/>
      <point x="229.68" y="-156" type="curve" smooth="yes"/>
      <point x="473.827" y="-145"/>
      <point x="591.603" y="156.616"/>
      <point x="365.736" y="403.427" type="curve" smooth="yes"/>
      <point x="266.413" y="507.838"/>
      <point x="172.01" y="605"/>
      <point x="233.843" y="650.534" type="curve" smooth="yes"/>
      <point x="312.846" y="708.664"/>
      <point x="388.298" y="520.187"/>
      <point x="448.093" y="600.463" type="curve"/>
      <point x="488.426" y="649.876"/>
      <point x="426.319" y="720.806"/>
      <point x="310.086" y="712.857" type="curve" smooth="yes"/>
    </contour>
    <contour>
      <point x="139.408" y="474.687"/>
      <point x="172.071" y="426.392"/>
      <point x="285.343" y="310.321" type="curve" smooth="yes"/>
      <point x="398.86" y="194.908"/>
      <point x="444.893" y="92.9867"/>
      <point x="385.424" y="-19" type="curve"/>
      <point x="403.269" y="72.5025"/>
      <point x="335.902" y="158.226"/>
      <point x="237.343" y="253.463" type="curve" smooth="yes"/>
      <point x="122.035" y="364.375"/>
      <point x="83.9506" y="458.988"/>
      <point x="142.966" y="582.915" type="curve"/>
    </contour>
  </outline>
</glyph>
<glyph name="dieresis" format="1">
  <advance width="600"/>
  <unicode hex="00A8"/>
  <outline>
    <contour>
      <point x="196.965" y="679.083"/>
      <point x="223.868" y="705.986"/>
      <point x="223.868" y="739.174" type="curve" smooth="yes"/>
      <point x="223.868" y="772.363"/>
      <point x="196.965" y="799.266"/>
      <point x="163.777" y="799.266" type="curve" smooth="yes"/>
      <point x="130.588" y="799.266"/>
      <point x="103.686" y="772.363"/>
      <point x="103.686" y="739.174" type="curve" smooth="yes"/>
      <point x="103.686" y="705.986"/>
      <point x="130.588" y="679.083"/>
      <point x="163.777" y="679.083" type="curve" smooth="yes"/>
    </contour>
    <contour>
      <point x="430.403" y="679.083"/>
      <point x="457.306" y="705.986"/>
      <point x="457.306" y="739.174" type="curve" smooth="yes"/>
      <point x="457.306" y="772.363"/>
      <point x="430.403" y="799.266"/>
      <point x="397.215" y="799.266" type="curve" smooth="yes"/>
      <point x="364.026" y="799.266"/>
      <point x="337.124" y="772.363"/>
      <point x="337.124" y="739.174" type="curve" smooth="yes"/>
      <point x="337.124" y="705.986"/>
      <point x="364.026" y="679.083"/>
      <point x="397.215" y="679.083" type="curve" smooth="yes"/>
    </contour>
    <contour>
      <point x="282.653" y="684.214" type="move" name="_top"/>
    </contour>
  </outline>
</glyph>
<glyph name="copyright" format="1">
  <advance width="848"/>
  <unicode hex="00A9"/>
  <outline>
    <contour>
      <point x="222.966" y="714"/>
      <point x="60" y="551.034"/>
      <point x="60" y="350" type="curve" smooth="yes"/>
      <point x="60" y="148.966"/>
      <point x="222.966" y="-14"/>
      <point x="424" y="-14" type="curve" smooth="yes"/>
      <point x="625.034" y="-14"/>
      <point x="788" y="148.966"/>
      <point x="788" y="350" type="curve" smooth="yes"/>
      <point x="788" y="551.034"/>
      <point x="625.034" y="714"/>
      <point x="424" y="714" type="curve" smooth="yes"/>
    </contour>
    <contour>
      <point x="599.469" y="668.057"/>
      <point x="742.058" y="525.468"/>
      <point x="741.954" y="349.999" type="curve" smooth="yes"/>
      <point x="742.058" y="174.53"/>
      <point x="599.469" y="31.9414"/>
      <point x="424" y="32.0458" type="curve" smooth="yes"/>
      <point x="248.531" y="31.9414"/>
      <point x="105.942" y="174.53"/>
      <point x="106.046" y="349.999" type="curve"/>
      <point x="105.942" y="525.468"/>
      <point x="248.531" y="668.057"/>
      <point x="424" y="667.953" type="curve" smooth="yes"/>
    </contour>
    <contour>
      <point x="612.434" y="321.852" type="line"/>
      <point x="599.661" y="214.311"/>
      <point x="532.657" y="162.878"/>
      <point x="439.093" y="162.76" type="curve" smooth="yes"/>
      <point x="355.185" y="163.54"/>
      <point x="299.854" y="237.5"/>
      <point x="299.964" y="349.982" type="curve"/>
      <point x="299.854" y="463.539"/>
      <point x="354.45" y="537.712"/>
      <point x="437.114" y="537.778" type="curve" smooth="yes"/>
      <point x="518.969" y="537.848"/>
      <point x="574.786" y="493.044"/>
      <point x="601.906" y="417.641" type="curve"/>
      <point x="607.821" y="417.618" type="line"/>
      <point x="605.625" y="530.135" type="line"/>
      <point x="559.586" y="557.531"/>
      <point x="491.063" y="573.06"/>
      <point x="433.645" y="573.154" type="curve" smooth="yes"/>
      <point x="294.195" y="573.06"/>
      <point x="191.289" y="477.81"/>
      <point x="191.294" y="350.258" type="curve" smooth="yes"/>
      <point x="191.289" y="223.669"/>
      <point x="293.588" y="127.811"/>
      <point x="432.394" y="126.845" type="curve" smooth="yes"/>
      <point x="517.897" y="126.845"/>
      <point x="586.928" y="161.666"/>
      <point x="630.033" y="218.479" type="curve"/>
      <point x="618.348" y="321.877" type="line"/>
    </contour>
  </outline>
</glyph>
<glyph name="ordfeminine" format="1">
  <advance width="381"/>
  <unicode hex="00AA"/>
  <outline>
    <contour>
      <point x="188.076" y="711.297" type="line"/>
      <point x="183.448" y="711.298" type="line"/>
      <point x="181.681" y="695.503"/>
      <point x="161.368" y="652.461"/>
      <point x="157.03" y="642.773" type="curve" smooth="yes"/>
      <point x="42.7668" y="409.217" type="line"/>
      <point x="31.7093" y="390.169"/>
      <point x="15.6079" y="382.188"/>
      <point x="1.10799" y="382.188" type="curve" smooth="yes"/>
      <point x="-3" y="382.188" type="line"/>
      <point x="-3" y="377.267" type="line"/>
      <point x="110.249" y="377.267" type="line"/>
      <point x="110.249" y="382.143" type="line"/>
      <point x="105.906" y="382.143" type="line" smooth="yes"/>
      <point x="93.1552" y="382.143"/>
      <point x="77.996" y="393.341"/>
      <point x="87.0723" y="413.034" type="curve" smooth="yes"/>
      <point x="107.422" y="457.398" type="line"/>
      <point x="215.717" y="457.398" type="line"/>
      <point x="235.797" y="411.296" type="line"/>
      <point x="242.675" y="392.684"/>
      <point x="228.617" y="382.145"/>
      <point x="216.246" y="382.145" type="curve" smooth="yes"/>
      <point x="211.903" y="382.145" type="line"/>
      <point x="211.903" y="377.268" type="line"/>
      <point x="384.512" y="377.268" type="line"/>
      <point x="384.512" y="382.189" type="line"/>
      <point x="380.382" y="382.189" type="line" smooth="yes"/>
      <point x="365.871" y="382.189"/>
      <point x="350.16" y="390.539"/>
      <point x="338.472" y="410.541" type="curve"/>
    </contour>
    <contour>
      <point x="119.034" y="482.59" type="line"/>
      <point x="163.103" y="578.198" type="line"/>
      <point x="204.744" y="482.59" type="line"/>
    </contour>
  </outline>
</glyph>
<glyph name="guillemotleft" format="1">
  <advance width="506"/>
  <unicode hex="00AB"/>
  <outline>
    <contour>
      <point x="245.159" y="489.715" type="line"/>
      <point x="253.159" y="484.715" type="line"/>
      <point x="159.643" y="291.757" type="line"/>
      <point x="254.159" y="94.715" type="line"/>
      <point x="245.159" y="88.5007" type="line"/>
      <point x="40" y="291.757" type="line"/>
    </contour>
    <contour>
      <point x="438.267" y="489.715" type="line"/>
      <point x="446.267" y="484.715" type="line"/>
      <point x="352.751" y="291.757" type="line"/>
      <point x="447.267" y="94.7147" type="line"/>
      <point x="438.267" y="88.5004" type="line"/>
      <point x="233.108" y="291.757" type="line"/>
    </contour>
  </outline>
</glyph>
<glyph name="logicalnot" format="1">
  <advance width="600"/>
  <unicode hex="00AC"/>
  <outline>
    <contour>
      <point x="561.723" y="403.299" type="line"/>
      <point x="40" y="403.299" type="line"/>
      <point x="40" y="346.156" type="line"/>
      <point x="504.58" y="346.156" type="line"/>
      <point x="504.58" y="194.57" type="line"/>
      <point x="561.723" y="194.57" type="line"/>
      <point x="561.723" y="346.156" type="line"/>
    </contour>
  </outline>
</glyph>
<glyph name="registered" format="1">
  <advance width="245"/>
  <unicode hex="00AE"/>
  <outline>
    <contour>
      <point x="60.531" y="700.865"/>
      <point x="10" y="650.334"/>
      <point x="10" y="588" type="curve" smooth="yes"/>
      <point x="10" y="525.666"/>
      <point x="60.531" y="475.135"/>
      <point x="122.865" y="475.135" type="curve" smooth="yes"/>
      <point x="185.199" y="475.135"/>
      <point x="235.73" y="525.666"/>
      <point x="235.73" y="588" type="curve" smooth="yes"/>
      <point x="235.73" y="650.334"/>
      <point x="185.199" y="700.865"/>
      <point x="122.865" y="700.865" type="curve" smooth="yes"/>
    </contour>
    <contour>
      <point x="71.5829" y="497.336"/>
      <point x="32.2003" y="536.718"/>
      <point x="32.2003" y="588" type="curve" smooth="yes"/>
      <point x="32.2003" y="639.282"/>
      <point x="71.5829" y="678.665"/>
      <point x="122.865" y="678.665" type="curve" smooth="yes"/>
      <point x="174.147" y="678.665"/>
      <point x="213.529" y="639.282"/>
      <point x="213.529" y="588" type="curve" smooth="yes"/>
      <point x="213.529" y="536.718"/>
      <point x="174.147" y="497.336"/>
      <point x="122.865" y="497.336" type="curve" smooth="yes"/>
    </contour>
    <contour>
      <point x="64.5233" y="650.49" type="line"/>
      <point x="64.5553" y="648.492" type="line"/>
      <point x="67.0843" y="648.496" type="line" smooth="yes"/>
      <point x="73.0701" y="648.496"/>
      <point x="77.5869" y="644.004"/>
      <point x="77.7633" y="638.067" type="curve" smooth="yes"/>
      <point x="77.7633" y="543.134" type="line"/>
      <point x="77.5248" y="537.254"/>
      <point x="73.03" y="532.561"/>
      <point x="67.0873" y="532.561" type="curve" smooth="yes"/>
      <point x="64.5593" y="532.565" type="line"/>
      <point x="64.5273" y="530.567" type="line"/>
      <point x="119.063" y="530.567" type="line"/>
      <point x="119.031" y="532.565" type="line"/>
      <point x="116.502" y="532.561" type="line" smooth="yes"/>
      <point x="110.471" y="532.561"/>
      <point x="105.932" y="537.395"/>
      <point x="105.819" y="543.397" type="curve"/>
      <point x="105.819" y="641.308" type="line"/>
      <point x="116.623" y="641.112" type="line" smooth="yes"/>
      <point x="132.374" y="641.292"/>
      <point x="138.511" y="632.409"/>
      <point x="138.99" y="619.438" type="curve" smooth="yes"/>
      <point x="139.127" y="615.665"/>
      <point x="138.436" y="610.246"/>
      <point x="137.76" y="607.394" type="curve" smooth="yes"/>
      <point x="134.371" y="593.821"/>
      <point x="125.95" y="591.195"/>
      <point x="122.02" y="590.913" type="curve" smooth="yes"/>
      <point x="111.458" y="590.847" type="line"/>
      <point x="111.458" y="588.997" type="line"/>
      <point x="115.152" y="588.997"/>
      <point x="118.048" y="582.274"/>
      <point x="121.465" y="575.51" type="curve" smooth="yes"/>
      <point x="131.629" y="555.305"/>
      <point x="138.684" y="530.567"/>
      <point x="172.527" y="530.567" type="curve" smooth="yes"/>
      <point x="189.462" y="530.567" type="line"/>
      <point x="189.462" y="532.571" type="line"/>
      <point x="177.574" y="536.499"/>
      <point x="171.496" y="547.375"/>
      <point x="168.695" y="551.662" type="curve" smooth="yes"/>
      <point x="160.957" y="563.519"/>
      <point x="148.174" y="583.231"/>
      <point x="139.352" y="585.21" type="curve"/>
      <point x="156.374" y="587.009"/>
      <point x="169.094" y="598.137"/>
      <point x="169.094" y="618.124" type="curve" smooth="yes"/>
      <point x="169.094" y="638.315"/>
      <point x="150.015" y="650.49"/>
      <point x="126.413" y="650.49" type="curve" smooth="yes"/>
    </contour>
  </outline>
</glyph>
<glyph name="degree" format="1">
  <advance width="244"/>
  <unicode hex="00B0"/>
  <outline>
    <contour>
      <point x="68.044" y="664.351"/>
      <point x="23.929" y="620.236"/>
      <point x="23.929" y="565.817" type="curve" smooth="yes"/>
      <point x="23.929" y="511.396"/>
      <point x="68.044" y="467.281"/>
      <point x="122.464" y="467.281" type="curve" smooth="yes"/>
      <point x="176.884" y="467.281"/>
      <point x="220.999" y="511.396"/>
      <point x="220.999" y="565.817" type="curve" smooth="yes"/>
      <point x="220.999" y="620.236"/>
      <point x="176.884" y="664.351"/>
      <point x="122.464" y="664.351" type="curve" smooth="yes"/>
    </contour>
    <contour>
      <point x="149.112" y="613.403"/>
      <point x="170.051" y="592.465"/>
      <point x="170.051" y="565.817" type="curve" smooth="yes"/>
      <point x="170.051" y="539.168"/>
      <point x="149.112" y="518.229"/>
      <point x="122.464" y="518.229" type="curve" smooth="yes"/>
      <point x="95.8149" y="518.229"/>
      <point x="74.8768" y="539.168"/>
      <point x="74.8768" y="565.817" type="curve" smooth="yes"/>
      <point x="74.8768" y="592.465"/>
      <point x="95.8149" y="613.403"/>
      <point x="122.464" y="613.403" type="curve" smooth="yes"/>
    </contour>
  </outline>
</glyph>
<glyph name="plusminus" format="1">
  <advance width="481"/>
  <unicode hex="00B1"/>
  <outline>
    <contour>
      <point x="269.434" y="408.324" type="line"/>
      <point x="269.434" y="580.614" type="line"/>
      <point x="212.291" y="580.614" type="line"/>
      <point x="212.291" y="408.324" type="line"/>
      <point x="40" y="408.324" type="line"/>
      <point x="40" y="351.181" type="line"/>
      <point x="212.291" y="351.181" type="line"/>
      <point x="212.291" y="178.891" type="line"/>
      <point x="269.434" y="178.891" type="line"/>
      <point x="269.434" y="351.181" type="line"/>
      <point x="441.723" y="351.181" type="line"/>
      <point x="441.723" y="408.324" type="line"/>
    </contour>
    <contour>
      <point x="40" y="53.9281" type="line"/>
      <point x="441.723" y="53.9281" type="line"/>
      <point x="441.723" y="111.071" type="line"/>
      <point x="40" y="111.071" type="line"/>
    </contour>
  </outline>
</glyph>
<glyph name="twosuperior" format="1">
  <advance width="401"/>
  <unicode hex="00B2"/>
  <outline>
    <contour>
      <point x="74.0613" y="573.301" type="line"/>
      <point x="73.571" y="644.645"/>
      <point x="102.583" y="684.267"/>
      <point x="149.55" y="687.712" type="curve" smooth="yes"/>
      <point x="195.274" y="690.958"/>
      <point x="226.142" y="660.582"/>
      <point x="226.142" y="610.806" type="curve" smooth="yes"/>
      <point x="226.142" y="514.176"/>
      <point x="116.093" y="410.89"/>
      <point x="35.0178" y="313.824" type="curve"/>
      <point x="35.0178" y="307.927" type="line"/>
      <point x="330.368" y="307.927" type="line"/>
      <point x="368.19" y="460.51" type="line"/>
      <point x="362.293" y="460.51" type="line"/>
      <point x="341.545" y="418.672"/>
      <point x="318.588" y="400.828"/>
      <point x="283.538" y="400.828" type="curve" smooth="yes"/>
      <point x="173.459" y="400.828" type="line"/>
      <point x="231.847" y="434.499"/>
      <point x="339.982" y="505.051"/>
      <point x="339.982" y="601.063" type="curve" smooth="yes"/>
      <point x="339.982" y="673.093"/>
      <point x="267.489" y="717.303"/>
      <point x="177.348" y="717.303" type="curve" smooth="yes"/>
      <point x="123.646" y="717.303"/>
      <point x="66.202" y="701.348"/>
      <point x="33.7252" y="672.499" type="curve"/>
      <point x="68.1639" y="573.301" type="line"/>
    </contour>
  </outline>
</glyph>
<glyph name="threesuperior" format="1">
  <advance width="348"/>
  <unicode hex="00B3"/>
  <outline>
    <contour>
      <point x="56.4858" y="583.674" type="line"/>
      <point x="62.3836" y="583.674" type="line"/>
      <point x="60.6303" y="653.002"/>
      <point x="79.5483" y="681.471"/>
      <point x="125.204" y="685.141" type="curve" smooth="yes"/>
      <point x="157.975" y="687.485"/>
      <point x="189.864" y="672.337"/>
      <point x="193.083" y="630.361" type="curve" smooth="yes"/>
      <point x="196.892" y="576.95"/>
      <point x="152.255" y="536.17"/>
      <point x="96.7963" y="537.678" type="curve"/>
      <point x="95.7209" y="531.78" type="line"/>
      <point x="150.774" y="531.197"/>
      <point x="204.999" y="508.36"/>
      <point x="204.999" y="442.682" type="curve" smooth="yes"/>
      <point x="204.999" y="356.212"/>
      <point x="125.39" y="312.034"/>
      <point x="29.3769" y="314.296" type="curve"/>
      <point x="28.1975" y="308.641" type="line"/>
      <point x="156.287" y="256.879"/>
      <point x="314.94" y="302.093"/>
      <point x="314.94" y="436.789" type="curve" smooth="yes"/>
      <point x="314.94" y="501.227"/>
      <point x="265.788" y="530.761"/>
      <point x="221.78" y="538.519" type="curve"/>
      <point x="260.344" y="542.5"/>
      <point x="298.689" y="571.267"/>
      <point x="298.689" y="618.463" type="curve" smooth="yes"/>
      <point x="298.689" y="678.36"/>
      <point x="244.138" y="712.979"/>
      <point x="159.204" y="713.391" type="curve" smooth="yes"/>
      <point x="101.492" y="713.683"/>
      <point x="54.1155" y="698.908"/>
      <point x="27.7497" y="675.649" type="curve"/>
    </contour>
  </outline>
</glyph>
<glyph name="acute" format="1">
  <advance width="536"/>
  <unicode hex="00B4"/>
  <outline>
    <contour>
      <point x="209.492" y="744.15" type="line"/>
      <point x="275.061" y="759.986"/>
      <point x="354.594" y="796.251"/>
      <point x="414.091" y="834.088" type="curve"/>
      <point x="401.79" y="869.834"/>
      <point x="381.846" y="896.902"/>
      <point x="346.331" y="915.292" type="curve"/>
      <point x="302.837" y="876.328"/>
      <point x="236.271" y="809.078"/>
      <point x="202.492" y="751.15" type="curve"/>
    </contour>
    <contour>
      <point x="219.841" y="745.982" type="move" name="_top"/>
    </contour>
  </outline>
</glyph>
<glyph name="paragraph" format="1">
  <advance width="532"/>
  <unicode hex="00B6"/>
  <outline>
    <contour>
      <point x="515.51" y="742.622" type="line"/>
      <point x="474.583" y="695.471"/>
      <point x="441.591" y="700.186"/>
      <point x="419.637" y="700.186" type="curve" smooth="yes"/>
      <point x="246.318" y="700.186" type="line" smooth="yes"/>
      <point x="138.237" y="699.667"/>
      <point x="51.241" y="630.118"/>
      <point x="50.013" y="517.163" type="curve" smooth="yes"/>
      <point x="48.773" y="403.067"/>
      <point x="135.769" y="333.138"/>
      <point x="246.318" y="333.138" type="curve"/>
      <point x="246.318" y="0" type="line" smooth="yes"/>
      <point x="249.239" y="-97"/>
      <point x="241.851" y="-132"/>
      <point x="185.606" y="-190" type="curve"/>
      <point x="192.606" y="-199" type="line"/>
      <point x="275.096" y="-161"/>
      <point x="290.724" y="-77"/>
      <point x="290.724" y="0" type="curve" smooth="yes"/>
      <point x="290.724" y="658.043" type="line"/>
      <point x="374.179" y="658.043" type="line"/>
      <point x="374.179" y="144.629" type="line" smooth="yes"/>
      <point x="374.179" y="78.7609"/>
      <point x="375.935" y="44.4619"/>
      <point x="347.179" y="-5" type="curve"/>
      <point x="356.179" y="-13" type="line"/>
      <point x="395.297" y="22.467"/>
      <point x="416.322" y="70.0559"/>
      <point x="416.322" y="147.077" type="curve" smooth="yes"/>
      <point x="416.322" y="658.043" type="line"/>
      <point x="476.392" y="659.09"/>
      <point x="511.968" y="700.219"/>
      <point x="522.51" y="736.622" type="curve"/>
    </contour>
  </outline>
</glyph>
<glyph name="periodcentered" format="1">
  <advance width="218"/>
  <unicode hex="00B7"/>
  <outline>
    <contour>
      <point x="149.228" y="280.714"/>
      <point x="181.607" y="313.093"/>
      <point x="181.607" y="353.035" type="curve" smooth="yes"/>
      <point x="181.607" y="392.978"/>
      <point x="149.228" y="425.357"/>
      <point x="109.286" y="425.357" type="curve" smooth="yes"/>
      <point x="69.3436" y="425.357"/>
      <point x="36.9645" y="392.978"/>
      <point x="36.9645" y="353.035" type="curve" smooth="yes"/>
      <point x="36.9645" y="313.093"/>
      <point x="69.3436" y="280.714"/>
      <point x="109.286" y="280.714" type="curve" smooth="yes"/>
    </contour>
  </outline>
</glyph>
<glyph name="cedilla" format="1">
  <advance width="600"/>
  <unicode hex="00B8"/>
  <outline>
    <contour>
      <point x="228.798" y="-62" type="line"/>
      <point x="233.85" y="-72" type="line"/>
      <point x="269.852" y="-57"/>
      <point x="328.429" y="-66"/>
      <point x="325.892" y="-108" type="curve" smooth="yes"/>
      <point x="322.508" y="-160"/>
      <point x="268.96" y="-179"/>
      <point x="227.51" y="-179" type="curve"/>
      <point x="226.777" y="-189" type="line"/>
      <point x="303.555" y="-215"/>
      <point x="393.43" y="-176"/>
      <point x="396.535" y="-109" type="curve" smooth="yes"/>
      <point x="399.536" y="-40"/>
      <point x="318.545" y="-36"/>
      <point x="283.195" y="-48" type="curve"/>
      <point x="325.288" y="0.777" type="line"/>
      <point x="277.228" y="0.777" type="line"/>
    </contour>
    <contour>
      <point x="306.398" y="0" type="move" name="_bottom"/>
    </contour>
  </outline>
</glyph>
<glyph name="onesuperior" format="1">
  <advance width="260"/>
  <unicode hex="00B9"/>
  <outline>
    <contour>
      <point x="38.345" y="308.154" type="line"/>
      <point x="38.4267" y="314.052" type="line"/>
      <point x="50.756" y="314.04" type="line" smooth="yes"/>
      <point x="68.5339" y="314.022"/>
      <point x="83.3206" y="328.269"/>
      <point x="83.3206" y="345.959" type="curve" smooth="yes"/>
      <point x="83.3206" y="632.271" type="line" smooth="yes"/>
      <point x="83.3206" y="660.944"/>
      <point x="69.1108" y="670.852"/>
      <point x="46.4989" y="670.852" type="curve" smooth="yes"/>
      <point x="33.9282" y="670.852" type="line"/>
      <point x="33.9282" y="676.749" type="line"/>
      <point x="66.0526" y="678.954"/>
      <point x="145.276" y="689.094"/>
      <point x="183.758" y="714.494" type="curve"/>
      <point x="189.655" y="714.494" type="line"/>
      <point x="189.655" y="345.574" type="line" smooth="yes"/>
      <point x="189.655" y="328.058"/>
      <point x="204.561" y="314.021"/>
      <point x="222.21" y="314.039" type="curve" smooth="yes"/>
      <point x="234.539" y="314.051" type="line"/>
      <point x="234.621" y="308.154" type="line"/>
    </contour>
  </outline>
</glyph>
<glyph name="ordmasculine" format="1">
  <advance width="404"/>
  <unicode hex="00BA"/>
  <outline>
    <contour>
      <point x="93.098" y="711.447"/>
      <point x="23.9285" y="645.516"/>
      <point x="23.9285" y="542.505" type="curve" smooth="yes"/>
      <point x="23.9285" y="439.908"/>
      <point x="93.098" y="374.099"/>
      <point x="202.29" y="374.099" type="curve" smooth="yes"/>
      <point x="311.912" y="374.099"/>
      <point x="381.082" y="439.908"/>
      <point x="381.082" y="542.505" type="curve" smooth="yes"/>
      <point x="381.082" y="645.516"/>
      <point x="311.912" y="711.447"/>
      <point x="202.29" y="711.447" type="curve" smooth="yes"/>
    </contour>
    <contour>
      <point x="148.363" y="397.843"/>
      <point x="118.512" y="454.221"/>
      <point x="118.512" y="542.506" type="curve" smooth="yes"/>
      <point x="118.512" y="631.204"/>
      <point x="148.363" y="687.584"/>
      <point x="202.29" y="687.584" type="curve" smooth="yes"/>
      <point x="256.647" y="687.584"/>
      <point x="286.068" y="631.204"/>
      <point x="286.068" y="542.506" type="curve" smooth="yes"/>
      <point x="286.068" y="454.221"/>
      <point x="256.647" y="397.843"/>
      <point x="202.29" y="397.843" type="curve" smooth="yes"/>
    </contour>
  </outline>
</glyph>
<glyph name="guillemotright" format="1">
  <advance width="506"/>
  <unicode hex="00BB"/>
  <outline>
    <contour>
      <point x="69" y="88.5013" type="line"/>
      <point x="60" y="94.7156" type="line"/>
      <point x="154.516" y="291.758" type="line"/>
      <point x="61" y="484.716" type="line"/>
      <point x="69" y="489.716" type="line"/>
      <point x="274.159" y="291.757" type="line"/>
    </contour>
    <contour>
      <point x="262.108" y="88.501" type="line"/>
      <point x="253.108" y="94.7153" type="line"/>
      <point x="347.624" y="291.757" type="line"/>
      <point x="254.108" y="484.715" type="line"/>
      <point x="262.108" y="489.715" type="line"/>
      <point x="467.267" y="291.757" type="line"/>
    </contour>
  </outline>
</glyph>
<glyph name="onequarter" format="1">
  <advance width="747"/>
  <unicode hex="00BC"/>
  <outline>
    <contour>
      <point x="223.995" y="314.039" type="line" smooth="yes"/>
      <point x="206.346" y="314.021"/>
      <point x="191.44" y="328.058"/>
      <point x="191.44" y="345.574" type="curve" smooth="yes"/>
      <point x="191.44" y="714.494" type="line"/>
      <point x="185.543" y="714.494" type="line"/>
      <point x="147.061" y="689.095"/>
      <point x="67.8374" y="678.954"/>
      <point x="35.713" y="676.749" type="curve"/>
      <point x="35.713" y="670.852" type="line"/>
      <point x="48.2837" y="670.852" type="line" smooth="yes"/>
      <point x="70.8956" y="670.852"/>
      <point x="85.1054" y="660.944"/>
      <point x="85.1054" y="632.271" type="curve" smooth="yes"/>
      <point x="85.1054" y="345.959" type="line" smooth="yes"/>
      <point x="85.1054" y="328.27"/>
      <point x="70.3187" y="314.022"/>
      <point x="52.5408" y="314.04" type="curve" smooth="yes"/>
      <point x="40.2115" y="314.052" type="line"/>
      <point x="40.1298" y="308.154" type="line"/>
      <point x="236.406" y="308.154" type="line"/>
      <point x="236.323" y="314.052" type="line"/>
    </contour>
    <contour>
      <point x="701.879" y="107.006" type="line"/>
      <point x="719.8" y="186.186" type="line"/>
      <point x="713.538" y="186.186" type="line"/>
      <point x="706.024" y="172.049"/>
      <point x="697.618" y="164.121"/>
      <point x="674.55" y="164.121" type="curve" smooth="yes"/>
      <point x="647.307" y="164.121" type="line"/>
      <point x="647.307" y="407.135" type="line"/>
      <point x="641.443" y="407.135" type="line"/>
      <point x="352.985" y="113.268" type="line"/>
      <point x="352.985" y="107.006" type="line"/>
      <point x="542.458" y="107.006" type="line"/>
      <point x="542.458" y="38.4085" type="line"/>
      <point x="541.751" y="19.6805"/>
      <point x="526.344" y="5.94011"/>
      <point x="507.907" y="5.94011" type="curve" smooth="yes"/>
      <point x="501.078" y="5.94011" type="line"/>
      <point x="500.992" y="0" type="line"/>
      <point x="688.786" y="0" type="line"/>
      <point x="688.698" y="5.94011" type="line"/>
      <point x="681.87" y="5.94011" type="line" smooth="yes"/>
      <point x="663.264" y="5.94011"/>
      <point x="647.529" y="20.7558"/>
      <point x="647.307" y="39.3543" type="curve"/>
      <point x="647.307" y="107.006" type="line"/>
    </contour>
    <contour>
      <point x="446.33" y="164.121" type="line"/>
      <point x="542.458" y="260.681" type="line"/>
      <point x="542.458" y="164.121" type="line"/>
    </contour>
    <contour>
      <point x="589.885" y="719.464" type="line"/>
      <point x="627.992" y="693.511" type="line"/>
      <point x="150.008" y="-18" type="line"/>
      <point x="111.536" y="7.548" type="line"/>
    </contour>
  </outline>
</glyph>
<glyph name="onehalf" format="1">
  <advance width="832"/>
  <unicode hex="00BD"/>
  <outline>
    <contour>
      <point x="40.131" y="308.154" type="line"/>
      <point x="40.2127" y="314.052" type="line"/>
      <point x="52.542" y="314.04" type="line" smooth="yes"/>
      <point x="70.3199" y="314.022"/>
      <point x="85.1066" y="328.269"/>
      <point x="85.1066" y="345.959" type="curve" smooth="yes"/>
      <point x="85.1066" y="632.271" type="line" smooth="yes"/>
      <point x="85.1066" y="660.944"/>
      <point x="70.8968" y="670.852"/>
      <point x="48.2849" y="670.852" type="curve" smooth="yes"/>
      <point x="35.7142" y="670.852" type="line"/>
      <point x="35.7142" y="676.749" type="line"/>
      <point x="67.8386" y="678.954"/>
      <point x="147.062" y="689.094"/>
      <point x="185.544" y="714.494" type="curve"/>
      <point x="191.441" y="714.494" type="line"/>
      <point x="191.441" y="345.574" type="line" smooth="yes"/>
      <point x="191.441" y="328.058"/>
      <point x="206.347" y="314.021"/>
      <point x="223.996" y="314.039" type="curve" smooth="yes"/>
      <point x="236.325" y="314.051" type="line"/>
      <point x="236.407" y="308.154" type="line"/>
    </contour>
    <contour>
      <point x="498.597" y="265.375" type="line"/>
      <point x="498.107" y="336.718"/>
      <point x="527.119" y="376.341"/>
      <point x="574.086" y="379.786" type="curve" smooth="yes"/>
      <point x="619.81" y="383.032"/>
      <point x="650.678" y="352.656"/>
      <point x="650.678" y="302.88" type="curve" smooth="yes"/>
      <point x="650.678" y="206.249"/>
      <point x="540.629" y="102.963"/>
      <point x="459.554" y="5.89798" type="curve"/>
      <point x="459.554" y="0" type="line"/>
      <point x="754.904" y="0" type="line"/>
      <point x="792.726" y="152.583" type="line"/>
      <point x="786.828" y="152.583" type="line"/>
      <point x="766.08" y="110.745"/>
      <point x="743.124" y="92.9013"/>
      <point x="708.074" y="92.9013" type="curve" smooth="yes"/>
      <point x="597.995" y="92.9013" type="line"/>
      <point x="656.383" y="126.573"/>
      <point x="764.518" y="197.124"/>
      <point x="764.518" y="293.137" type="curve" smooth="yes"/>
      <point x="764.518" y="365.166"/>
      <point x="692.024" y="409.376"/>
      <point x="601.884" y="409.376" type="curve" smooth="yes"/>
      <point x="548.182" y="409.376"/>
      <point x="490.738" y="393.422"/>
      <point x="458.261" y="364.573" type="curve"/>
      <point x="492.7" y="265.375" type="line"/>
    </contour>
    <contour>
      <point x="576.135" y="719.464" type="line"/>
      <point x="614.242" y="693.511" type="line"/>
      <point x="136.258" y="-18" type="line"/>
      <point x="97.7857" y="7.548" type="line"/>
    </contour>
  </outline>
</glyph>
<glyph name="threequarters" format="1">
  <advance width="789"/>
  <unicode hex="00BE"/>
  <outline>
    <contour>
      <point x="59.2938" y="583.674" type="line"/>
      <point x="65.1916" y="583.674" type="line"/>
      <point x="63.4384" y="653.002"/>
      <point x="82.3563" y="681.471"/>
      <point x="128.012" y="685.141" type="curve" smooth="yes"/>
      <point x="160.783" y="687.485"/>
      <point x="192.672" y="672.337"/>
      <point x="195.891" y="630.361" type="curve" smooth="yes"/>
      <point x="199.7" y="576.95"/>
      <point x="155.063" y="536.17"/>
      <point x="99.6043" y="537.678" type="curve"/>
      <point x="98.5289" y="531.78" type="line"/>
      <point x="153.582" y="531.197"/>
      <point x="207.807" y="508.36"/>
      <point x="207.807" y="442.682" type="curve" smooth="yes"/>
      <point x="207.807" y="356.212"/>
      <point x="128.198" y="312.034"/>
      <point x="32.185" y="314.296" type="curve"/>
      <point x="31.0055" y="308.641" type="line"/>
      <point x="159.095" y="256.879"/>
      <point x="317.748" y="302.093"/>
      <point x="317.748" y="436.789" type="curve" smooth="yes"/>
      <point x="317.748" y="501.227"/>
      <point x="268.596" y="530.761"/>
      <point x="224.588" y="538.519" type="curve"/>
      <point x="263.152" y="542.5"/>
      <point x="301.497" y="571.267"/>
      <point x="301.497" y="618.463" type="curve" smooth="yes"/>
      <point x="301.497" y="678.36"/>
      <point x="246.946" y="712.979"/>
      <point x="162.012" y="713.391" type="curve" smooth="yes"/>
      <point x="104.3" y="713.683"/>
      <point x="56.9235" y="698.908"/>
      <point x="30.5577" y="675.649" type="curve"/>
    </contour>
    <contour>
      <point x="752.415" y="107.006" type="line"/>
      <point x="770.336" y="186.186" type="line"/>
      <point x="764.074" y="186.186" type="line"/>
      <point x="756.56" y="172.049"/>
      <point x="748.154" y="164.121"/>
      <point x="725.086" y="164.121" type="curve" smooth="yes"/>
      <point x="697.843" y="164.121" type="line"/>
      <point x="697.843" y="407.135" type="line"/>
      <point x="691.978" y="407.135" type="line"/>
      <point x="403.521" y="113.268" type="line"/>
      <point x="403.521" y="107.006" type="line"/>
      <point x="592.994" y="107.006" type="line"/>
      <point x="592.994" y="38.4087" type="line"/>
      <point x="592.287" y="19.6806"/>
      <point x="576.879" y="5.94039"/>
      <point x="558.442" y="5.94039" type="curve" smooth="yes"/>
      <point x="551.614" y="5.94039" type="line"/>
      <point x="551.527" y="0" type="line"/>
      <point x="739.321" y="0" type="line"/>
      <point x="739.234" y="5.94039" type="line"/>
      <point x="732.405" y="5.94039" type="line" smooth="yes"/>
      <point x="713.8" y="5.94039"/>
      <point x="698.065" y="20.7561"/>
      <point x="697.842" y="39.3545" type="curve"/>
      <point x="697.842" y="107.006" type="line"/>
    </contour>
    <contour>
      <point x="496.865" y="164.121" type="line"/>
      <point x="592.993" y="260.681" type="line"/>
      <point x="592.993" y="164.121" type="line"/>
    </contour>
    <contour>
      <point x="648.67" y="719.464" type="line"/>
      <point x="686.778" y="693.511" type="line"/>
      <point x="208.794" y="-18" type="line"/>
      <point x="170.321" y="7.548" type="line"/>
    </contour>
  </outline>
</glyph>
<glyph name="questiondown" format="1">
  <advance width="487"/>
  <unicode hex="00BF"/>
  <outline>
    <contour>
      <point x="214.119" y="710.071"/>
      <point x="181.919" y="677.871"/>
      <point x="181.781" y="637.75" type="curve" smooth="yes"/>
      <point x="181.919" y="597.629"/>
      <point x="214.119" y="565.428"/>
      <point x="253.633" y="565.428" type="curve" smooth="yes"/>
      <point x="293.754" y="565.428"/>
      <point x="326.561" y="597.629"/>
      <point x="326.424" y="637.75" type="curve"/>
      <point x="326.561" y="677.871"/>
      <point x="293.754" y="710.071"/>
      <point x="253.633" y="710.071" type="curve" smooth="yes"/>
    </contour>
    <contour>
      <point x="419.556" y="181.913" type="line"/>
      <point x="409.556" y="181.913" type="line"/>
      <point x="410.342" y="79.348"/>
      <point x="368.649" y="28.1427"/>
      <point x="300.531" y="28.1427" type="curve" smooth="yes"/>
      <point x="235.914" y="28.1427"/>
      <point x="198.464" y="74.211"/>
      <point x="197.857" y="154.665" type="curve" smooth="yes"/>
      <point x="196.643" y="280.445"/>
      <point x="304.326" y="302.203"/>
      <point x="309.79" y="389.852" type="curve" smooth="yes"/>
      <point x="314.04" y="443.044"/>
      <point x="280.467" y="481.058"/>
      <point x="231.43" y="502.705" type="curve"/>
      <point x="223.598" y="497.115" type="line"/>
      <point x="251.595" y="449.138"/>
      <point x="225.026" y="421.348"/>
      <point x="196.597" y="390.397" type="curve" smooth="yes"/>
      <point x="125.169" y="309.062"/>
      <point x="37.8566" y="263.224"/>
      <point x="37.8566" y="160.13" type="curve" smooth="yes"/>
      <point x="37.8566" y="50.5112"/>
      <point x="118.681" y="-14"/>
      <point x="261.674" y="-14" type="curve" smooth="yes"/>
      <point x="353.67" y="-14"/>
      <point x="423.707" y="21.4716"/>
      <point x="453.842" y="75.046" type="curve"/>
    </contour>
  </outline>
</glyph>
<glyph name="Agrave" format="1">
  <advance width="716"/>
  <unicode hex="00C0"/>
  <outline>
    <contour>
      <point x="370.983" y="770.944" type="line"/>
      <point x="337.204" y="829.265"/>
      <point x="270.638" y="896.122"/>
      <point x="227.144" y="935.086" type="curve"/>
      <point x="191.629" y="917.089"/>
      <point x="171.685" y="890.021"/>
      <point x="159.384" y="853.882" type="curve"/>
      <point x="218.881" y="816.045"/>
      <point x="298.415" y="779.388"/>
      <point x="363.983" y="763.944" type="curve"/>
    </contour>
    <contour>
      <point x="354.557" y="720.07" type="line"/>
      <point x="345.551" y="720.071" type="line"/>
      <point x="343.122" y="690.962"/>
      <point x="303.504" y="604.273"/>
      <point x="296.369" y="589.061" type="curve" smooth="yes"/>
      <point x="65.1345" y="66.3452" type="line"/>
      <point x="43.8937" y="26.6136"/>
      <point x="9.40609" y="9.99979"/>
      <point x="-19" y="9.99979" type="curve" smooth="yes"/>
      <point x="-28" y="9.99979" type="line"/>
      <point x="-28" y="0" type="line"/>
      <point x="186.422" y="0" type="line"/>
      <point x="186.422" y="9.90779" type="line"/>
      <point x="177.63" y="9.90779" type="line" smooth="yes"/>
      <point x="151.813" y="9.90779"/>
      <point x="122.966" y="32.6636"/>
      <point x="139.39" y="72.6811" type="curve" smooth="yes"/>
      <point x="190.551" y="196.25" type="line"/>
      <point x="425.214" y="196.25" type="line"/>
      <point x="474.44" y="72.6821" type="line" smooth="yes"/>
      <point x="489.697" y="32.664"/>
      <point x="461.61" y="9.9109"/>
      <point x="435.794" y="9.9109" type="curve" smooth="yes"/>
      <point x="427.002" y="9.9109" type="line"/>
      <point x="427.002" y="0" type="line"/>
      <point x="745.607" y="0" type="line"/>
      <point x="745.607" y="10" type="line"/>
      <point x="737.244" y="10" type="line" smooth="yes"/>
      <point x="707.774" y="10"/>
      <point x="673.542" y="27.0738"/>
      <point x="651.906" y="67.997" type="curve"/>
    </contour>
    <contour>
      <point x="208.138" y="238.393" type="line"/>
      <point x="310.606" y="483.943" type="line"/>
      <point x="408.426" y="238.393" type="line"/>
    </contour>
  </outline>
</glyph>
<glyph name="Aacute" format="1">
  <advance width="716"/>
  <unicode hex="00C1"/>
  <outline>
    <contour>
      <point x="341.548" y="762.168" type="line"/>
      <point x="407.117" y="778.004"/>
      <point x="486.65" y="814.269"/>
      <point x="546.147" y="852.106" type="curve"/>
      <point x="533.846" y="887.852"/>
      <point x="513.902" y="914.92"/>
      <point x="478.387" y="933.31" type="curve"/>
      <point x="434.893" y="894.346"/>
      <point x="368.327" y="827.096"/>
      <point x="334.548" y="769.168" type="curve"/>
    </contour>
    <contour>
      <point x="354.557" y="720.07" type="line"/>
      <point x="345.551" y="720.071" type="line"/>
      <point x="343.123" y="690.962"/>
      <point x="303.504" y="604.273"/>
      <point x="296.37" y="589.061" type="curve" smooth="yes"/>
      <point x="65.1345" y="66.3452" type="line"/>
      <point x="43.8937" y="26.6136"/>
      <point x="9.4061" y="9.99983"/>
      <point x="-19" y="9.99983" type="curve" smooth="yes"/>
      <point x="-28" y="9.99983" type="line"/>
      <point x="-28" y="0" type="line"/>
      <point x="186.422" y="0" type="line"/>
      <point x="186.422" y="9.90783" type="line"/>
      <point x="177.63" y="9.90783" type="line" smooth="yes"/>
      <point x="151.813" y="9.90783"/>
      <point x="122.967" y="32.6636"/>
      <point x="139.39" y="72.6811" type="curve" smooth="yes"/>
      <point x="190.551" y="196.25" type="line"/>
      <point x="425.214" y="196.25" type="line"/>
      <point x="474.44" y="72.6821" type="line" smooth="yes"/>
      <point x="489.698" y="32.664"/>
      <point x="461.61" y="9.91093"/>
      <point x="435.794" y="9.91093" type="curve" smooth="yes"/>
      <point x="427.002" y="9.91093" type="line"/>
      <point x="427.002" y="0" type="line"/>
      <point x="745.607" y="0" type="line"/>
      <point x="745.607" y="10" type="line"/>
      <point x="737.244" y="10" type="line" smooth="yes"/>
      <point x="707.774" y="10"/>
      <point x="673.543" y="27.0738"/>
      <point x="651.906" y="67.997" type="curve"/>
    </contour>
    <contour>
      <point x="208.138" y="238.393" type="line"/>
      <point x="310.606" y="483.943" type="line"/>
      <point x="408.426" y="238.393" type="line"/>
    </contour>
  </outline>
</glyph>
